<svg width="180" height="180" viewBox="0 0 180 180" fill="none" xmlns="http://www.w3.org/2000/svg">
<g id="Listening" clip-path="url(#clip0_2675_17320)">
<path id="Vector" d="M180 0H0V180H180V0Z" fill="#DCDAEF"/>
<g id="Group">
<path id="Vector_2" d="M136.246 69.0097C147.129 69.0097 155.952 60.187 155.952 49.3037C155.952 38.4203 147.129 29.5977 136.246 29.5977C125.363 29.5977 116.54 38.4203 116.54 49.3037C116.54 60.187 125.363 69.0097 136.246 69.0097Z" fill="#91BCE8"/>
<g id="Group_2">
<path id="Vector_3" d="M134.374 43.0266C134.527 42.0421 133.853 41.1201 132.869 40.9672C131.885 40.8143 130.963 41.4885 130.81 42.473L128.992 54.1787C128.839 55.1632 129.513 56.0852 130.497 56.238C131.481 56.3909 132.402 55.7167 132.555 54.7322L134.374 43.0266Z" fill="#F1F2F2"/>
<path id="Vector_4" d="M143.492 44.4436C143.645 43.4591 142.971 42.537 141.987 42.3842C141.003 42.2313 140.082 42.9055 139.929 43.89L138.11 55.5956C137.958 56.5802 138.631 57.5022 139.615 57.655C140.599 57.8079 141.521 57.1337 141.674 56.1492L143.492 44.4436Z" fill="#F1F2F2"/>
</g>
</g>
<g id="Group_3" opacity="0.8">
<path id="Vector_5" opacity="0.2" d="M71.858 175.708C92.4273 175.708 109.102 159.033 109.102 138.464C109.102 117.894 92.4273 101.22 71.858 101.22C51.2887 101.22 34.614 117.894 34.614 138.464C34.614 159.033 51.2887 175.708 71.858 175.708Z" fill="#F1F2F2"/>
<path id="Vector_6" opacity="0.4" d="M71.858 170.14C89.3522 170.14 103.534 155.958 103.534 138.464C103.534 120.97 89.3522 106.788 71.858 106.788C54.3638 106.788 40.182 120.97 40.182 138.464C40.182 155.958 54.3638 170.14 71.858 170.14Z" fill="#F1F2F2"/>
<path id="Vector_7" opacity="0.8" d="M71.7861 164.731C86.2935 164.731 98.0541 152.971 98.0541 138.463C98.0541 123.956 86.2935 112.195 71.7861 112.195C57.2787 112.195 45.5181 123.956 45.5181 138.463C45.5181 152.971 57.2787 164.731 71.7861 164.731Z" fill="#F1F2F2"/>
</g>
<g id="Group_4" opacity="0.8">
<path id="Vector_8" opacity="0.2" d="M136.318 159.82C156.887 159.82 173.562 143.145 173.562 122.576C173.562 102.007 156.887 85.332 136.318 85.332C115.749 85.332 99.074 102.007 99.074 122.576C99.074 143.145 115.749 159.82 136.318 159.82Z" fill="#F1F2F2"/>
<path id="Vector_9" opacity="0.4" d="M136.318 154.252C153.812 154.252 167.994 140.071 167.994 122.576C167.994 105.082 153.812 90.9004 136.318 90.9004C118.824 90.9004 104.642 105.082 104.642 122.576C104.642 140.071 118.824 154.252 136.318 154.252Z" fill="#F1F2F2"/>
<path id="Vector_10" opacity="0.8" d="M136.246 148.844C150.753 148.844 162.514 137.083 162.514 122.576C162.514 108.068 150.753 96.3076 136.246 96.3076C121.739 96.3076 109.978 108.068 109.978 122.576C109.978 137.083 121.739 148.844 136.246 148.844Z" fill="#F1F2F2"/>
</g>
<g id="Group_5">
<path id="Vector_11" d="M38.152 68.304C53.1476 68.304 65.304 56.1476 65.304 41.152C65.304 26.1564 53.1476 14 38.152 14C23.1564 14 11 26.1564 11 41.152C11 56.1476 23.1564 68.304 38.152 68.304Z" fill="#7DB5E2"/>
<path id="Vector_12" d="M47.3761 35.9362L29.6661 32.5142C28.1941 32.2302 26.9681 33.6442 27.4581 35.0602L33.3501 52.1082C33.8401 53.5242 35.6781 53.8802 36.6601 52.7482L48.4781 39.1222C49.4601 37.9902 48.8481 36.2202 47.3761 35.9362Z" fill="#F1F2F2"/>
</g>
<g id="Group_6">
<path id="Vector_13" d="M142.506 88.6961C141.644 89.4461 140.192 89.8081 139.08 89.5401C138.86 89.4861 138.304 89.1801 138.102 89.0321C136.62 87.9541 135.452 83.7861 134.53 81.8961C132.432 77.6041 129.912 74.6061 126.714 71.4261C104.734 49.5661 68.724 58.4501 59.412 87.9961C58.054 92.3041 57.224 96.1161 57.35 100.898C57.406 103.01 58.306 107.242 57.498 108.876C57.386 109.1 57.038 109.63 56.868 109.78C56.008 110.534 54.554 110.888 53.442 110.624C52.358 110.366 51.11 109.036 50.842 107.95C48.928 100.166 51.028 88.1021 54.238 80.8361C66.97 52.0101 103.48 43.0461 128.09 62.7701C134.41 67.8341 141.462 77.2381 143.56 85.1341C143.844 86.2061 143.336 87.9741 142.506 88.6961Z" fill="#9873C9"/>
<path id="Vector_14" d="M69.9159 120.244C76.1299 129.9 82.8179 139.264 88.9999 148.942C89.2039 149.26 89.7599 149.7 89.7919 149.76C90.4879 151.102 90.3759 153.226 89.2859 154.342C82.9699 157.896 78.0719 164.826 69.6519 158.248C64.0599 153.88 59.5239 148.194 56.4079 141.824C54.0159 136.932 50.8439 129.482 56.2079 125.328C58.5399 123.522 61.9779 121.356 64.5379 119.812C64.7679 119.674 64.9559 119.334 64.9859 119.32C66.6539 118.502 68.7639 118.69 69.9159 120.244Z" fill="#9873C9"/>
<path id="Vector_15" d="M136.318 101.761C138.854 101.803 144.302 102.371 146.834 102.805C149.594 103.277 152.026 105.215 152.868 107.917C154.992 114.727 155.316 122.059 153.996 129.059C152.946 134.627 150.714 144.179 143.914 145.197C142.69 145.381 132.526 144.391 131.256 144.011C129.638 143.527 128.522 141.911 128.48 140.237C128.48 140.203 128.692 139.879 128.708 139.611C129.306 129.711 130.784 119.053 131.944 109.147C132.092 107.889 132.006 105.977 132.18 104.917C132.192 104.847 132.66 103.693 132.708 103.607C133.456 102.279 134.866 101.737 136.318 101.761Z" fill="#9873C9"/>
<path id="Vector_16" d="M126.714 71.426C124.448 72.924 122.882 73.854 120.06 73.494C117.756 73.202 116.468 71.74 114.564 70.674C99.1379 62.032 79.3419 66.986 69.7459 81.812C68.6639 83.484 68.1979 85.284 66.5359 86.558C64.2179 88.334 62.1739 88.292 59.4139 87.994C68.7259 58.448 104.736 49.566 126.716 71.424L126.714 71.426Z" fill="#424296"/>
<path id="Vector_17" d="M89.792 149.76C89.76 149.7 89.204 149.26 89 148.942C82.818 139.264 76.13 129.9 69.916 120.244C72.968 118.732 76.358 118.738 78.87 121.178C82.8 127.28 87.728 133.398 91.366 139.646C92.312 141.27 92.872 142.33 92.786 144.282C92.692 146.422 91.47 148.472 89.792 149.76Z" fill="#424296"/>
<path id="Vector_18" d="M132.18 104.916C132.004 105.976 132.09 107.888 131.944 109.146C130.786 119.052 129.306 129.71 128.708 139.61C128.692 139.878 128.48 140.202 128.48 140.236C126.336 139.866 124.272 138.56 123.202 136.63C121.814 134.128 122.468 131.638 122.704 128.938C123.178 123.488 123.62 116.482 124.594 111.216C125.33 107.232 128.076 104.996 132.182 104.916H132.18Z" fill="#424296"/>
<path id="Vector_19" d="M64.9859 119.322C64.9559 119.336 64.768 119.676 64.538 119.814C61.976 121.358 58.54 123.524 56.208 125.33C55.082 123.25 52.9899 121.814 53.8799 119.206C54.0099 118.828 54.646 117.752 54.928 117.524C55.346 117.186 57.552 115.748 58.056 115.472C61.7 113.476 63.4 116.578 64.988 119.322H64.9859Z" fill="#331F63"/>
<path id="Vector_20" d="M140.672 95.1319C141.316 95.1299 143.582 95.2579 144.144 95.3459C144.304 95.3719 146.074 96.3759 146.242 96.5539C147.924 98.3259 146.922 100.666 146.834 102.804C144.304 102.37 138.856 101.802 136.318 101.76C136.448 98.4359 136.408 95.1499 140.67 95.1319H140.672Z" fill="#331F63"/>
<path id="Vector_21" d="M56.8659 109.78L58.0539 115.472C57.5499 115.748 55.3439 117.186 54.9259 117.524L53.4399 110.624C54.5519 110.888 56.0059 110.536 56.8659 109.78Z" fill="#89ACC9"/>
<path id="Vector_22" d="M142.506 88.6963C143.146 90.8363 144.106 93.0903 144.144 95.3463C143.58 95.2583 141.316 95.1303 140.672 95.1323L139.082 89.5403C140.194 89.8103 141.646 89.4483 142.508 88.6963H142.506Z" fill="#89ACC9"/>
</g>
</g>
<defs>
<clipPath id="clip0_2675_17320">
<rect width="180" height="180" fill="white"/>
</clipPath>
</defs>
</svg>
