<svg width="178" height="180" viewBox="0 0 178 180" fill="none" xmlns="http://www.w3.org/2000/svg">
<g id="Speaking" clip-path="url(#clip0_2675_17350)">
<path id="Vector" d="M180 0H0V180H180V0Z" fill="#CCF1FF"/>
<g id="Group" opacity="0.76">
<path id="Vector_2" d="M104.37 98.7275H47.668C45.518 98.7275 43.774 100.472 43.774 102.622V145.73C43.774 147.88 45.518 149.624 47.668 149.624H73.14C73.282 149.624 73.422 149.66 73.546 149.728C76.912 151.57 80.22 153.512 83.536 155.44C85.27 156.448 87.008 157.45 88.752 158.436C89.884 159.076 90.99 159.76 92.13 160.384C93.152 160.942 94.204 161.568 95.408 161.574C96.99 161.584 99.038 161.094 99.042 158.3C99.044 156.952 99.028 156.48 99.042 155.31C99.058 153.962 99.042 152.612 99.042 151.264V150.464C99.042 150 99.418 149.624 99.882 149.624H104.368C106.518 149.624 108.262 147.88 108.262 145.73V102.622C108.262 100.472 106.518 98.7275 104.368 98.7275H104.37Z" fill="#05AEE2"/>
<path id="Vector_3" d="M61.8 127.964L85.404 127.924C87.142 128.08 87.266 130.724 85.404 130.886L61.506 130.792C60.322 129.958 60.408 128.488 61.8 127.964Z" fill="#77CEF8"/>
<path id="Vector_4" d="M62.1521 140.135L77.5621 140.109C79.4541 140.245 79.6961 143.001 77.7561 143.225L61.9461 143.211C60.1061 142.705 60.3001 140.411 62.1521 140.135Z" fill="#77CEF8"/>
<path id="Vector_5" d="M83.528 140.133L99.12 140.105C101.13 140.415 101.102 142.925 99.136 143.227L83.5 143.213C81.724 142.709 81.722 140.609 83.53 140.135L83.528 140.133Z" fill="#77CEF8"/>
<path id="Vector_6" d="M61.9781 134.052C62.9941 133.87 69.3161 133.838 70.2421 134.048C71.9101 134.426 71.7401 136.87 70.0941 137.13C68.8341 137.328 63.3901 137.322 62.1201 137.13C60.2501 136.844 60.1981 134.372 61.9761 134.054L61.9781 134.052Z" fill="#77CEF8"/>
<path id="Vector_7" d="M90.9981 127.964C93.5141 128.17 96.8821 127.556 99.2941 127.938C100.974 128.204 100.98 130.634 99.4661 130.872C98.1581 131.078 92.2801 131.078 90.9721 130.872C89.4881 130.638 89.4841 128.346 90.9981 127.966V127.964Z" fill="#77CEF8"/>
<path id="Vector_8" d="M52.7661 140.133C53.4701 139.991 55.9361 140.009 56.5881 140.227C58.1181 140.737 57.9161 142.967 56.3641 143.211C55.7101 143.315 52.8661 143.301 52.3341 143.089C50.9621 142.539 51.2701 140.433 52.7641 140.133H52.7661Z" fill="#77CEF8"/>
<path id="Vector_9" d="M52.588 134.048C53.15 133.922 56.12 133.928 56.644 134.088C58.082 134.526 57.934 136.776 56.334 137.098C55.672 137.232 53.276 137.222 52.632 137.056C51.022 136.638 51.186 134.36 52.586 134.048H52.588Z" fill="#77CEF8"/>
<path id="Vector_10" d="M52.588 127.963C53.148 127.837 56.122 127.845 56.644 128.005C58.058 128.435 57.808 130.639 56.544 130.877C56.084 130.965 52.802 130.957 52.412 130.845C51.202 130.493 51.122 128.291 52.586 127.963H52.588Z" fill="#77CEF8"/>
</g>
<g id="Group_2" opacity="0.6">
<path id="Vector_11" d="M108.66 25.9541H142.718C144.01 25.9541 145.056 27.0821 145.056 28.4741V56.3801C145.056 57.7721 144.008 58.9001 142.718 58.9001H127.418C127.332 58.9001 127.248 58.9241 127.174 58.9681C125.152 60.1601 123.164 61.4181 121.174 62.6661C120.132 63.3181 119.088 63.9661 118.04 64.6061C117.36 65.0201 116.696 65.4641 116.01 65.8681C115.396 66.2301 114.764 66.6341 114.04 66.6381C113.09 66.6441 111.86 66.3281 111.856 64.5181C111.856 63.6461 111.864 63.3401 111.856 62.5821C111.846 61.7101 111.856 60.8361 111.856 59.9621V59.4441C111.856 59.1441 111.63 58.9001 111.352 58.9001H108.658C107.366 58.9001 106.32 57.7721 106.32 56.3801V28.4741C106.32 27.0821 107.368 25.9541 108.658 25.9541H108.66Z" fill="#39AFE2"/>
<path id="Vector_12" d="M134.23 44.8785L120.052 44.8525C119.008 44.9545 118.934 46.6645 120.052 46.7705L134.406 46.7085C135.118 46.1685 135.066 45.2185 134.23 44.8785Z" fill="#6FDAF7"/>
<path id="Vector_13" d="M134.018 52.7582L124.762 52.7422C123.626 52.8302 123.48 54.6142 124.646 54.7602L134.142 54.7522C135.248 54.4242 135.13 52.9402 134.018 52.7602V52.7582Z" fill="#6FDAF7"/>
<path id="Vector_14" d="M121.178 52.7563L111.812 52.7383C110.606 52.9383 110.622 54.5623 111.802 54.7583L121.194 54.7503C122.26 54.4243 122.262 53.0643 121.176 52.7583L121.178 52.7563Z" fill="#6FDAF7"/>
<path id="Vector_15" d="M134.124 48.8203C133.514 48.7023 129.716 48.6823 129.16 48.8163C128.158 49.0603 128.26 50.6423 129.248 50.8123C130.004 50.9403 133.276 50.9363 134.038 50.8123C135.162 50.6263 135.192 49.0263 134.124 48.8203Z" fill="#6FDAF7"/>
<path id="Vector_16" d="M116.692 44.8785C115.18 45.0125 113.158 44.6145 111.708 44.8605C110.698 45.0325 110.696 46.6045 111.604 46.7605C112.39 46.8945 115.92 46.8945 116.706 46.7605C117.598 46.6085 117.6 45.1245 116.69 44.8785H116.692Z" fill="#6FDAF7"/>
<path id="Vector_17" d="M139.658 52.7562C139.236 52.6642 137.754 52.6762 137.362 52.8182C136.442 53.1482 136.564 54.5922 137.496 54.7502C137.888 54.8162 139.598 54.8082 139.916 54.6702C140.74 54.3142 140.554 52.9502 139.658 52.7562Z" fill="#6FDAF7"/>
<path id="Vector_18" d="M139.764 48.816C139.426 48.734 137.642 48.738 137.328 48.842C136.464 49.126 136.554 50.582 137.514 50.79C137.912 50.876 139.352 50.87 139.738 50.762C140.706 50.49 140.606 49.016 139.766 48.814L139.764 48.816Z" fill="#6FDAF7"/>
<path id="Vector_19" d="M139.764 44.8778C139.428 44.7958 137.642 44.8018 137.328 44.9038C136.478 45.1818 136.628 46.6078 137.388 46.7638C137.664 46.8198 139.636 46.8158 139.87 46.7438C140.596 46.5158 140.644 45.0898 139.766 44.8778H139.764Z" fill="#6FDAF7"/>
</g>
<g id="Group_3">
<path id="Vector_20" d="M156.978 143.148C145.652 146.128 134.31 150.756 122.992 153.566C118.568 154.664 114.728 153.264 112.404 149.27L98.72 104.588C97.168 96.072 100.98 86.994 108.162 82.188C112.196 79.49 124.634 75.69 129.478 75.712C138.182 75.75 146.506 81.344 149.82 89.426L163.344 133.656C163.778 137.792 161.1 142.072 156.982 143.148H156.978ZM111.326 87.202C108.942 88.494 110.84 92.676 113.736 91.006C115.9 89.758 114.11 85.692 111.326 87.202ZM108.814 95.09C106.788 96.448 108.662 100.164 111.22 98.896C113.938 97.548 111.604 93.22 108.814 95.09ZM117.312 92.484C115.356 93.78 117.18 97.548 119.718 96.29C122.42 94.952 120.186 90.58 117.312 92.484ZM106.994 102.474C104.132 103.784 106.302 108.34 109.398 106.278C111.186 105.088 109.404 101.37 106.994 102.474ZM115.488 99.868C112.722 101.228 114.776 105.746 117.894 103.674C119.722 102.46 117.956 98.652 115.488 99.868ZM112.974 107.754C110.822 108.97 112.076 112.296 114.476 111.882C117.902 111.292 116.084 105.996 112.974 107.754ZM110.466 115.638C108.412 116.822 110.222 120.484 112.622 119.514C115.36 118.408 113.762 113.738 110.466 115.638ZM118.962 113.032C117.084 114.138 118.414 117.336 120.746 117.026C123.766 116.624 122.664 110.854 118.962 113.032ZM116.882 120.492C114.496 121.792 116.4 125.962 119.292 124.296C121.524 123.01 119.56 119.032 116.882 120.492ZM114.37 128.38C112.308 129.762 114.29 133.478 116.784 132.188C119.342 130.866 117.24 126.456 114.37 128.38ZM122.868 125.774C120.842 127.132 122.716 130.85 125.274 129.58C127.988 128.234 125.718 123.864 122.868 125.774ZM121.046 133.16C118.188 134.468 120.348 139.024 123.45 136.964C125.354 135.7 123.38 132.092 121.046 133.16ZM118.53 141.044C116.378 142.26 117.632 145.586 120.032 145.172C123.458 144.582 121.64 139.286 118.53 141.044ZM127.028 138.438C124.95 139.612 126.17 142.97 128.53 142.566C131.954 141.982 130.142 136.678 127.028 138.438Z" fill="#A5B5B4"/>
<path id="Vector_21" d="M156.978 143.148L162.316 160.524C162.86 162.05 161.932 164.476 160.542 165.232C158.802 166.178 155.08 166.946 152.994 167.608C148.684 168.976 144.334 170.308 140 171.592C136.468 172.638 130.352 175.944 128.384 171.202L122.992 153.568C134.31 150.758 145.652 146.13 156.978 143.15V143.148ZM140.926 155.24C140.088 155.676 139.322 156.688 139.028 157.58C137.486 162.258 143.576 165.672 146.622 162.028C149.814 158.208 145.698 152.754 140.926 155.24Z" fill="#CBD8D7"/>
<path id="Vector_22" d="M152.994 167.606L159.582 189.098C155.808 189.974 150.204 191.692 146.588 193.082L140 171.59C144.336 170.308 148.686 168.974 152.994 167.606Z" fill="#8E999B"/>
<path id="Vector_23" d="M112.974 107.754C116.084 105.996 117.902 111.292 114.476 111.882C112.076 112.296 110.822 108.97 112.974 107.754Z" fill="#42687F"/>
<path id="Vector_24" d="M118.53 141.044C121.64 139.286 123.458 144.582 120.032 145.172C117.632 145.586 116.378 142.26 118.53 141.044Z" fill="#42687F"/>
<path id="Vector_25" d="M111.326 87.2017C114.11 85.6917 115.9 89.7577 113.736 91.0057C110.84 92.6757 108.942 88.4937 111.326 87.2017Z" fill="#42687F"/>
<path id="Vector_26" d="M115.488 99.8684C117.956 98.6524 119.724 102.46 117.894 103.674C114.774 105.746 112.722 101.228 115.488 99.8684Z" fill="#42687F"/>
<path id="Vector_27" d="M121.046 133.16C123.38 132.092 125.354 135.7 123.45 136.964C120.348 139.024 118.186 134.468 121.046 133.16Z" fill="#42687F"/>
<path id="Vector_28" d="M106.994 102.474C109.404 101.37 111.186 105.088 109.398 106.278C106.302 108.34 104.132 103.784 106.994 102.474Z" fill="#42687F"/>
<path id="Vector_29" d="M116.882 120.492C119.56 119.032 121.524 123.008 119.292 124.296C116.4 125.962 114.496 121.794 116.882 120.492Z" fill="#42687F"/>
<path id="Vector_30" d="M122.868 125.774C125.72 123.864 127.988 128.234 125.274 129.58C122.714 130.85 120.84 127.132 122.868 125.774Z" fill="#42687F"/>
<path id="Vector_31" d="M127.028 138.438C130.142 136.678 131.954 141.982 128.53 142.566C126.17 142.968 124.95 139.612 127.028 138.438Z" fill="#42687F"/>
<path id="Vector_32" d="M108.814 95.0905C111.604 93.2205 113.94 97.5485 111.22 98.8965C108.66 100.166 106.786 96.4485 108.814 95.0905Z" fill="#42687F"/>
<path id="Vector_33" d="M118.962 113.032C122.664 110.854 123.766 116.624 120.746 117.026C118.414 117.336 117.084 114.138 118.962 113.032Z" fill="#42687F"/>
<path id="Vector_34" d="M117.312 92.4836C120.186 90.5796 122.42 94.9516 119.718 96.2896C117.18 97.5476 115.354 93.7796 117.312 92.4836Z" fill="#42687F"/>
<path id="Vector_35" d="M110.466 115.638C113.762 113.738 115.358 118.408 112.622 119.514C110.224 120.484 108.412 116.822 110.466 115.638Z" fill="#42687F"/>
<path id="Vector_36" d="M114.37 128.38C117.238 126.458 119.34 130.866 116.784 132.188C114.292 133.478 112.308 129.762 114.37 128.38Z" fill="#42687F"/>
<path id="Vector_37" d="M140.926 155.24C145.698 152.754 149.814 158.21 146.622 162.028C143.576 165.672 137.486 162.256 139.028 157.58C139.322 156.688 140.088 155.676 140.926 155.24Z" fill="#8E999B"/>
</g>
<g id="Group_4">
<path id="Vector_38" d="M92.49 45.9957C92.4781 53.8917 93.18 63.6317 92.486 71.2857C92.226 74.1497 90.292 76.5417 87.352 76.8817L56.042 76.8857C51.312 79.3197 46.752 82.1277 42.124 84.7557C38.314 86.9177 34.098 89.7157 30.226 91.5817C28.226 92.5457 26.546 92.8397 24.62 91.4217C24.012 90.9737 22.854 89.2677 22.854 88.5897V76.8737H15.736C15.562 76.8737 13.932 76.0577 13.67 75.8737C12.416 74.9977 11.746 73.6737 11.248 72.2737V17.7457C12.07 15.2837 13.74 13.5277 16.392 13.1457L86.696 13.1377C89.91 13.2537 92.2 15.5697 92.486 18.7357C92.482 27.8217 92.502 36.9117 92.49 45.9957Z" fill="#77CEF8"/>
<path id="Vector_39" d="M33.7381 49.9816L63.6981 49.9316C65.9181 50.1136 65.9601 53.4556 63.6981 53.6636H34.1261C32.0941 53.4236 32.0121 50.8216 33.7381 49.9816Z" fill="#05AEE2"/>
<path id="Vector_40" d="M53.4521 42.1039L80.7801 42.0479C82.9561 42.3079 83.6001 44.6859 81.7041 45.8279C72.3881 46.2159 62.9701 45.8799 53.6161 45.9999C51.2661 45.7219 51.1921 42.6659 53.4521 42.1039Z" fill="#05AEE2"/>
<path id="Vector_41" d="M61.3361 65.3178L80.7801 65.2598C83.2521 65.5538 83.5921 68.5158 81.2001 69.1938L60.7481 69.0858C58.9281 68.1698 59.3021 65.6858 61.3361 65.3158V65.3178Z" fill="#05AEE2"/>
<path id="Vector_42" d="M34.1821 65.3181L53.8181 65.2861C56.4201 65.6541 56.2521 68.9301 53.8421 69.2121L34.1401 69.1941C31.9401 68.6801 31.8881 65.7281 34.1801 65.3161L34.1821 65.3181Z" fill="#05AEE2"/>
<path id="Vector_43" d="M34.1821 42.1055C36.4981 42.0495 44.3361 42.0795 46.1601 42.0675C49.1481 42.0475 48.9481 45.9955 46.3801 45.9835C41.5701 46.0615 38.6861 46.0615 34.1421 45.9835C32.0141 45.9475 31.7861 42.1655 34.1821 42.1055Z" fill="#05AEE2"/>
<path id="Vector_44" d="M33.958 57.6475H44.596C46.756 58.4655 46.52 61.1955 44.184 61.5235C42.492 61.7615 35.804 61.7835 34.182 61.4915C31.99 61.0975 31.908 58.3515 33.958 57.6475Z" fill="#05AEE2"/>
<path id="Vector_45" d="M70.53 49.9832L81.202 49.9492C83.248 50.4632 83.32 52.8672 81.428 53.6552C78.152 53.3132 73.864 54.1392 70.716 53.6472C68.788 53.3452 68.792 50.3732 70.53 49.9832Z" fill="#05AEE2"/>
<path id="Vector_46" d="M22.352 57.6475C23.046 57.4915 26.824 57.4995 27.464 57.6995C29.162 58.2315 28.914 61.2095 26.892 61.5315C25.974 61.6775 22.682 61.6475 21.918 61.2755C20.282 60.4775 20.704 58.0175 22.352 57.6495V57.6475Z" fill="#05AEE2"/>
<path id="Vector_47" d="M22.5761 65.3178C23.4221 65.1658 26.6841 65.1438 27.3961 65.4318C29.0961 66.1178 28.9701 68.9038 27.1101 69.1958C26.2861 69.3258 22.7001 69.3118 22.0341 69.0418C20.2981 68.3418 20.5321 65.6858 22.5761 65.3178Z" fill="#05AEE2"/>
<path id="Vector_48" d="M22.574 42.1036C23.502 41.9156 26.696 41.9436 27.51 42.3236C29.15 43.0856 28.876 45.7056 27.11 45.9836C26.286 46.1136 22.7 46.0996 22.034 45.8296C20.274 45.1196 20.562 42.5116 22.576 42.1036H22.574Z" fill="#05AEE2"/>
<path id="Vector_49" d="M22.132 49.982C22.682 49.822 26.898 49.858 27.464 50.034C29.036 50.526 28.974 53.354 27.112 53.646C26.352 53.764 22.596 53.77 21.966 53.562C20.474 53.074 20.676 50.406 22.134 49.98L22.132 49.982Z" fill="#05AEE2"/>
</g>
</g>
<defs>
<clipPath id="clip0_2675_17350">
<rect width="180" height="180" fill="white"/>
</clipPath>
</defs>
</svg>
