<svg width="180" height="180" viewBox="0 0 180 180" fill="none" xmlns="http://www.w3.org/2000/svg">
<g id="Writing" clip-path="url(#clip0_2675_17405)">
<path id="Vector" d="M180 0H0V180H180V0Z" fill="#F9F1D7"/>
<path id="Vector_2" d="M141.25 60.2676H42.2479C38.6691 60.2676 35.7679 63.1688 35.7679 66.7476V124.28C35.7679 127.858 38.6691 130.76 42.2479 130.76H141.25C144.829 130.76 147.73 127.858 147.73 124.28V66.7476C147.73 63.1688 144.829 60.2676 141.25 60.2676Z" fill="#DDDDDD"/>
<path id="Vector_3" d="M140.616 60.5897C144.068 60.2297 147.204 62.9477 147.69 66.3257C147.67 84.5357 147.814 102.756 147.718 120.966H136.556V63.1277C137.846 62.2697 138.968 60.7617 140.614 60.5917L140.616 60.5897Z" fill="#2FA7CB"/>
<path id="Vector_4" d="M99.7779 60.2676H141.25C144.826 60.2676 147.73 63.1716 147.73 66.7476V124.278C147.73 127.854 144.826 130.758 141.25 130.758H42.2479C38.6719 130.758 35.7679 127.854 35.7679 124.278C35.7679 88.9496 64.4499 60.2676 99.7779 60.2676Z" fill="#CECECE"/>
<path id="Vector_5" d="M73.898 150.138C85.588 149.87 97.98 149.856 109.666 150.138C112.76 150.212 114.71 149.988 117.36 151.958C119.706 153.702 122.9 159.508 119.126 161.246L64.252 161.18C61.21 160.394 63.168 155.298 64.518 153.57C67.228 150.096 69.894 150.232 73.898 150.14V150.138Z" fill="#95A4A4"/>
<path id="Vector_6" d="M109.666 138.976V150.138C97.98 149.856 85.5859 149.87 73.8979 150.138V138.976C85.8159 138.996 97.748 138.996 109.666 138.976Z" fill="#7F8C8D"/>
<path id="Vector_7" d="M97.916 128.402C98.998 129.588 98.348 131.838 96.85 132.122C95.762 132.328 90.164 132.294 89.006 132.112C86.77 131.762 86.78 128.32 88.792 127.868C89.912 127.618 95.342 127.648 96.612 127.802C97.04 127.854 97.632 128.088 97.916 128.4V128.402Z" fill="#EAEFF0"/>
<g id="Group">
<path id="Vector_8" d="M91.93 46.9445C91.822 47.4505 92.182 47.3205 92.496 47.4125C104.758 51.0565 117.988 53.4885 130.062 57.3785C134.284 58.7385 132.974 61.6805 132.148 64.9665C128.536 79.3525 124.442 93.7045 120.576 108.03C118.916 114.178 117.222 120.322 115.6 126.484C115.154 127.694 114.206 128.522 112.988 128.898H111.66L47.012 111.498C45.676 111.108 44.718 110.112 44.314 108.788V107.65L58.352 55.4805C66.05 63.2145 74.194 70.7825 81.876 78.6245C82.974 79.3565 90.966 82.0345 92.498 82.3345C92.772 82.3885 92.974 82.4205 93.258 82.4205C93.33 83.1525 94.234 83.4085 94.818 83.6125C100.906 85.7405 107.946 86.7065 114.116 88.7845C116.512 89.4585 117.6 86.4145 115.26 85.5545L94.966 80.1425C94.81 79.0385 91.73 70.1665 91.172 69.3285C82.628 60.5485 73.87 51.9745 65.182 43.3385C64.464 42.6245 63.814 41.7745 63.096 41.0625C63.224 40.2985 64.806 40.0485 65.414 40.1585C74.272 42.2885 83.018 45.2505 91.93 46.9445ZM96.052 59.6965C94.164 60.1125 94.064 62.3665 95.86 63.0285L119.776 69.4825C122.074 69.5445 122.45 66.7665 120.3 66.0985L96.052 59.6985V59.6965ZM118.618 78.7565C119.704 77.7665 118.892 75.9405 117.498 75.7285L101.296 71.4285C99.076 71.8825 98.818 74.0665 101.076 74.8865C106.022 76.6825 111.904 77.3725 116.924 79.1545C117.428 79.2965 118.24 79.1025 118.618 78.7565ZM59.166 81.9045C58.386 82.8405 58.802 84.1025 59.868 84.6045C60.494 84.8985 64.438 85.9925 65.092 86.0345C66.814 86.1425 67.726 84.2165 66.5 83.0965C66.092 82.7245 61.162 81.3085 60.512 81.2945C60.18 81.2865 59.366 81.6685 59.168 81.9065L59.166 81.9045ZM74.612 85.3045C72.832 85.6985 73.032 88.3185 74.814 88.6265L111.612 98.4965C114.03 99.0765 114.926 95.8405 112.46 95.1845L75.814 85.3525C75.416 85.2445 75.018 85.2165 74.612 85.3045ZM57.156 91.1865C56.05 91.5125 55.88 93.5705 57.078 94.2205C57.692 94.5545 61.918 95.6965 62.62 95.7125C64.084 95.7445 65.022 94.0625 64.046 92.9425C63.414 92.2165 58.13 90.8985 57.156 91.1845V91.1865ZM72.156 94.9785C70.174 95.2565 70.396 98.2045 72.432 98.4105L108.958 108.172C111.08 108.772 112.224 106.35 110.466 105.146C98.442 102.134 86.388 98.1605 74.328 95.3745C73.652 95.2185 72.84 94.8825 72.156 94.9785Z" fill="#F8E9AF"/>
<path id="Vector_9" d="M60.438 38.5982L51.142 47.8942C48.668 45.3822 45.46 43.1762 44.312 39.7362V37.0802C44.79 36.3682 44.88 35.5822 45.368 34.8162C47.042 32.1902 50.362 31.1682 53.28 32.1902C55.662 33.0262 58.554 36.7422 60.436 38.5982H60.438Z" fill="#FA7B76"/>
<path id="Vector_10" d="M120.576 108.03C124.442 93.7038 128.536 79.3518 132.148 64.9658L141.426 99.6098C141.568 101.066 141.01 101.93 139.914 102.8C133.934 104.644 127.774 106.378 121.672 107.894C121.304 107.986 120.962 108.088 120.576 108.03Z" fill="#F2D45B"/>
<path id="Vector_11" d="M91.17 69.3298L87.566 72.9338C87.57 72.5618 87.31 72.4058 87.096 72.1718C82.286 66.9418 76.84 62.1038 71.832 57.0838C69.998 56.4898 68.86 58.2738 69.924 59.7498C74.986 64.4538 79.62 69.9218 84.718 74.5498C84.954 74.7638 85.104 75.0238 85.48 75.0198L81.876 78.6238C74.194 70.7798 66.05 63.2138 58.352 55.4798C57.616 54.7398 56.726 53.4798 55.886 52.6338L59.49 49.0298C59.486 49.4038 59.746 49.5558 59.96 49.7918C60.966 50.8998 64.342 54.5378 65.378 55.1878C67.084 56.2578 68.8 54.5358 67.732 52.8338C67.064 51.7698 63.468 48.4538 62.336 47.4158C62.102 47.1998 61.946 46.9418 61.574 46.9458L65.178 43.3418C73.866 51.9778 82.624 60.5518 91.168 69.3318L91.17 69.3298Z" fill="#E2783D"/>
<path id="Vector_12" d="M130.06 57.3784C117.986 53.4884 104.756 51.0564 92.4941 47.4124C92.1821 47.3204 91.8201 47.4504 91.9281 46.9444L122.242 38.8264C123.814 38.7304 125.214 39.6204 125.752 41.1024L130.06 57.3764V57.3784Z" fill="#F2D45B"/>
<path id="Vector_13" d="M74.6121 85.3047C75.0181 85.2147 75.4161 85.2427 75.8141 85.3527L112.46 95.1847C114.926 95.8427 114.03 99.0767 111.612 98.4967L74.8141 88.6267C73.0301 88.3187 72.8301 85.6987 74.6121 85.3047Z" fill="#8E5F20"/>
<path id="Vector_14" d="M72.156 94.9779C72.84 94.8819 73.65 95.2179 74.328 95.3739C86.388 98.1599 98.442 102.134 110.466 105.146C112.222 106.35 111.08 108.772 108.958 108.172L72.432 98.4099C70.396 98.2039 70.176 95.2579 72.156 94.9779Z" fill="#8E5F20"/>
<path id="Vector_15" d="M96.052 59.6963L120.3 66.0963C122.45 66.7643 122.074 69.5423 119.776 69.4803L95.86 63.0263C94.064 62.3643 94.162 60.1103 96.052 59.6943V59.6963Z" fill="#8E5F20"/>
<path id="Vector_16" d="M63.094 41.0647C63.812 41.7767 64.464 42.6287 65.18 43.3407L61.576 46.9447C60.882 47.6387 60.184 48.3367 59.49 49.0307L55.886 52.6347C54.31 51.0487 52.714 49.4867 51.144 47.8927L60.44 38.5967C61.292 39.4367 62.246 40.2207 63.096 41.0627L63.094 41.0647Z" fill="#BDC2C6"/>
<path id="Vector_17" d="M94.964 80.1441C95.154 81.4921 94.694 82.4181 93.256 82.4201C92.972 82.4201 92.77 82.3881 92.496 82.3341C90.964 82.0361 82.97 79.3561 81.874 78.6241L85.478 75.0201C86.172 74.3261 86.87 73.6281 87.564 72.9341L91.168 69.3301C91.726 70.1681 94.806 79.0381 94.962 80.1441H94.964Z" fill="#D8D2A4"/>
<path id="Vector_18" d="M93.2581 82.4205C94.6961 82.4185 95.1541 81.4925 94.9661 80.1445L115.26 85.5565C117.602 86.4165 116.512 89.4605 114.116 88.7865C107.946 86.7085 100.906 85.7425 94.8181 83.6145C94.2361 83.4105 93.3301 83.1565 93.2581 82.4225V82.4205Z" fill="#8E5F20"/>
<path id="Vector_19" d="M118.618 78.7567C118.24 79.1027 117.428 79.2987 116.924 79.1547C111.904 77.3727 106.024 76.6827 101.076 74.8867C98.818 74.0667 99.076 71.8827 101.296 71.4287L117.498 75.7287C118.892 75.9407 119.702 77.7667 118.618 78.7567Z" fill="#8E5F20"/>
<path id="Vector_20" d="M59.1661 81.9041C59.3641 81.6661 60.1781 81.2841 60.5101 81.2921C61.1621 81.3081 66.0921 82.7221 66.4981 83.0941C67.7261 84.2141 66.8121 86.1421 65.0901 86.0321C64.4361 85.9901 60.4921 84.8981 59.8661 84.6021C58.8021 84.1001 58.3841 82.8401 59.1641 81.9021L59.1661 81.9041Z" fill="#8E5F20"/>
<path id="Vector_21" d="M57.156 91.1859C58.13 90.8979 63.414 92.2179 64.046 92.9439C65.02 94.0639 64.082 95.7459 62.62 95.7139C61.92 95.6979 57.692 94.5559 57.078 94.2219C55.88 93.5699 56.05 91.5139 57.156 91.1879V91.1859Z" fill="#8E5F20"/>
<path id="Vector_22" d="M87.566 72.9343C86.872 73.6283 86.174 74.3263 85.48 75.0203C85.106 75.0243 84.954 74.7643 84.718 74.5503C79.62 69.9203 74.986 64.4543 69.924 59.7503C68.86 58.2743 69.998 56.4923 71.832 57.0843C76.84 62.1043 82.286 66.9423 87.096 72.1723C87.312 72.4063 87.57 72.5623 87.566 72.9343Z" fill="#B2430B"/>
<path id="Vector_23" d="M59.49 49.0323C60.184 48.3383 60.882 47.6403 61.576 46.9463C61.948 46.9423 62.104 47.2023 62.338 47.4163C63.468 48.4563 67.066 51.7703 67.734 52.8343C68.802 54.5363 67.084 56.2583 65.38 55.1883C64.344 54.5383 60.968 50.9003 59.962 49.7923C59.748 49.5563 59.488 49.4063 59.492 49.0303L59.49 49.0323Z" fill="#B2430B"/>
</g>
<path id="Vector_24" d="M47.008 120.964H147.718C147.7 124.304 147.752 129.972 147.718 133.836C147.696 136.486 143.596 138.986 141.004 138.984C131.01 138.974 119.598 138.958 109.666 138.974C97.748 138.994 85.816 138.994 73.898 138.974C63.964 138.958 54.002 138.974 42.56 138.984C34.524 138.99 35.852 131.448 35.846 125.53C35.846 124.012 35.862 122.482 35.846 120.964H47.008ZM97.916 128.402C97.632 128.09 97.04 127.856 96.612 127.804C95.342 127.65 89.912 127.618 88.792 127.87C86.78 128.32 86.77 131.764 89.006 132.114C90.164 132.294 95.76 132.328 96.85 132.124C98.348 131.842 98.998 129.59 97.916 128.404V128.402Z" fill="#95A5A5"/>
</g>
<defs>
<clipPath id="clip0_2675_17405">
<rect width="180" height="180" fill="white"/>
</clipPath>
</defs>
</svg>
