<svg width="286" height="185" viewBox="0 0 286 185" fill="none" xmlns="http://www.w3.org/2000/svg">
<path d="M114.477 55.3783C114.434 58.0352 114.355 60.9298 114.477 63.5669C110.994 65.6239 111.273 70.9999 115.048 72.46C120.911 74.7236 124.947 66.8915 119.581 63.5669C119.672 60.859 119.615 58.0861 119.581 55.3783H144.529C144.487 58.0352 144.407 60.9298 144.529 63.5669C140.976 65.5984 141.291 70.9858 145.1 72.46C150.932 74.7179 154.988 66.934 149.633 63.5669C149.756 60.9298 149.676 58.0324 149.633 55.3783H174.581C174.547 58.089 174.49 60.8619 174.581 63.5669C169.216 66.8915 173.252 74.7236 179.115 72.46C182.89 71.0028 183.168 65.6239 179.686 63.5669C179.808 60.9298 179.728 58.0324 179.686 55.3783C183.779 55.8395 189.406 54.7021 193.309 55.5028C194.769 55.8027 196.01 56.7959 196.621 58.1314C196.729 58.3691 197.26 59.9366 197.26 60.0357V144.895H219.657C219.657 144.988 219.657 145.085 219.657 145.178H74.5029V144.895H96.9001V60.0385C96.9001 59.9395 97.4312 58.3663 97.5392 58.1342C98.1186 56.8949 99.4906 55.7914 100.851 55.5028C104.711 54.6879 110.412 55.8508 114.474 55.3783H114.477ZM175.916 85.3794C170.755 86.3358 170.911 94.4819 176.158 95.1695C184.313 96.239 183.855 83.9081 175.916 85.3794ZM111.276 87.9146C109.256 88.3645 109 91.3695 110.642 92.3796C112.239 93.3586 116.479 93.1888 116.968 91.0412C117.763 87.5383 113.73 87.3657 111.276 87.9146ZM123.751 87.9146C121.345 88.4494 121.598 92.6031 124.251 92.6625L163.231 92.5097C165.111 91.1233 165.111 89.3888 163.231 88.0024L123.751 87.9146ZM175.632 105.429C174.456 105.67 173.147 107.022 172.627 108.083C170.556 112.288 174.74 116.509 179.109 114.823C184.33 112.806 182.492 104.034 175.635 105.432L175.632 105.429ZM116.36 112.042C117.042 111.36 117.175 110.437 116.968 109.518C116.158 105.947 107.12 107.356 109.98 111.68C110.941 113.131 115.267 113.134 116.36 112.042ZM124.032 107.681C121.393 108.477 121.331 112.373 124.251 112.712H162.251C165.642 112.319 165.29 107.713 161.961 107.622L124.032 107.681ZM176.203 125.199C174.556 125.476 172.925 126.882 172.383 128.453C170.454 134.035 178.084 137.634 181.22 133.02C183.742 129.307 180.657 124.455 176.203 125.199ZM116.36 128.337C115.264 127.242 110.941 127.245 109.98 128.696C106.95 133.283 117.837 134.813 117.016 129.525C116.959 129.16 116.627 128.6 116.36 128.334V128.337ZM123.751 127.734C121.109 128.741 121.675 132.428 124.535 132.762L161.961 132.756C165.418 132.621 165.591 128.062 162.251 127.666L123.751 127.734Z" fill="#E4C183"/>
<path d="M219.651 144.897H197.254V60.038C197.254 59.939 196.723 58.3715 196.615 58.1338C196.001 56.7983 194.763 55.8023 193.303 55.5052C189.4 54.7044 183.77 55.8419 179.68 55.3807C179.646 53.1737 180.561 47.6618 177.033 47.8373C173.593 48.007 174.61 53.0096 174.579 55.3807H149.631C149.594 53.052 150.511 48.0042 147.176 47.8373C143.646 47.6618 144.563 53.1737 144.529 55.3807H119.581C119.55 53.0124 120.567 48.0099 117.127 47.8373C113.596 47.6618 114.514 53.1737 114.48 55.3807C110.418 55.8532 104.717 54.6903 100.857 55.5052C99.4963 55.7938 98.1215 56.8973 97.5449 58.1366C97.4369 58.3686 96.9057 59.9418 96.9057 60.0409V144.9H74.5029V44.3655C75.4857 42.0877 76.852 40.6306 79.4539 40.4014H214.703C217.387 40.557 219.506 42.665 219.665 45.3445C219.472 78.5288 219.881 111.722 219.654 144.9L219.651 144.897Z" fill="#F1F1F1"/>
<path d="M219.651 145.181C219.628 148.234 220.057 152.885 219.583 155.704C219.285 157.48 217.756 159.272 216.027 159.786C199.836 160.46 183.458 160.132 167.205 160.149C167.111 160.149 167.014 160.149 166.921 160.149H127.231C127.137 160.149 127.04 160.149 126.947 160.149C111.219 160.132 95.4797 160.163 79.7492 160.146C76.9655 159.869 75.5112 158.392 74.5 155.913V145.181H219.648H219.651Z" fill="#37B2D3"/>
<path d="M120.147 174.833H174.011C174.104 174.833 174.201 174.833 174.295 174.833C177.348 174.898 183.035 174.709 185.759 175.133C190.772 175.914 190.809 183.542 185.918 184.999H108.239C103.291 183.562 103.416 175.911 108.398 175.133C111.122 174.709 116.809 174.898 119.863 174.833C119.956 174.833 120.053 174.833 120.147 174.833Z" fill="#37B2D3"/>
<path d="M123.751 127.734L162.251 127.666C165.591 128.059 165.418 132.618 161.961 132.756L124.535 132.762C121.675 132.425 121.109 128.738 123.751 127.734Z" fill="#A1825C"/>
<path d="M124.032 107.681L161.961 107.622C165.29 107.713 165.642 112.316 162.251 112.712H124.251C121.331 112.376 121.393 108.477 124.032 107.681Z" fill="#A1815B"/>
<path d="M123.751 87.9141L163.231 88.0018C165.111 89.3882 165.111 91.1227 163.231 92.5092L124.251 92.6619C121.598 92.6025 121.345 88.4517 123.751 87.9141Z" fill="#A1815B"/>
<path d="M119.579 55.3776C119.613 58.0882 119.669 60.8611 119.579 63.5661C119.516 65.4421 119.615 67.9377 116.891 67.8217C114.429 67.717 114.557 65.3204 114.477 63.5661C114.355 60.9291 114.434 58.0317 114.477 55.3776C114.511 53.1706 113.596 47.6587 117.124 47.8342C120.564 48.0039 119.547 53.0065 119.579 55.3776Z" fill="#C9C9C9"/>
<path d="M179.68 55.3776C179.723 58.0345 179.802 60.9291 179.68 63.5661C179.598 65.3204 179.728 67.717 177.266 67.8217C174.539 67.9377 174.641 65.4421 174.578 63.5661C174.488 60.8583 174.544 58.0854 174.578 55.3776C174.61 53.0093 173.593 48.0068 177.033 47.8342C180.563 47.6587 179.646 53.1706 179.68 55.3776Z" fill="#C9C9C9"/>
<path d="M149.628 55.3775C149.67 58.0344 149.75 60.9289 149.628 63.566C149.54 65.4307 149.616 67.9348 146.941 67.8216C144.478 67.7169 144.606 65.3175 144.526 63.566C144.404 60.9289 144.484 58.0315 144.526 55.3775C144.56 53.1705 143.646 47.6614 147.174 47.834C150.508 47.9982 149.591 53.0488 149.628 55.3775Z" fill="#C9C9C9"/>
<path d="M175.916 85.379C183.856 83.9076 184.316 96.2385 176.158 95.169C170.909 94.4814 170.755 86.3325 175.916 85.379Z" fill="#D5D5D5"/>
<path d="M176.203 125.198C180.657 124.451 183.742 129.304 181.22 133.019C178.084 137.634 170.454 134.034 172.383 128.452C172.925 126.882 174.556 125.475 176.203 125.198Z" fill="#D5D5D5"/>
<path d="M175.632 105.428C182.489 104.031 184.33 112.805 179.106 114.819C174.74 116.506 170.553 112.284 172.624 108.08C173.147 107.021 174.453 105.666 175.629 105.426L175.632 105.428Z" fill="#D5D5D5"/>
<path d="M149.628 63.5693C154.982 66.9364 150.929 74.7204 145.094 72.4624C141.285 70.9883 140.97 65.6009 144.524 63.5693C144.606 65.3208 144.475 67.7202 146.938 67.8249C149.614 67.9381 149.54 65.434 149.625 63.5693H149.628Z" fill="#895E51"/>
<path d="M119.579 63.5693C124.944 66.894 120.908 74.726 115.045 72.4624C111.27 71.0052 110.992 65.6264 114.474 63.5693C114.557 65.3236 114.426 67.7202 116.889 67.8249C119.615 67.9409 119.513 65.4453 119.576 63.5693H119.579Z" fill="#895E51"/>
<path d="M179.68 63.5693C183.162 65.6264 182.884 71.0024 179.109 72.4624C173.246 74.726 169.21 66.894 174.576 63.5693C174.638 65.4453 174.539 67.9409 177.263 67.8249C179.725 67.7202 179.598 65.3236 179.677 63.5693H179.68Z" fill="#895E51"/>
<path d="M116.36 112.041C115.263 113.136 110.94 113.133 109.98 111.679C107.12 107.353 116.161 105.946 116.968 109.517C117.175 110.437 117.042 111.359 116.36 112.041Z" fill="#A1825C"/>
<path d="M116.36 128.336C116.624 128.599 116.959 129.162 117.016 129.527C117.837 134.813 106.949 133.282 109.98 128.698C110.94 127.247 115.266 127.244 116.36 128.339V128.336Z" fill="#A1825C"/>
<path d="M111.276 87.9137C113.73 87.3648 117.763 87.5374 116.968 91.0403C116.479 93.1879 112.238 93.3577 110.642 92.3787C108.997 91.3685 109.253 88.3636 111.276 87.9137Z" fill="#A1815B"/>
<path d="M166.92 160.148C167.014 160.148 167.111 160.148 167.204 160.148L174.291 174.833C174.198 174.833 174.101 174.833 174.007 174.833C156.317 174.477 137.834 174.477 120.143 174.833C120.05 174.833 119.953 174.833 119.859 174.833L126.946 160.148C127.04 160.148 127.137 160.148 127.23 160.148C140.456 160.163 153.695 160.163 166.92 160.148Z" fill="#15739C"/>
<path d="M166.92 160.148C153.695 160.163 140.456 160.163 127.23 160.148H166.92Z" fill="#7D959D"/>
<path d="M174.01 174.834H120.146C137.837 174.477 156.32 174.477 174.01 174.834Z" fill="#718994"/>
<g clip-path="url(#clip0_2818_11207)">
<path d="M82.9997 81.5704L43.0037 53.1843C42.1284 52.5584 41.1027 52.1758 40.0313 52.0757C38.9598 51.9756 37.881 52.1615 36.9049 52.6144C35.9287 53.0673 35.0902 53.7711 34.4748 54.6539C33.8594 55.5367 33.4892 56.5669 33.402 57.6394L29.2519 106.509C29.1563 107.577 29.3449 108.652 29.7985 109.624C30.252 110.595 30.9545 111.43 31.8346 112.043C32.7147 112.656 33.7413 113.025 34.8101 113.114C35.879 113.202 36.9522 113.006 37.921 112.546L82.0671 92.0626C83.0348 91.6124 83.867 90.9155 84.4802 90.0419C85.0934 89.1683 85.4659 88.1487 85.5604 87.0856C85.6549 86.0225 85.4681 84.9532 85.0186 83.9851C84.5691 83.0171 83.8729 82.1843 82.9997 81.5704Z" fill="#FDFFEB"/>
<path d="M44.6315 69.1947L49.7524 80.2312L44.6315 69.1947Z" fill="#FDFFEB"/>
<path d="M54.8732 91.2678L54.9008 91.255L54.8732 91.2678Z" fill="#FDFFEB"/>
<path d="M44.632 69.1947L49.7528 80.2312M54.8737 91.2678L54.9013 91.255M83.0002 81.5704L43.0042 53.1843C42.1289 52.5584 41.1032 52.1758 40.0318 52.0757C38.9603 51.9756 37.8815 52.1615 36.9053 52.6144C35.9292 53.0673 35.0907 53.7711 34.4753 54.6539C33.8599 55.5367 33.4897 56.5669 33.4025 57.6394L29.2524 106.509C29.1568 107.577 29.3454 108.652 29.799 109.624C30.2525 110.595 30.955 111.43 31.8351 112.043C32.7152 112.656 33.7417 113.025 34.8106 113.114C35.8795 113.202 36.9527 113.006 37.9215 112.546L82.0676 92.0626C83.0353 91.6124 83.8675 90.9155 84.4807 90.0419C85.0939 89.1683 85.4664 88.1487 85.5609 87.0856C85.6554 86.0225 85.4686 84.9532 85.0191 83.9851C84.5696 83.0171 83.8734 82.1843 83.0002 81.5704Z" stroke="#FF9900" stroke-width="6" stroke-linecap="round" stroke-linejoin="round"/>
</g>
<g clip-path="url(#clip1_2818_11207)">
<path d="M238.513 118.665L227.685 84.8781C227.45 84.1359 227.022 83.4694 226.446 82.9464C225.869 82.4235 225.164 82.0628 224.402 81.9013C223.641 81.7398 222.85 81.7831 222.111 82.027C221.371 82.2708 220.71 82.7064 220.194 83.2893L196.582 109.771C196.063 110.348 195.706 111.052 195.547 111.811C195.388 112.571 195.432 113.359 195.675 114.095C195.919 114.832 196.352 115.491 196.933 116.006C197.513 116.521 198.219 116.874 198.98 117.028L233.419 124.333C234.175 124.492 234.959 124.45 235.693 124.211C236.427 123.971 237.085 123.543 237.601 122.969C238.117 122.394 238.473 121.694 238.633 120.939C238.793 120.184 238.752 119.399 238.513 118.665Z" fill="#FDFFEB"/>
<path d="M221.678 94.8506L219.852 103.461L221.678 94.8506Z" fill="#FDFFEB"/>
<path d="M218.026 112.07L218.047 112.075L218.026 112.07Z" fill="#FDFFEB"/>
<path fill-rule="evenodd" clip-rule="evenodd" d="M221.431 79.967C222.535 79.6029 223.716 79.5382 224.853 79.7793C225.99 80.0205 227.043 80.559 227.904 81.3399C228.764 82.1198 229.402 83.1137 229.753 84.2204C229.753 84.2217 229.754 84.2229 229.754 84.2242L240.577 117.995C240.577 117.996 240.578 117.998 240.578 118C240.934 119.094 240.995 120.264 240.756 121.39C240.518 122.518 239.986 123.563 239.215 124.42C238.445 125.278 237.462 125.917 236.366 126.275C235.27 126.632 234.099 126.695 232.971 126.457L198.538 119.154C197.407 118.922 196.356 118.397 195.493 117.63C194.626 116.861 193.978 115.877 193.615 114.777C193.252 113.677 193.185 112.5 193.423 111.367C193.661 110.235 194.193 109.185 194.966 108.325C194.967 108.323 194.968 108.322 194.969 108.321L218.569 81.8518C218.57 81.8507 218.571 81.8496 218.572 81.8485C219.342 80.9798 220.329 80.3306 221.431 79.967ZM223.952 84.0253C223.566 83.9435 223.166 83.9654 222.791 84.089C222.416 84.2126 222.081 84.4334 221.819 84.7288L221.814 84.7346L198.196 111.224C197.933 111.516 197.752 111.873 197.671 112.258C197.591 112.643 197.613 113.042 197.736 113.416C197.86 113.789 198.08 114.123 198.374 114.384C198.668 114.645 199.026 114.824 199.411 114.902L199.43 114.906L233.868 122.21C233.868 122.211 233.869 122.211 233.869 122.211C234.252 122.291 234.649 122.27 235.02 122.148C235.392 122.027 235.726 121.81 235.987 121.519C236.249 121.228 236.429 120.873 236.51 120.49C236.591 120.107 236.57 119.71 236.449 119.338L236.446 119.329L225.618 85.5415L225.616 85.5341C225.497 85.158 225.28 84.8201 224.988 84.555C224.696 84.29 224.338 84.1072 223.952 84.0253ZM222.129 92.7287C223.301 92.9774 224.05 94.1295 223.801 95.302L221.975 103.912C221.726 105.084 220.574 105.833 219.402 105.585C218.229 105.336 217.48 104.184 217.729 103.011L219.555 94.4014C219.804 93.2289 220.956 92.48 222.129 92.7287ZM215.903 111.621C216.152 110.449 217.304 109.7 218.476 109.948L218.498 109.953C219.67 110.202 220.419 111.354 220.17 112.526C219.922 113.699 218.77 114.448 217.597 114.199L217.576 114.194C216.403 113.946 215.654 112.794 215.903 111.621Z" fill="#FF9900"/>
</g>
<path d="M267.062 43.1408L247.4 25.5205C246.97 25.1323 246.444 24.8652 245.877 24.7464C245.31 24.6275 244.722 24.6612 244.172 24.8439C243.623 25.0267 243.131 25.352 242.748 25.7866C242.365 26.2213 242.104 26.7498 241.992 27.3181L236.794 53.2034C236.678 53.769 236.713 54.3552 236.897 54.9027C237.08 55.4501 237.405 55.9394 237.838 56.3209C238.272 56.7023 238.798 56.9624 239.364 57.0748C239.931 57.1872 240.517 57.1478 241.063 56.9608L265.923 48.6958C266.468 48.514 266.956 48.192 267.337 47.7621C267.718 47.3322 267.98 46.8096 268.095 46.2467C268.21 45.6839 268.176 45.1006 267.994 44.5554C267.813 44.0102 267.491 43.5224 267.062 43.1408Z" fill="#FDFFEB"/>
<path d="M247.294 34.183L249.361 40.3981L247.294 34.183Z" fill="#FDFFEB"/>
<path d="M251.427 46.6132L251.442 46.608L251.427 46.6132Z" fill="#FDFFEB"/>
<path fill-rule="evenodd" clip-rule="evenodd" d="M241.536 24.7186C242.108 24.0696 242.842 23.5839 243.663 23.311C244.484 23.0381 245.362 22.9879 246.209 23.1653C247.054 23.3426 247.838 23.7407 248.479 24.3192C248.48 24.3199 248.481 24.3205 248.482 24.3212L268.134 41.9329C268.135 41.9337 268.136 41.9346 268.137 41.9354C268.777 42.5047 269.256 43.2322 269.527 44.0451C269.797 44.8591 269.849 45.7301 269.677 46.5705C269.505 47.4109 269.115 48.1913 268.545 48.8331C267.976 49.475 267.248 49.9558 266.434 50.2273L241.579 58.4908C240.765 58.7679 239.893 58.8257 239.05 58.6584C238.204 58.4906 237.418 58.1023 236.771 57.5327C236.124 56.9631 235.639 56.2325 235.365 55.4151C235.092 54.5989 235.039 53.7249 235.211 52.8816C235.212 52.8804 235.212 52.8792 235.212 52.8779L240.408 27.0053C240.408 27.0043 240.408 27.0032 240.409 27.0021C240.576 26.1547 240.965 25.3668 241.536 24.7186ZM244.682 26.376C244.403 26.4686 244.154 26.6335 243.96 26.8538C243.766 27.0741 243.634 27.3419 243.577 27.63L243.576 27.6356L238.376 53.5281C238.317 53.8147 238.335 54.1119 238.428 54.3893C238.521 54.6668 238.685 54.9148 238.905 55.1082C239.125 55.3015 239.392 55.4333 239.679 55.4903C239.966 55.5473 240.263 55.5273 240.54 55.4325L240.553 55.4279L265.412 47.1634C265.413 47.1632 265.413 47.1631 265.414 47.1629C265.689 47.0707 265.936 46.9077 266.129 46.6901C266.322 46.4723 266.455 46.2074 266.513 45.9221C266.571 45.6368 266.554 45.3411 266.462 45.0648C266.37 44.7885 266.207 44.5412 265.989 44.3479L265.984 44.3431L246.322 26.7227L246.317 26.7189C246.1 26.5222 245.833 26.3868 245.546 26.3265C245.259 26.2663 244.96 26.2834 244.682 26.376ZM246.785 32.6501C247.631 32.3687 248.545 32.8267 248.827 33.6731L250.893 39.8882C251.174 40.7345 250.716 41.6488 249.87 41.9301C249.024 42.2115 248.109 41.7535 247.828 40.9071L245.762 34.692C245.48 33.8457 245.938 32.9315 246.785 32.6501ZM249.894 47.1222C249.613 46.2759 250.071 45.3616 250.917 45.0803L250.933 45.0751C251.779 44.7937 252.693 45.2517 252.975 46.0981C253.256 46.9445 252.798 47.8587 251.952 48.1401L251.936 48.1452C251.09 48.4266 250.176 47.9686 249.894 47.1222Z" fill="#FF9900"/>
<defs>
<clipPath id="clip0_2818_11207">
<rect width="73" height="73" fill="white" transform="translate(0 59.7246) rotate(-24.8909)"/>
</clipPath>
<clipPath id="clip1_2818_11207">
<rect width="52.8087" height="52.8087" fill="white" transform="translate(199.958 70) rotate(11.9755)"/>
</clipPath>
</defs>
</svg>
