<svg width="278" height="185" viewBox="0 0 278 185" fill="none" xmlns="http://www.w3.org/2000/svg">
<path d="M106.477 55.3783C106.434 58.0352 106.355 60.9298 106.477 63.5669C102.994 65.6239 103.273 70.9999 107.048 72.46C112.911 74.7236 116.947 66.8915 111.581 63.5669C111.672 60.859 111.615 58.0861 111.581 55.3783H136.529C136.487 58.0352 136.407 60.9298 136.529 63.5669C132.976 65.5984 133.291 70.9858 137.1 72.46C142.932 74.7179 146.988 66.934 141.633 63.5669C141.756 60.9298 141.676 58.0324 141.633 55.3783H166.581C166.547 58.089 166.49 60.8619 166.581 63.5669C161.216 66.8915 165.252 74.7236 171.115 72.46C174.89 71.0028 175.168 65.6239 171.686 63.5669C171.808 60.9298 171.728 58.0324 171.686 55.3783C175.779 55.8395 181.406 54.7021 185.309 55.5028C186.769 55.8027 188.01 56.7959 188.621 58.1314C188.729 58.3691 189.26 59.9366 189.26 60.0357V144.895H211.657C211.657 144.988 211.657 145.085 211.657 145.178H66.5029V144.895H88.9001V60.0385C88.9001 59.9395 89.4312 58.3663 89.5392 58.1342C90.1186 56.8949 91.4906 55.7914 92.8512 55.5028C96.7114 54.6879 102.412 55.8508 106.474 55.3783H106.477ZM167.916 85.3794C162.755 86.3358 162.911 94.4819 168.158 95.1695C176.313 96.239 175.855 83.9081 167.916 85.3794ZM103.276 87.9146C101.256 88.3645 101 91.3695 102.642 92.3796C104.239 93.3586 108.479 93.1888 108.968 91.0412C109.763 87.5383 105.73 87.3657 103.276 87.9146ZM115.751 87.9146C113.345 88.4494 113.598 92.6031 116.251 92.6625L155.231 92.5097C157.111 91.1233 157.111 89.3888 155.231 88.0024L115.751 87.9146ZM167.632 105.429C166.456 105.67 165.147 107.022 164.627 108.083C162.556 112.288 166.74 116.509 171.109 114.823C176.33 112.806 174.492 104.034 167.635 105.432L167.632 105.429ZM108.36 112.042C109.042 111.36 109.175 110.437 108.968 109.518C108.158 105.947 99.1201 107.356 101.98 111.68C102.941 113.131 107.267 113.134 108.36 112.042ZM116.032 107.681C113.393 108.477 113.331 112.373 116.251 112.712H154.251C157.642 112.319 157.29 107.713 153.961 107.622L116.032 107.681ZM168.203 125.199C166.556 125.476 164.925 126.882 164.383 128.453C162.454 134.035 170.084 137.634 173.22 133.02C175.742 129.307 172.657 124.455 168.203 125.199ZM108.36 128.337C107.264 127.242 102.941 127.245 101.98 128.696C98.9497 133.283 109.837 134.813 109.016 129.525C108.959 129.16 108.627 128.6 108.36 128.334V128.337ZM115.751 127.734C113.109 128.741 113.675 132.428 116.535 132.762L153.961 132.756C157.418 132.621 157.591 128.062 154.251 127.666L115.751 127.734Z" fill="#E4C183"/>
<path d="M211.651 144.897H189.254V60.038C189.254 59.939 188.723 58.3715 188.615 58.1338C188.001 56.7983 186.763 55.8023 185.303 55.5052C181.4 54.7044 175.77 55.8419 171.68 55.3807C171.646 53.1737 172.561 47.6618 169.033 47.8373C165.593 48.007 166.61 53.0096 166.579 55.3807H141.631C141.594 53.052 142.511 48.0042 139.176 47.8373C135.646 47.6618 136.563 53.1737 136.529 55.3807H111.581C111.55 53.0124 112.567 48.0099 109.127 47.8373C105.596 47.6618 106.514 53.1737 106.48 55.3807C102.418 55.8532 96.7171 54.6903 92.8568 55.5052C91.4963 55.7938 90.1215 56.8973 89.5449 58.1366C89.4369 58.3686 88.9057 59.9418 88.9057 60.0409V144.9H66.5029V44.3655C67.4857 42.0877 68.852 40.6306 71.4539 40.4014H206.703C209.387 40.557 211.506 42.665 211.665 45.3445C211.472 78.5288 211.881 111.722 211.654 144.9L211.651 144.897Z" fill="#F1F1F1"/>
<path d="M211.651 145.181C211.628 148.234 212.057 152.885 211.583 155.704C211.285 157.48 209.756 159.272 208.027 159.786C191.836 160.46 175.458 160.132 159.205 160.149C159.111 160.149 159.014 160.149 158.921 160.149H119.231C119.137 160.149 119.04 160.149 118.947 160.149C103.219 160.132 87.4797 160.163 71.7492 160.146C68.9655 159.869 67.5112 158.392 66.5 155.913V145.181H211.648H211.651Z" fill="#37B2D3"/>
<path d="M112.147 174.833H166.011C166.104 174.833 166.201 174.833 166.295 174.833C169.348 174.898 175.035 174.709 177.759 175.133C182.772 175.914 182.809 183.542 177.918 184.999H100.239C95.2912 183.562 95.4162 175.911 100.398 175.133C103.122 174.709 108.809 174.898 111.863 174.833C111.956 174.833 112.053 174.833 112.147 174.833Z" fill="#37B2D3"/>
<path d="M115.751 127.734L154.251 127.666C157.591 128.059 157.418 132.618 153.961 132.756L116.535 132.762C113.675 132.425 113.109 128.738 115.751 127.734Z" fill="#A1825C"/>
<path d="M116.032 107.681L153.961 107.622C157.29 107.713 157.642 112.316 154.251 112.712H116.251C113.331 112.376 113.393 108.477 116.032 107.681Z" fill="#A1815B"/>
<path d="M115.751 87.9141L155.231 88.0018C157.111 89.3882 157.111 91.1227 155.231 92.5092L116.251 92.6619C113.598 92.6025 113.345 88.4517 115.751 87.9141Z" fill="#A1815B"/>
<path d="M111.579 55.3776C111.613 58.0882 111.669 60.8611 111.579 63.5661C111.516 65.4421 111.615 67.9377 108.891 67.8217C106.429 67.717 106.557 65.3204 106.477 63.5661C106.355 60.9291 106.434 58.0317 106.477 55.3776C106.511 53.1706 105.596 47.6587 109.124 47.8342C112.564 48.0039 111.547 53.0065 111.579 55.3776Z" fill="#C9C9C9"/>
<path d="M171.68 55.3776C171.723 58.0345 171.802 60.9291 171.68 63.5661C171.598 65.3204 171.728 67.717 169.266 67.8217C166.539 67.9377 166.641 65.4421 166.578 63.5661C166.488 60.8583 166.544 58.0854 166.578 55.3776C166.61 53.0093 165.593 48.0068 169.033 47.8342C172.563 47.6587 171.646 53.1706 171.68 55.3776Z" fill="#C9C9C9"/>
<path d="M141.628 55.3775C141.67 58.0344 141.75 60.9289 141.628 63.566C141.54 65.4307 141.616 67.9348 138.941 67.8216C136.478 67.7169 136.606 65.3175 136.526 63.566C136.404 60.9289 136.484 58.0315 136.526 55.3775C136.56 53.1705 135.646 47.6614 139.174 47.834C142.508 47.9982 141.591 53.0488 141.628 55.3775Z" fill="#C9C9C9"/>
<path d="M167.916 85.379C175.856 83.9076 176.316 96.2385 168.158 95.169C162.909 94.4814 162.755 86.3325 167.916 85.379Z" fill="#D5D5D5"/>
<path d="M168.203 125.198C172.657 124.451 175.742 129.304 173.22 133.019C170.084 137.634 162.454 134.034 164.383 128.452C164.925 126.882 166.556 125.475 168.203 125.198Z" fill="#D5D5D5"/>
<path d="M167.632 105.428C174.489 104.031 176.33 112.805 171.106 114.819C166.74 116.506 162.553 112.284 164.624 108.08C165.147 107.021 166.453 105.666 167.629 105.426L167.632 105.428Z" fill="#D5D5D5"/>
<path d="M141.628 63.5693C146.982 66.9364 142.929 74.7204 137.094 72.4624C133.285 70.9883 132.97 65.6009 136.524 63.5693C136.606 65.3208 136.475 67.7202 138.938 67.8249C141.614 67.9381 141.54 65.434 141.625 63.5693H141.628Z" fill="#895E51"/>
<path d="M111.579 63.5693C116.944 66.894 112.908 74.726 107.045 72.4624C103.27 71.0052 102.992 65.6264 106.474 63.5693C106.557 65.3236 106.426 67.7202 108.889 67.8249C111.615 67.9409 111.513 65.4453 111.576 63.5693H111.579Z" fill="#895E51"/>
<path d="M171.68 63.5693C175.162 65.6264 174.884 71.0024 171.109 72.4624C165.246 74.726 161.21 66.894 166.576 63.5693C166.638 65.4453 166.539 67.9409 169.263 67.8249C171.725 67.7202 171.598 65.3236 171.677 63.5693H171.68Z" fill="#895E51"/>
<path d="M108.36 112.041C107.263 113.136 102.94 113.133 101.98 111.679C99.1198 107.353 108.161 105.946 108.968 109.517C109.175 110.437 109.042 111.359 108.36 112.041Z" fill="#A1825C"/>
<path d="M108.36 128.336C108.624 128.599 108.959 129.162 109.016 129.527C109.837 134.813 98.9494 133.282 101.98 128.698C102.94 127.247 107.266 127.244 108.36 128.339V128.336Z" fill="#A1825C"/>
<path d="M103.276 87.9137C105.73 87.3648 109.763 87.5374 108.968 91.0403C108.479 93.1879 104.238 93.3577 102.642 92.3787C100.997 91.3685 101.253 88.3636 103.276 87.9137Z" fill="#A1815B"/>
<path d="M158.92 160.148C159.014 160.148 159.111 160.148 159.204 160.148L166.291 174.833C166.198 174.833 166.101 174.833 166.007 174.833C148.317 174.477 129.834 174.477 112.143 174.833C112.05 174.833 111.953 174.833 111.859 174.833L118.946 160.148C119.04 160.148 119.137 160.148 119.23 160.148C132.456 160.163 145.695 160.163 158.92 160.148Z" fill="#15739C"/>
<path d="M158.92 160.148C145.695 160.163 132.456 160.163 119.23 160.148H158.92Z" fill="#7D959D"/>
<path d="M166.01 174.834H112.146C129.837 174.477 148.32 174.477 166.01 174.834Z" fill="#718994"/>
<path d="M233.187 76.2493C231.351 75.2702 230.762 72.9051 231.914 71.164C232.389 70.4488 232.846 69.8125 233.155 69.5017C234.104 68.5473 235.088 67.9061 236.106 67.5781C237.124 67.2501 238.264 67.0528 239.531 66.9887C240.933 66.8555 242.201 66.5817 243.334 66.1649C244.466 65.7481 245.333 64.9688 245.935 63.827C246.363 63.0131 246.541 62.2091 246.475 61.4101C246.407 60.6135 246.143 59.881 245.678 59.2127C245.213 58.5443 244.586 57.9993 243.796 57.5751C243.052 57.178 242.259 56.9635 241.418 56.9364C240.578 56.9092 239.776 57.1016 239.012 57.5134C238.824 57.6146 238.643 57.7329 238.469 57.8637C237.3 58.7515 235.699 58.8082 234.405 58.1152C231.946 56.8007 231.672 53.2765 233.982 51.7104C234.266 51.5181 234.557 51.3454 234.855 51.1876C236.649 50.2529 238.584 49.8706 240.662 50.0383C242.739 50.206 244.787 50.83 246.806 51.9077C249.04 53.1014 250.814 54.5293 252.125 56.1916C253.437 57.8538 254.207 59.6492 254.437 61.5728C254.667 63.499 254.264 65.4473 253.226 67.4178C252.174 69.4203 250.831 70.836 249.201 71.6695C247.572 72.5006 245.705 72.9668 243.605 73.0679C242.441 73.1271 241.425 73.2701 240.561 73.4995C239.695 73.7288 238.934 74.1283 238.276 74.698C238.139 74.8164 237.968 75.0187 237.779 75.2653C236.698 76.6809 234.75 77.0829 233.187 76.2468V76.2493ZM227.126 87.3473C225.915 86.7011 225.114 85.8034 224.725 84.6517C224.336 83.5024 224.451 82.3409 225.068 81.1694C225.692 79.9807 226.587 79.226 227.75 78.9054C228.912 78.5848 230.099 78.7476 231.31 79.3937C232.521 80.0399 233.336 80.9474 233.71 82.0893C234.085 83.2312 233.957 84.3952 233.333 85.5839C232.717 86.7578 231.833 87.5076 230.688 87.8356C229.541 88.1636 228.354 88.0008 227.128 87.3473H227.126Z" fill="#37B2D3"/>
<path d="M49.88 28.0242C48.5734 28.4118 47.2156 27.5884 46.9628 26.2557C46.8577 25.7068 46.781 25.2032 46.7839 24.9174C46.7924 24.0402 46.96 23.2932 47.2866 22.6736C47.6133 22.0539 48.0564 21.4399 48.6217 20.8288C49.2182 20.1242 49.684 19.4168 50.0249 18.7038C50.3657 17.9908 50.414 17.2325 50.1754 16.4289C50.005 15.8573 49.7209 15.4018 49.3232 15.0651C48.9284 14.7284 48.4683 14.5105 47.9456 14.4143C47.423 14.3181 46.8804 14.3521 46.318 14.5218C45.7869 14.6803 45.3182 14.9434 44.9148 15.3169C44.5087 15.6904 44.2218 16.1459 44.0542 16.6864C44.0116 16.8194 43.9803 16.958 43.9604 17.0995C43.8184 18.0474 43.0969 18.8057 42.1738 19.0801C40.424 19.6008 38.6828 18.0955 39.0493 16.3129C39.0947 16.095 39.1515 15.88 39.2197 15.6706C39.6316 14.4143 40.3644 13.3504 41.4125 12.4761C42.4607 11.6018 43.7048 10.951 45.1421 10.5238C46.7327 10.0512 48.2155 9.89843 49.5903 10.0654C50.965 10.2323 52.1438 10.7077 53.1323 11.4943C54.118 12.2809 54.8196 13.3674 55.2371 14.7538C55.6547 16.1403 55.6774 17.4334 55.2968 18.5652C54.9133 19.697 54.2543 20.7693 53.3169 21.7795C52.8 22.3397 52.391 22.8717 52.0899 23.3753C51.7888 23.879 51.6155 24.4109 51.5672 24.9768C51.5587 25.0928 51.5672 25.2654 51.5928 25.4663C51.732 26.6151 51.0048 27.6959 49.8913 28.027L49.88 28.0242ZM52.1126 35.9382C51.2519 36.1929 50.4651 36.1448 49.7578 35.7911C49.0506 35.4374 48.5734 34.8489 48.3263 34.0227C48.0791 33.1965 48.1501 32.4268 48.5478 31.7449C48.9455 31.063 49.5761 30.5933 50.4367 30.3387C51.2974 30.084 52.0956 30.1293 52.7915 30.4858C53.4874 30.8423 53.9617 31.4394 54.2117 32.2741C54.4617 33.1088 54.3878 33.8501 54.0015 34.5292C53.6152 35.2082 52.9846 35.6751 52.1126 35.9354V35.9382Z" fill="#37B2D3"/>
<path fill-rule="evenodd" clip-rule="evenodd" d="M28.5668 133.755C28.811 132.981 28.6447 132.481 28.068 132.257L25.9521 131.445C25.8419 131.402 25.7364 131.376 25.6356 131.366C25.7362 131.376 25.8415 131.402 25.9513 131.445L28.0673 132.257C28.644 132.481 28.8103 132.98 28.5661 133.755C28.2038 134.911 27.384 136.013 26.1067 137.064C24.8294 138.114 23.1587 138.872 21.0944 139.338C19.6837 139.656 18.3663 139.756 17.1422 139.639C18.3665 139.756 19.6841 139.656 21.0951 139.338C23.1594 138.872 24.8301 138.114 26.1074 137.064C27.3847 136.014 28.2045 134.911 28.5668 133.755ZM21.044 116.106C20.7509 116.047 20.449 116.002 20.1382 115.972C20.4488 116.002 20.7505 116.047 21.0433 116.106C22.5281 116.405 23.6755 117.064 24.4853 118.084C25.0237 118.757 25.0776 119.282 24.647 119.658L23.0287 121.054C22.7561 121.292 22.4811 121.397 22.2039 121.371C22.4814 121.398 22.7565 121.292 23.0295 121.054L24.6477 119.659C25.0783 119.282 25.0244 118.757 24.486 118.084C23.6762 117.064 22.5288 116.405 21.044 116.106ZM18.7694 119.756C18.1782 119.698 17.5462 119.745 16.8732 119.897C14.7272 120.381 13.3782 121.399 12.8262 122.952C12.272 124.494 12.2828 126.543 12.8588 129.098C13.4348 131.653 14.3052 133.513 15.47 134.678C16.1456 135.35 16.9873 135.744 17.995 135.862C16.987 135.744 16.1451 135.35 15.4693 134.678C14.3045 133.513 13.4341 131.652 12.8581 129.098C12.2821 126.543 12.2712 124.494 12.8255 122.952C13.3775 121.399 14.7265 120.381 16.8725 119.897C17.5457 119.745 18.178 119.698 18.7694 119.756ZM28.2138 131.882L26.0977 131.07C25.6811 130.909 25.257 130.913 24.8831 131.154C24.5335 131.379 24.2892 131.772 24.1122 132.247C23.94 132.71 23.5443 133.282 22.8802 133.967L22.8785 133.969C22.275 134.599 21.4394 135.046 20.3443 135.293C18.2817 135.758 16.787 135.42 15.7542 134.394C14.6663 133.305 13.8194 131.529 13.2512 129.009C12.6829 126.489 12.6876 124.527 13.2048 123.088L13.2052 123.087C13.696 121.706 14.8998 120.754 16.9616 120.29C17.8812 120.082 18.6992 120.086 19.4251 120.282L19.4274 120.283C20.1991 120.487 20.7077 120.772 21.0067 121.102C21.3326 121.459 21.7033 121.713 22.1224 121.767C22.5551 121.823 22.9514 121.655 23.2937 121.358L24.9104 119.963L24.9124 119.961C25.2163 119.696 25.3719 119.346 25.3304 118.942C25.292 118.568 25.0902 118.196 24.8006 117.833C23.9223 116.727 22.685 116.026 21.1233 115.711C19.5685 115.399 17.7961 115.475 15.8158 115.922C12.3581 116.701 9.8981 118.378 8.50995 120.982C7.13222 123.567 6.87405 126.673 7.68389 130.264C8.49397 133.858 10.0717 136.551 12.4466 138.29C14.846 140.036 17.7746 140.499 21.1836 139.73C23.2925 139.255 25.0255 138.475 26.3629 137.375C27.679 136.292 28.5576 135.129 28.9505 133.876C29.0851 133.449 29.1278 133.036 29.0069 132.673C28.8791 132.289 28.592 132.029 28.2138 131.882ZM49.804 127.357C50.3808 127.581 50.5471 128.081 50.3029 128.855C49.9406 130.011 49.1208 131.114 47.8435 132.164C46.5662 133.214 44.8954 133.972 42.8312 134.438C41.4202 134.756 40.1026 134.856 38.8783 134.739C40.1024 134.856 41.4197 134.756 42.8305 134.438C44.8947 133.972 46.5655 133.214 47.8428 132.164C49.1201 131.114 49.9399 130.011 50.3022 128.855C50.5464 128.081 50.3801 127.581 49.8033 127.357L47.6874 126.545C47.5865 126.506 47.4895 126.481 47.3964 126.469C47.4897 126.481 47.587 126.506 47.6881 126.545L49.804 127.357ZM37.2061 129.778C37.9042 130.472 38.7796 130.87 39.8324 130.973C38.7793 130.871 37.9036 130.472 37.2054 129.778C36.0405 128.613 35.1701 126.753 34.5941 124.198C34.0182 121.643 34.0073 119.594 34.5616 118.052C35.1135 116.499 36.4625 115.481 38.6085 114.997C39.2155 114.86 39.7893 114.809 40.3297 114.842C39.7895 114.809 39.216 114.86 38.6092 114.997C36.4632 115.481 35.1142 116.499 34.5623 118.052C34.008 119.594 34.0189 121.643 34.5949 124.198C35.1708 126.753 36.0413 128.613 37.2061 129.778ZM44.7655 116.154C44.4926 116.392 44.2174 116.498 43.94 116.471C44.2172 116.497 44.4921 116.392 44.7648 116.154L46.383 114.759C46.8136 114.382 46.7598 113.857 46.2214 113.184C45.4115 112.164 44.2642 111.505 42.7793 111.206C42.67 111.184 42.5596 111.164 42.4478 111.146C42.5598 111.164 42.6705 111.184 42.78 111.206C44.2649 111.505 45.4122 112.164 46.2221 113.184C46.7605 113.858 46.8144 114.382 46.3837 114.759L44.7655 116.154ZM47.8337 126.17L49.9498 126.982C50.328 127.129 50.6152 127.389 50.743 127.773C50.8638 128.136 50.8212 128.549 50.6867 128.975C50.2939 130.228 49.4152 131.392 48.099 132.475C46.7615 133.575 45.0286 134.355 42.9196 134.83C39.5106 135.599 36.582 135.136 34.1826 133.39C31.8078 131.651 30.23 128.958 29.4199 125.365C28.6101 121.773 28.8683 118.667 30.246 116.082C31.6342 113.478 34.0941 111.801 37.5519 111.022C39.5321 110.575 41.3046 110.499 42.8594 110.812C44.4214 111.126 45.6588 111.828 46.5371 112.934C46.8265 113.296 47.0281 113.668 47.0664 114.042C47.108 114.446 46.9524 114.796 46.6484 115.061L46.6465 115.063L45.0297 116.458C44.6875 116.755 44.2911 116.923 43.8585 116.867C43.4393 116.813 43.0686 116.56 42.7428 116.202C42.4438 115.872 41.9351 115.587 41.1634 115.383L41.1611 115.382C40.4353 115.186 39.6173 115.182 38.6977 115.39C36.6359 115.855 35.432 116.806 34.9413 118.187L34.9408 118.188C34.4236 119.627 34.4189 121.589 34.9873 124.109C35.5555 126.63 36.4024 128.405 37.4905 129.494C38.5232 130.52 40.0179 130.858 42.0804 130.393C43.1754 130.146 44.011 129.699 44.6146 129.069L44.6162 129.067C45.2804 128.382 45.6761 127.81 45.8483 127.347C46.0253 126.872 46.2696 126.479 46.6192 126.254C46.9931 126.013 47.4171 126.009 47.8337 126.17Z" fill="#37B2D3"/>
<path d="M261.983 124.818C261.429 124.914 261.204 124.691 261.309 124.15L264.411 108.312C264.542 107.647 264.85 107.273 265.335 107.19L266.952 106.912C267.437 106.828 267.853 107.078 268.199 107.66L276.415 121.55C276.695 122.025 276.558 122.311 276.004 122.406L274.167 122.722C273.659 122.809 273.259 122.605 272.968 122.108L271.255 119.204L265.388 120.213L264.745 123.523C264.636 124.088 264.327 124.415 263.819 124.502L261.983 124.818ZM265.969 117.164L269.688 116.524L267.636 113.096C267.392 112.694 267.235 112.4 267.163 112.214C267.098 112.02 267.013 111.733 266.908 111.355L266.862 111.363C266.889 111.754 266.901 112.053 266.897 112.26C266.9 112.458 266.853 112.787 266.758 113.247L265.969 117.164Z" fill="#37B2D3"/>
<path d="M246.819 127.428C246.28 127.521 245.961 127.278 245.862 126.701L243.31 111.872C243.211 111.295 243.431 110.959 243.97 110.867L249.317 109.947C251.696 109.537 253.496 109.608 254.716 110.159C255.935 110.702 256.687 111.802 256.972 113.457C257.184 114.689 256.91 115.747 256.151 116.631C255.391 117.514 254.351 118.193 253.029 118.666L253.033 118.689C253.82 118.839 254.444 119.128 254.906 119.556C255.368 119.984 255.75 120.362 256.053 120.69L259.283 124.261C259.82 124.85 259.731 125.206 259.015 125.33L257.005 125.675C256.582 125.748 256.196 125.581 255.849 125.173L252.846 121.682C252.521 121.31 251.977 120.936 251.214 120.56C250.458 120.175 249.749 120.039 249.087 120.153L248.233 120.3L249.234 126.121C249.333 126.698 249.114 127.033 248.575 127.126L246.819 127.428ZM247.74 117.436L249.807 117.08C251.347 116.815 252.41 116.454 252.997 115.996C253.591 115.529 253.822 114.915 253.691 114.153C253.548 113.321 253.139 112.836 252.466 112.699C251.798 112.552 250.856 112.583 249.64 112.792L247.018 113.244L247.74 117.436Z" fill="#37B2D3"/>
<path d="M226.339 122.426C225.882 119.77 226.211 117.541 227.328 115.74C228.445 113.938 230.274 112.819 232.815 112.382C234.347 112.118 235.582 112.108 236.52 112.351C237.465 112.592 238.34 113.068 239.143 113.778C239.63 114.21 239.685 114.6 239.31 114.95L238.14 116.032C237.799 116.352 237.368 116.311 236.847 115.909C236.417 115.579 235.903 115.331 235.303 115.164C234.704 114.998 234.069 114.972 233.399 115.087C231.783 115.366 230.72 116.076 230.211 117.218C229.7 118.352 229.611 119.881 229.942 121.806C230.273 123.731 230.869 125.147 231.731 126.053C232.591 126.951 233.829 127.261 235.446 126.983C236.232 126.848 236.896 126.654 237.439 126.402C237.981 126.142 238.47 125.761 238.907 125.258L238.551 123.191L236.045 123.622C235.468 123.721 235.136 123.521 235.05 123.02L234.815 121.657C234.729 121.157 234.975 120.857 235.552 120.758L240.565 119.895C241.142 119.796 241.474 119.996 241.56 120.497L242.569 126.364C241.628 127.342 240.634 128.084 239.587 128.589C238.548 129.093 237.286 129.473 235.8 129.728C233.298 130.159 231.207 129.714 229.53 128.393C227.859 127.072 226.796 125.083 226.339 122.426Z" fill="#37B2D3"/>
<path fill-rule="evenodd" clip-rule="evenodd" d="M261.309 124.15C261.204 124.691 261.429 124.914 261.983 124.819L263.82 124.503C264.328 124.416 264.636 124.089 264.745 123.523L265.389 120.214L271.255 119.204L272.968 122.108C273.26 122.605 273.659 122.81 274.168 122.723L276.004 122.407C276.558 122.311 276.695 122.026 276.416 121.551L268.199 107.661C267.853 107.078 267.437 106.829 266.952 106.912L265.336 107.191C264.85 107.274 264.542 107.648 264.411 108.313L261.309 124.15ZM272.709 122.26L271.102 119.535L265.643 120.474L265.04 123.58C264.978 123.903 264.853 124.184 264.65 124.399C264.445 124.616 264.179 124.746 263.871 124.799L262.034 125.115C261.734 125.166 261.408 125.155 261.188 124.936C260.965 124.715 260.957 124.39 261.015 124.093L264.116 108.255C264.188 107.892 264.313 107.581 264.509 107.343C264.71 107.1 264.972 106.949 265.285 106.895L266.902 106.617C267.214 106.563 267.512 106.617 267.782 106.78C268.046 106.938 268.268 107.19 268.457 107.508L276.674 121.398C276.827 121.659 276.929 121.968 276.793 122.251C276.658 122.531 276.355 122.65 276.055 122.702L274.218 123.018C273.91 123.071 273.616 123.038 273.35 122.902C273.087 122.767 272.876 122.544 272.709 122.26ZM265.97 117.165L266.758 113.248C266.84 112.854 266.886 112.556 266.896 112.354C266.896 112.342 266.897 112.329 266.897 112.318C266.897 112.313 266.897 112.309 266.897 112.304C266.898 112.289 266.898 112.275 266.898 112.261C266.902 112.055 266.89 111.757 266.862 111.368C266.862 111.366 266.862 111.365 266.862 111.363L266.908 111.355C266.909 111.357 266.909 111.358 266.91 111.36C267.014 111.736 267.098 112.021 267.163 112.215C267.168 112.229 267.174 112.243 267.18 112.258C267.182 112.26 267.183 112.263 267.184 112.266C267.188 112.277 267.193 112.287 267.198 112.298C267.28 112.484 267.426 112.75 267.636 113.097L269.689 116.525L265.97 117.165ZM266.35 116.795L269.206 116.304L267.379 113.252C267.379 113.252 267.379 113.252 267.379 113.251C267.289 113.103 267.209 112.966 267.14 112.842C267.117 112.983 267.087 113.138 267.052 113.308C267.052 113.308 267.052 113.308 267.052 113.309L266.35 116.795Z" fill="#37B2D3"/>
<path fill-rule="evenodd" clip-rule="evenodd" d="M245.862 126.702C245.961 127.279 246.281 127.521 246.82 127.429L248.575 127.127C249.114 127.034 249.334 126.699 249.234 126.121L248.233 120.301L249.087 120.154C249.75 120.04 250.459 120.175 251.215 120.56C251.977 120.937 252.521 121.311 252.847 121.683L255.849 125.173C256.197 125.581 256.582 125.749 257.006 125.676L259.015 125.33C259.731 125.207 259.821 124.851 259.283 124.261L256.053 120.691C255.751 120.363 255.369 119.984 254.906 119.557C254.542 119.22 254.078 118.969 253.512 118.804C253.361 118.76 253.203 118.722 253.038 118.691C253.036 118.69 253.035 118.69 253.033 118.69L253.029 118.667C253.032 118.666 253.035 118.665 253.038 118.664C253.194 118.608 253.345 118.549 253.493 118.487C254.597 118.028 255.483 117.409 256.151 116.631C256.911 115.748 257.184 114.69 256.972 113.458C256.688 111.802 255.936 110.703 254.716 110.16C253.496 109.609 251.696 109.538 249.317 109.947L243.97 110.867C243.431 110.96 243.211 111.295 243.311 111.873L245.862 126.702ZM254.839 109.886C253.536 109.298 251.663 109.239 249.266 109.652L243.919 110.572C243.599 110.627 243.32 110.764 243.15 111.024C242.983 111.279 242.958 111.594 243.015 111.924L245.566 126.753C245.623 127.082 245.752 127.371 245.995 127.555C246.242 127.743 246.55 127.779 246.87 127.724L248.626 127.422C248.946 127.367 249.225 127.23 249.395 126.97C249.562 126.715 249.587 126.4 249.53 126.07L248.579 120.545L249.138 120.449C249.722 120.349 250.365 120.464 251.078 120.828L251.082 120.83C251.83 121.199 252.333 121.551 252.62 121.88C252.62 121.88 252.621 121.88 252.621 121.88L255.621 125.368C255.621 125.368 255.621 125.368 255.621 125.368C256.017 125.833 256.502 126.067 257.057 125.972L259.066 125.626C259.264 125.592 259.444 125.538 259.588 125.452C259.738 125.363 259.864 125.23 259.91 125.044C259.956 124.864 259.913 124.686 259.84 124.531C259.766 124.376 259.65 124.219 259.505 124.06C259.505 124.06 259.505 124.06 259.505 124.06L256.275 120.49L256.274 120.488C255.964 120.152 255.576 119.768 255.11 119.337C254.782 119.033 254.385 118.797 253.926 118.625C254.921 118.166 255.741 117.568 256.379 116.827C257.201 115.87 257.494 114.72 257.268 113.407C256.971 111.682 256.173 110.481 254.839 109.886ZM249.807 117.081L247.74 117.436L247.019 113.244L249.64 112.793C250.857 112.584 251.799 112.552 252.466 112.699C253.14 112.837 253.548 113.322 253.691 114.153C253.822 114.915 253.591 115.53 252.998 115.997C252.411 116.454 251.347 116.816 249.807 117.081ZM252.813 115.76C252.288 116.169 251.29 116.521 249.756 116.785L247.985 117.09L247.365 113.489L249.691 113.089C250.895 112.882 251.791 112.858 252.402 112.992L252.406 112.993C252.683 113.05 252.891 113.173 253.048 113.359C253.209 113.55 253.33 113.824 253.396 114.204C253.454 114.542 253.429 114.831 253.336 115.08C253.242 115.329 253.073 115.556 252.813 115.76Z" fill="#37B2D3"/>
<path fill-rule="evenodd" clip-rule="evenodd" d="M239.31 114.951L238.14 116.032C237.799 116.353 237.368 116.312 236.847 115.91C236.418 115.58 235.903 115.331 235.304 115.165C234.704 114.998 234.07 114.973 233.4 115.088C231.783 115.366 230.72 116.076 230.211 117.218C229.701 118.353 229.611 119.882 229.942 121.807C230.273 123.732 230.87 125.147 231.731 126.053C232.591 126.952 233.83 127.262 235.447 126.984C236.232 126.848 236.896 126.655 237.44 126.403C237.981 126.143 238.471 125.762 238.907 125.258L238.552 123.191L236.046 123.622C235.468 123.722 235.136 123.521 235.05 123.021L234.816 121.658C234.73 121.158 234.975 120.858 235.553 120.758L240.565 119.896C241.142 119.796 241.474 119.997 241.56 120.497L242.57 126.364C241.628 127.343 240.634 128.085 239.588 128.59C238.549 129.094 237.286 129.473 235.8 129.729C233.298 130.16 231.208 129.715 229.53 128.394C227.86 127.072 226.796 125.083 226.339 122.427C225.882 119.771 226.212 117.542 227.329 115.74C228.446 113.939 230.275 112.82 232.815 112.382C234.348 112.119 235.582 112.108 236.52 112.351C237.465 112.593 238.34 113.069 239.144 113.779C239.63 114.21 239.686 114.601 239.31 114.951ZM236.595 112.061C235.598 111.803 234.316 111.82 232.764 112.087C230.159 112.535 228.246 113.692 227.074 115.582C225.909 117.462 225.577 119.769 226.043 122.478C226.509 125.187 227.601 127.25 229.344 128.629C231.101 130.012 233.282 130.467 235.851 130.025C237.357 129.766 238.648 129.379 239.718 128.86M236.595 112.061C237.59 112.315 238.507 112.816 239.342 113.554C239.607 113.788 239.805 114.054 239.847 114.353C239.893 114.674 239.75 114.951 239.514 115.171L239.514 115.171L238.346 116.251C238.345 116.251 238.345 116.252 238.345 116.252C238.117 116.465 237.841 116.57 237.533 116.541C237.239 116.513 236.948 116.366 236.664 116.148C236.269 115.844 235.791 115.611 235.223 115.454C234.671 115.3 234.081 115.275 233.451 115.384C231.898 115.651 230.941 116.318 230.485 117.34L230.485 117.341C230.009 118.398 229.911 119.859 230.238 121.756C230.564 123.652 231.145 125.001 231.948 125.846C232.718 126.65 233.843 126.955 235.396 126.688C236.162 126.556 236.799 126.369 237.312 126.132C237.774 125.909 238.2 125.589 238.587 125.167L238.307 123.538" fill="#37B2D3"/>
<path d="M22.0002 63.0396C21.204 62.9594 20.8489 62.4928 20.9348 61.6397L23.1407 39.7327C23.2266 38.8797 23.6676 38.4932 24.4638 38.5734L32.3633 39.3688C35.878 39.7227 38.3879 40.527 39.8931 41.7815C41.3995 43.0247 42.0295 44.8691 41.7833 47.3146C41.6 49.1344 40.8 50.5188 39.3831 51.4677C37.9662 52.4165 36.2334 52.9659 34.1847 53.1158L34.1812 53.1499C35.2319 53.6693 35.9993 54.3211 36.4834 55.1051C36.9674 55.8892 37.3582 56.572 37.6559 57.1535L40.8132 63.4518C41.3403 64.4929 41.075 64.9603 40.0172 64.8538L37.0485 64.5548C36.4229 64.4918 35.9448 64.1048 35.6143 63.3936L32.7468 57.2968C32.4333 56.6448 31.8128 55.9044 30.8851 55.0757C29.97 54.2367 29.0233 53.768 28.0451 53.6695L26.7826 53.5424L25.9167 62.1413C25.8308 62.9944 25.3898 63.3809 24.5936 63.3007L22.0002 63.0396ZM27.2087 49.3111L30.2627 49.6186C32.5375 49.8477 34.1785 49.7544 35.1854 49.3388C36.2049 48.9129 36.7714 48.1369 36.8848 47.0109C37.0085 45.7825 36.6223 44.9393 35.7263 44.4814C34.8427 44.0133 33.5024 43.6887 31.7053 43.5078L27.8323 43.1178L27.2087 49.3111Z" fill="#37B2D3"/>
<path d="M2.17455 61.0435C1.37834 60.9633 1.02319 60.4967 1.10909 59.6436L3.315 37.7366C3.4009 36.8836 3.84195 36.4971 4.63815 36.5773L7.40211 36.8556C8.08457 36.9243 8.38285 37.3852 8.29695 38.2383L6.38826 57.1936L16.3351 58.1952C17.1882 58.2811 17.5775 58.6937 17.503 59.433L17.3003 61.4463C17.2259 62.1856 16.7621 62.5123 15.909 62.4264L2.17455 61.0435Z" fill="#37B2D3"/>
<path fill-rule="evenodd" clip-rule="evenodd" d="M37.6561 57.1547L40.8135 63.453C41.3405 64.4942 41.0752 64.9615 40.0174 64.855L37.0487 64.5561C36.4231 64.4931 35.945 64.106 35.6145 63.3948L32.747 57.2981C32.4335 56.6461 31.813 55.9057 30.8853 55.077C29.9702 54.238 29.0236 53.7692 28.0454 53.6707L26.7828 53.5436L25.9169 62.1426C25.831 62.9957 25.39 63.3821 24.5938 63.302L22.0004 63.0408C21.2042 62.9606 20.8491 62.494 20.935 61.6409L23.1409 39.734C23.2268 38.8809 23.6678 38.4945 24.4641 38.5746L32.3635 39.3701C35.8782 39.724 38.3881 40.5282 39.8933 41.7828C41.3997 43.026 42.0297 44.8703 41.7835 47.3158C41.6002 49.1357 40.8002 50.5201 39.3833 51.4689C38.1366 52.3038 36.6454 52.8294 34.9095 53.0457C34.677 53.0747 34.4401 53.0981 34.1988 53.116C34.1942 53.1163 34.1895 53.1167 34.1849 53.117L34.1815 53.1511C34.1835 53.1522 34.1856 53.1532 34.1876 53.1542C34.4081 53.2634 34.6162 53.3785 34.8117 53.4994C35.5449 53.9529 36.1022 54.4886 36.4836 55.1064C36.9676 55.8905 37.3584 56.5733 37.6561 57.1547ZM35.4654 53.4094C36.0463 53.8314 36.5133 54.3189 36.8571 54.8758C37.345 55.6661 37.7422 56.3596 38.0468 56.9547L38.0485 56.958L41.2051 63.2547C41.2052 63.2549 41.205 63.2546 41.2051 63.2547C41.3472 63.5356 41.4498 63.8038 41.4927 64.0513C41.5356 64.2983 41.5256 64.565 41.3915 64.8012C41.2526 65.0457 41.0231 65.1839 40.7776 65.2508C40.5399 65.3157 40.2651 65.3212 39.9734 65.2918L37.0047 64.9929C36.1855 64.9104 35.5938 64.3915 35.2167 63.5805C35.2166 63.5803 35.2168 63.5807 35.2167 63.5805L32.3514 57.4883C32.3512 57.4878 32.351 57.4874 32.3507 57.4869C32.0738 56.9118 31.5032 56.2176 30.5929 55.4043L30.5887 55.4005C29.7248 54.6085 28.8631 54.1943 28.0014 54.1075L27.1756 54.0244L26.3537 62.1866C26.3047 62.6732 26.1468 63.1082 25.811 63.4024C25.4694 63.7018 25.0233 63.7864 24.5498 63.7387L21.9565 63.4776C21.483 63.4299 21.0627 63.2581 20.7876 62.8966C20.5172 62.5413 20.4492 62.0836 20.4982 61.597L22.7041 39.69C22.7531 39.2034 22.911 38.7684 23.2468 38.4742C23.5885 38.1748 24.0346 38.0902 24.508 38.1379L32.4075 38.9333C35.9479 39.2898 38.5658 40.1053 40.1736 41.4449C41.8218 42.8057 42.4768 44.8115 42.2202 47.3598C42.025 49.2992 41.1619 50.8061 39.6276 51.8337C38.4389 52.6297 37.0484 53.152 35.4654 53.4094ZM35.5209 44.8706C34.713 44.4425 33.4403 44.1249 31.6615 43.9458L28.2253 43.5998L27.6896 48.9196L30.3069 49.1831C32.5719 49.4112 34.118 49.3055 35.0175 48.9345C35.4641 48.7478 35.7915 48.4936 36.0206 48.1798C36.2502 47.8653 36.3979 47.4675 36.4482 46.9682C36.5048 46.4066 36.4406 45.9722 36.289 45.6412C36.1407 45.3173 35.8947 45.0616 35.5267 44.8736L35.5209 44.8706ZM35.1857 49.34C34.1787 49.7557 32.5377 49.849 30.2629 49.6199L27.2089 49.3124L27.8325 43.119L31.7055 43.509C33.5026 43.69 34.8429 44.0145 35.7265 44.4827C36.6225 44.9406 37.0087 45.7837 36.885 47.0121C36.7716 48.1382 36.2052 48.9142 35.1857 49.34Z" fill="#37B2D3"/>
<path fill-rule="evenodd" clip-rule="evenodd" d="M0.96193 60.9005C0.691535 60.5452 0.623529 60.0875 0.672532 59.6009L2.87844 37.6939C2.92744 37.2073 3.08533 36.7723 3.42113 36.4781C3.76279 36.1787 4.2089 36.0941 4.68235 36.1418L7.44631 36.4201C7.88394 36.4642 8.26709 36.6458 8.50642 37.0156C8.73273 37.3653 8.78159 37.8103 8.73394 38.2835L6.86923 56.8021L16.3793 57.7597C16.8591 57.808 17.2901 57.955 17.5864 58.2691C17.8936 58.5947 17.9858 59.0237 17.94 59.4783L17.7373 61.4915C17.6915 61.9461 17.5157 62.3481 17.1497 62.606C16.7967 62.8546 16.345 62.9128 15.8653 62.8645L2.13078 61.4815C1.65734 61.4338 1.23705 61.262 0.96193 60.9005ZM16.3353 58.1965C17.1884 58.2824 17.5777 58.695 17.5033 59.4343L17.3005 61.4476C17.2261 62.1869 16.7623 62.5136 15.9093 62.4277L2.17476 61.0447C1.37856 60.9646 1.02341 60.4979 1.10931 59.6449L3.31521 37.7379C3.40111 36.8848 3.84216 36.4984 4.63837 36.5786L7.40233 36.8569C8.08479 36.9256 8.38307 37.3865 8.29717 38.2396L6.38847 57.1949L16.3353 58.1965Z" fill="#37B2D3"/>
<path d="M213.603 30.5083C212.87 30.3185 212.718 29.9205 213.146 29.3143L225.719 11.5936C226.248 10.8505 226.834 10.562 227.475 10.728L229.614 11.2816C230.255 11.4476 230.627 11.9839 230.729 12.8905L233.125 34.4859C233.206 35.2239 232.879 35.498 232.146 35.3082L229.718 34.6795C229.045 34.5056 228.668 34.033 228.585 33.2619L228.091 28.7498L220.331 26.7412L217.71 30.4468C217.263 31.0808 216.704 31.3109 216.032 31.1369L213.603 30.5083ZM222.732 23.3209L227.651 24.594L227.029 19.2505C226.953 18.6222 226.922 18.1742 226.937 17.9065C226.965 17.6312 227.019 17.2324 227.1 16.7101L227.039 16.6942C226.856 17.1902 226.705 17.564 226.586 17.8155C226.479 18.0596 226.24 18.4377 225.868 18.95L222.732 23.3209Z" fill="#37B2D3"/>
<path d="M201.795 8.25267C201.031 8.05498 200.735 7.62519 200.906 6.9633L201.405 5.03873C201.576 4.37684 202.043 4.14474 202.807 4.34243L218.509 8.40693C219.273 8.60462 219.569 9.03441 219.398 9.6963L218.9 11.6209C218.728 12.2828 218.261 12.5149 217.497 12.3172L211.876 10.8622L207.436 28.0153C207.291 28.5753 206.964 28.7895 206.455 28.6577L203.522 27.8985C203.013 27.7667 202.831 27.4208 202.976 26.8608L207.416 9.70766L201.795 8.25267Z" fill="#37B2D3"/>
<path fill-rule="evenodd" clip-rule="evenodd" d="M212.817 29.0816L225.39 11.3609C225.679 10.9554 226.005 10.6418 226.377 10.4586C226.758 10.2708 227.164 10.2312 227.577 10.338L229.715 10.8916C230.128 10.9984 230.464 11.2302 230.706 11.5792C230.942 11.9198 231.075 12.3515 231.131 12.8462L233.527 34.4424C233.571 34.8469 233.525 35.2829 233.201 35.5552C232.881 35.8242 232.443 35.8031 232.046 35.7002L229.617 35.0716C229.209 34.9661 228.867 34.7621 228.615 34.4477C228.367 34.1368 228.232 33.7472 228.184 33.3069L227.72 29.0719L220.501 27.2031L218.041 30.6804C217.786 31.0424 217.478 31.3181 217.11 31.4694C216.737 31.6225 216.339 31.6345 215.931 31.529L213.503 30.9003C213.105 30.7974 212.712 30.6034 212.562 30.2128C212.411 29.8174 212.583 29.4139 212.817 29.0816ZM217.71 30.4478L220.332 26.7422L228.091 28.7508L228.586 33.2629C228.669 34.034 229.046 34.5066 229.718 34.6805L232.147 35.3092C232.88 35.499 233.206 35.2249 233.126 34.4869L230.73 12.8915C230.628 11.9849 230.256 11.4486 229.614 11.2826L227.476 10.7291C226.834 10.563 226.249 10.8515 225.72 11.5946L213.147 29.3154C212.718 29.9215 212.871 30.3195 213.604 30.5093L216.032 31.1379C216.704 31.3119 217.264 31.0819 217.71 30.4478ZM227.1 16.7174C227.1 16.7153 227.101 16.7132 227.101 16.7111L227.04 16.6952C227.039 16.6973 227.038 16.6993 227.038 16.7013C226.856 17.1942 226.705 17.566 226.587 17.8166C226.579 17.8336 226.571 17.8513 226.562 17.8696C226.56 17.875 226.557 17.8805 226.554 17.886C226.547 17.9003 226.54 17.9149 226.532 17.9298C226.409 18.1718 226.187 18.5122 225.869 18.951L222.733 23.3219L227.651 24.595L227.03 19.2515C226.964 18.7093 226.932 18.3014 226.934 18.0277C226.934 18.012 226.935 17.9968 226.935 17.982C226.935 17.9776 226.935 17.9733 226.935 17.969C226.936 17.9475 226.937 17.927 226.938 17.9075C226.966 17.6333 227.02 17.2366 227.1 16.7174ZM226.562 18.6641C226.456 18.824 226.333 18.9988 226.196 19.1876C226.196 19.1878 226.197 19.1874 226.196 19.1876L223.405 23.0786L227.182 24.0563L226.629 19.3002C226.629 19.3 226.629 19.3005 226.629 19.3002C226.601 19.0676 226.578 18.8547 226.562 18.6641Z" fill="#37B2D3"/>
<path fill-rule="evenodd" clip-rule="evenodd" d="M200.668 8.01229C200.434 7.67313 200.41 7.27007 200.516 6.86311L201.014 4.93854C201.119 4.53159 201.335 4.19064 201.704 4.00749C202.06 3.83084 202.479 3.84126 202.909 3.95244L218.611 8.01694C219.04 8.12812 219.412 8.32225 219.637 8.64937C219.871 8.98852 219.894 9.39159 219.789 9.79855L219.291 11.7231C219.186 12.1301 218.969 12.471 218.6 12.6542C218.245 12.8308 217.826 12.8204 217.396 12.7092L212.166 11.3554L207.827 28.1175C207.741 28.4491 207.584 28.7514 207.303 28.9349C207.015 29.1237 206.679 29.1338 206.354 29.0497L203.421 28.2906C203.096 28.2065 202.807 28.0345 202.647 27.7294C202.491 27.4331 202.499 27.0921 202.585 26.7606L206.924 9.9985L201.694 8.64472C201.265 8.53354 200.893 8.3394 200.668 8.01229ZM201.795 8.2537C201.032 8.05601 200.735 7.62622 200.907 6.96433L201.405 5.03976C201.576 4.37787 202.044 4.14577 202.807 4.34346L218.509 8.40796C219.273 8.60565 219.569 9.03544 219.398 9.69733L218.9 11.6219C218.729 12.2838 218.261 12.5159 217.497 12.3182L211.876 10.8632L207.436 28.0163C207.291 28.5764 206.964 28.7905 206.455 28.6587L203.522 27.8996C203.013 27.7678 202.831 27.4218 202.976 26.8618L207.416 9.70869L201.795 8.2537Z" fill="#37B2D3"/>
<path d="M154.625 99.4998C154.625 102.905 153.547 106.223 151.545 108.978C149.543 111.732 146.721 113.783 143.482 114.835C140.244 115.887 136.755 115.887 133.517 114.835C130.278 113.782 127.456 111.732 125.454 108.977C123.453 106.222 122.375 102.904 122.375 99.4989C122.375 96.0937 123.453 92.7759 125.455 90.021C127.456 87.2661 130.278 85.2156 133.517 84.1633C136.756 83.111 140.244 83.1109 143.483 84.1631" stroke="white" stroke-width="5" stroke-linecap="round" stroke-linejoin="round"/>
</svg>
