<svg width="197" height="160" viewBox="0 0 197 160" fill="none" xmlns="http://www.w3.org/2000/svg">
<path d="M155.104 80.8256L100.459 92.8654L22.9954 75.6613L66.6177 65.21L155.104 80.8256Z" fill="#523606"/>
<path d="M66.6177 65.21L22.9954 75.6613L66.6177 85.3991V65.21Z" fill="#472F05"/>
<path d="M168.28 23.7805C166.226 23.1359 164.678 22.7445 163.98 22.5834L163.566 22.4836L156.729 59.4548L154.889 69.4304L153.195 78.585L152.843 80.4957C155.043 80.9101 157.212 81.2707 159.373 81.7081C167.46 81.8309 181.066 80.2118 189.482 69.3921C191.82 66.3917 193.759 62.6624 195.062 58.0736C195.216 57.5518 195.346 57.0377 195.453 56.5312C195.706 55.3802 195.89 54.2598 195.982 53.1779C197.561 35.2294 177.639 26.7501 168.28 23.7805Z" fill="#B3976D"/>
<path d="M173.339 29.4282L162.854 80.4574C163.091 80.4036 163.336 80.3499 163.574 80.2962L173.945 29.8042C173.73 29.6891 173.531 29.5663 173.332 29.4282H173.339Z" fill="#7B6854"/>
<path d="M181.625 31.8376L171.998 78.6924C172.236 78.6463 172.481 78.5926 172.719 78.5466L182.246 32.183C182.047 32.0602 181.832 31.9527 181.625 31.8376Z" fill="#7B6854"/>
<path d="M188.846 39.4653L181.288 76.2677C181.541 76.1833 181.786 76.0835 182.032 75.9914L189.352 40.3478C189.183 40.0485 189.015 39.7569 188.846 39.4653Z" fill="#7B6854"/>
<g style="mix-blend-mode:multiply" opacity="0.5">
<path d="M190.394 58.511C187.374 65.0565 181.947 70.781 175.647 74.0423C168.441 77.7793 160.677 78.2397 153.203 78.585C153.126 78.585 153.05 78.5927 152.973 78.6003C152.483 79.1375 152.513 79.8665 152.736 80.4727C154.974 80.8947 157.181 81.2631 159.381 81.7081C167.468 81.8309 181.074 80.2118 189.49 69.3921C190.057 67.8497 190.494 66.2766 190.808 64.7189C191.268 62.4552 191.245 60.3987 190.394 58.5187V58.511Z" fill="#B3976D"/>
</g>
<g style="mix-blend-mode:multiply" opacity="0.5">
<path d="M154.897 69.4304L156.737 59.4548L163.574 22.4836L163.988 22.5834C164.686 22.7445 166.234 23.1359 168.288 23.7805C177.647 26.7501 197.577 35.2294 195.99 53.1779C192.326 47.0544 185.872 43.0104 178.429 42.3581C175.041 42.0666 171.362 42.4732 168.012 44.2689C163.697 46.5939 160.424 51.0216 158.553 55.6027C156.691 60.1761 156.047 64.9414 155.572 69.6223C155.334 69.5916 155.104 69.5302 154.897 69.4304Z" fill="#B3976D"/>
</g>
<path d="M157.626 81.3628L158.078 78.9073L159.964 68.7321L161.014 63.0614L162.938 52.6484L165.038 41.3068L166.242 34.8073L167.361 28.7683L167.43 28.3769L168.281 23.7728C166.832 23.3124 165.636 22.9824 164.816 22.7752C164.471 22.6831 164.195 22.6217 163.98 22.568L163.337 22.4146L162.616 26.2667L161.405 32.7432L159.289 44.054L157.35 54.4363L156.285 60.0917L152.483 80.4189C154.215 80.7489 155.924 81.0405 157.626 81.3628Z" fill="#DED7BF"/>
<path d="M180.583 29.0751C179.004 28.1773 177.425 27.3869 175.892 26.6886C173.064 25.3995 170.404 24.4403 168.288 23.7727C166.234 23.1204 164.686 22.7367 163.988 22.5756L163.574 22.4758V22.4989L162.739 26.9802C163.467 27.1567 164.609 27.4713 166.035 27.9087C166.479 28.0545 166.954 28.2003 167.445 28.3691C170.71 29.4971 174.98 31.262 178.943 33.8327C180.928 35.1142 182.852 36.6105 184.538 38.3217C188.095 41.936 190.594 46.5478 190.509 52.3413C190.479 54.1446 190.195 56.0706 189.62 58.1041C189.574 58.2653 189.528 58.4264 189.482 58.5799C187.321 65.793 183.358 70.5123 178.789 73.5587C176.965 74.7788 175.049 75.7303 173.11 76.4823C171.209 77.2036 169.292 77.7331 167.43 78.1014C166.326 78.3239 165.245 78.4851 164.187 78.6079C161.949 78.8688 159.864 78.9302 158.101 78.9071C157.58 78.9071 157.082 78.8841 156.614 78.8611C155.127 78.7997 153.954 78.6693 153.219 78.5695L152.866 80.4879C153.847 80.6721 154.828 80.8485 155.802 81.025C158.944 81.5929 162.156 81.7694 165.329 81.4548C165.352 81.4548 165.375 81.4548 165.398 81.4548C166.456 81.3473 167.552 81.2015 168.671 81.0174C170.549 80.6951 172.496 80.2423 174.443 79.6131C176.421 78.9762 178.391 78.1628 180.315 77.1345C184.937 74.633 189.214 70.8346 192.272 65.1331C192.97 63.8286 193.606 62.432 194.158 60.9127C194.503 60.0072 194.81 59.0557 195.093 58.0658C199.194 43.5858 190.088 34.4542 180.614 29.0751H180.583Z" fill="#DED7BF"/>
<g style="mix-blend-mode:screen" opacity="0.5">
<path d="M184.523 38.3294C182.837 36.6105 180.92 35.1219 178.927 33.8404L175.892 26.6963C177.425 27.3946 179.012 28.185 180.583 29.0828L184.523 38.3294Z" fill="#DED7BF"/>
</g>
<g style="mix-blend-mode:screen" opacity="0.5">
<path d="M192.242 65.1332L189.467 58.5953C189.513 58.4341 189.567 58.2807 189.605 58.1195C190.18 56.086 190.456 54.16 190.494 52.3567L194.135 60.9204C193.583 62.4321 192.939 63.8363 192.249 65.1408L192.242 65.1332Z" fill="#DED7BF"/>
</g>
<g style="mix-blend-mode:screen" opacity="0.5">
<path d="M162.938 52.6558L159.282 44.0691L161.397 32.7583L165.038 41.3066L162.938 52.6558Z" fill="#DED7BF"/>
</g>
<g style="mix-blend-mode:screen" opacity="0.5">
<path d="M174.42 79.6132L173.094 76.49C175.034 75.7457 176.95 74.7942 178.774 73.5664L180.292 77.1269C178.376 78.1552 176.398 78.9686 174.42 79.6055V79.6132Z" fill="#DED7BF"/>
</g>
<g style="mix-blend-mode:screen" opacity="0.5">
<path d="M159.964 68.7397L156.285 60.0993L157.35 54.4438L161.014 63.0689L159.964 68.7397Z" fill="#DED7BF"/>
</g>
<g style="mix-blend-mode:screen" opacity="0.5">
<path d="M165.376 81.4548L164.172 78.6156C165.222 78.4928 166.311 78.324 167.414 78.1091L168.649 81.0174C167.537 81.2016 166.441 81.3474 165.376 81.4548Z" fill="#DED7BF"/>
</g>
<path d="M154.039 80.7181L164.639 22.7444C163.597 22.3147 163.329 22.4298 163.329 22.4298L152.49 80.4342C153.011 80.5339 153.525 80.626 154.039 80.7258V80.7181Z" fill="#7B6854"/>
<path d="M163.329 22.4223L152.483 80.4574L66.6177 65.21L76.4674 12.2778L163.329 22.4223Z" fill="#996D53"/>
<path d="M68.2119 64.1049L77.571 13.7817L161.719 23.6039L151.386 78.8765L68.2119 64.1049Z" fill="#472F05"/>
<path d="M77.5711 13.7817C77.5711 13.7817 101.908 23.4965 99.6161 39.4651C96.6037 60.4676 68.2043 64.1049 68.2043 64.1049L77.5711 13.7817Z" fill="#332104"/>
<path d="M65.468 69.2693V73.812L42.5416 78.9226L32.7915 76.2062L65.468 69.2693Z" fill="#A86300"/>
<path d="M144.312 80.9638L65.468 69.2693V73.812L127.287 84.6394L144.312 80.9638Z" fill="#8A5100"/>
<path d="M22.9954 75.3084L66.6177 65.21L155.104 80.8256L145.254 82.9819L65.4679 69.2693L30.9671 77.104L22.9954 75.3084Z" fill="#472F05"/>
<g style="mix-blend-mode:screen" opacity="0.5">
<path d="M65.4679 69.2692L38.4253 75.4081L65.4679 67.9187L96.6037 74.6177L65.4679 69.2692Z" fill="#B39174"/>
</g>
<path d="M62.9989 33.0912C62.8625 30.7223 64.1476 28.2715 61.7241 27.4602C59.3278 27.1228 54.4161 32.6344 54.5149 42.6113C54.6654 57.8142 61.8206 63.5427 67.7504 66.093C74.5743 69.0278 82.1095 67.8019 85.3897 66.9793C97.6904 63.8946 103.239 50.656 100.636 42.8092C97.7934 34.239 92.3467 30.9268 93.5124 34.6627C94.6781 38.3985 86.2317 40.3106 87.8542 35.4636C90.6254 25.797 86.818 17.4596 81.8347 13.4681C76.8514 9.47666 66.3189 8.18137 70.3547 12.2274C74.3904 16.2733 73.7973 22.4872 70.1705 25.5481C66.5438 28.6089 63.5545 34.4853 64.7475 38.6949C64.2191 37.7746 63.2458 37.3816 62.9989 33.0912Z" fill="url(#paint0_radial_2173_5377)"/>
<path d="M84.2612 46.7742C78.7223 41.3887 79.3699 36.1224 81.4935 31.722C82.6023 28.806 77.5668 29.5712 74.1855 36.8962C70.8042 44.2212 71.4961 47.9842 73.0538 50.2714C74.6115 52.5585 73.7457 54.0345 71.7688 52.7222C69.7918 51.4098 68.9635 45.2778 66.9763 52.0472C64.9891 58.8167 66.7377 64.4204 74.0082 66.8541C81.2786 69.2878 86.8278 66.5917 88.4503 61.7447C90.0728 56.8977 89.8001 52.1598 84.2612 46.7742Z" fill="url(#paint1_linear_2173_5377)"/>
<path fill-rule="evenodd" clip-rule="evenodd" d="M52.9931 40.4898C52.7086 40.2363 52.2724 40.2614 52.0189 40.5459C51.7653 40.8304 51.7904 41.2666 52.0749 41.5202L53.7898 43.0484L53.934 45.5535L51.7008 44.43L50.977 42.2407C50.8574 41.8788 50.4671 41.6825 50.1052 41.8021C49.7434 41.9217 49.547 42.312 49.6667 42.6739L50.2621 44.4751L48.4612 45.0705C48.0994 45.1901 47.903 45.5804 48.0226 45.9422C48.1423 46.3041 48.5326 46.5005 48.8944 46.3808L51.0748 45.66L53.3169 46.788L51.2269 48.1605L48.9696 47.6927C48.5964 47.6154 48.2312 47.8552 48.1538 48.2284C48.0765 48.6016 48.3164 48.9668 48.6895 49.0441L50.5471 49.429L50.1623 51.286C50.085 51.6592 50.3248 52.0244 50.698 52.1017C51.0712 52.179 51.4364 51.9392 51.5137 51.566L51.9796 49.3173L54.0709 47.9439L54.2146 50.4414L52.6869 52.1563C52.4335 52.4408 52.4586 52.8771 52.743 53.1307C53.0275 53.3843 53.4636 53.3592 53.7171 53.0746L54.9787 51.6584L56.3945 52.9206C56.679 53.1742 57.1151 53.1491 57.3686 52.8646C57.6221 52.58 57.597 52.1438 57.3125 51.8902L55.5918 50.3561L55.4482 47.8605L57.6904 48.9886L58.4117 51.169C58.5314 51.5308 58.9217 51.7272 59.2836 51.6077C59.6455 51.4881 59.8418 51.0979 59.7221 50.7361L59.1264 48.9354L60.9275 48.3403C61.2893 48.2208 61.4857 47.8305 61.366 47.4687C61.2463 47.1069 60.8559 46.9105 60.4941 47.0301L58.3052 47.7533L56.0721 46.6299L58.1695 45.2524L60.4187 45.718C60.7919 45.7953 61.1571 45.5554 61.2345 45.1822C61.3119 44.8091 61.0721 44.444 60.6989 44.3667L58.8417 43.9822L59.2268 42.1252C59.3042 41.752 59.0644 41.3869 58.6913 41.3096C58.3181 41.2324 57.9528 41.4722 57.8754 41.8454L57.4074 44.1022L55.312 45.4783L55.168 42.9748L56.7015 41.254C56.9551 40.9694 56.9299 40.5332 56.6454 40.2797C56.3609 40.0261 55.9247 40.0512 55.6711 40.3357L54.4092 41.7518L52.9931 40.4898Z" fill="#B7E4FF"/>
<path fill-rule="evenodd" clip-rule="evenodd" d="M95.7428 55.0729C95.5559 54.9064 95.2695 54.9229 95.1031 55.1097C94.9366 55.2966 94.9531 55.583 95.1399 55.7495L96.2657 56.7527L96.3604 58.3984L94.8939 57.6606L94.4187 56.2233C94.3401 55.9857 94.0839 55.8568 93.8463 55.9353C93.6087 56.0138 93.4798 56.2701 93.5583 56.5077L93.9492 57.69L92.7667 58.081C92.5291 58.1595 92.4002 58.4158 92.4787 58.6534C92.5573 58.891 92.8136 59.0199 93.0511 58.9414L94.4826 58.4681L95.9546 59.2086L94.5831 60.1093L93.1007 59.8022C92.8557 59.7514 92.6159 59.9089 92.5651 60.1539C92.5143 60.399 92.6718 60.6387 92.9168 60.6895L94.1364 60.9422L93.8837 62.1617C93.8329 62.4068 93.9904 62.6466 94.2354 62.6973C94.4804 62.7481 94.7202 62.5906 94.771 62.3456L95.0769 60.8691L96.4504 59.9671L96.5448 61.6072L95.5418 62.7331C95.3753 62.9199 95.3918 63.2064 95.5786 63.3729C95.7654 63.5394 96.0517 63.5229 96.2181 63.3361L97.0465 62.4062L97.9761 63.2349C98.1629 63.4014 98.4492 63.3849 98.6157 63.1981C98.7821 63.0113 98.7656 62.7248 98.5788 62.5583L97.449 61.5511L97.3547 59.9129L98.8264 60.6532L99.3001 62.0853C99.3787 62.3228 99.635 62.4518 99.8726 62.3733C100.11 62.2948 100.239 62.0386 100.16 61.801L99.7694 60.6188L100.952 60.228C101.19 60.1495 101.319 59.8933 101.24 59.6557C101.161 59.4182 100.905 59.2892 100.668 59.3677L99.2307 59.8425L97.7642 59.1047L99.1415 58.2001L100.618 58.5058C100.863 58.5565 101.103 58.399 101.154 58.154C101.205 57.909 101.047 57.6693 100.802 57.6185L99.5824 57.3661L99.8354 56.1466C99.8862 55.9016 99.7287 55.6619 99.4837 55.6111C99.2387 55.5604 98.9988 55.7179 98.948 55.9629L98.6406 57.4452L97.2652 58.3485L97.1706 56.7049L98.1777 55.5748C98.3442 55.388 98.3277 55.1016 98.1409 54.9351C97.9541 54.7686 97.6677 54.7851 97.5012 54.9719L96.6727 55.9016L95.7428 55.0729Z" fill="#B7E4FF"/>
<path fill-rule="evenodd" clip-rule="evenodd" d="M91.243 21.2629C90.8364 20.9005 90.2129 20.9364 89.8505 21.343C89.4881 21.7497 89.524 22.3731 89.9306 22.7355L92.3818 24.9199L92.5879 28.5006L89.3961 26.8949L88.3618 23.7661C88.1908 23.249 87.6329 22.9683 87.1158 23.1393C86.5986 23.3103 86.3179 23.8681 86.4889 24.3853L87.3399 26.9594L84.7656 27.8105C84.2485 27.9815 83.9678 28.5393 84.1388 29.0565C84.3098 29.5737 84.8676 29.8544 85.3848 29.6834L88.5016 28.653L91.7057 30.2649L88.7192 32.2262L85.4931 31.5577C84.9597 31.4472 84.4377 31.79 84.3272 32.3234C84.2166 32.8568 84.5594 33.3788 85.0928 33.4893L87.7475 34.0393L87.1973 36.6944C87.0868 37.2277 87.4296 37.7497 87.963 37.8602C88.4964 37.9708 89.0184 37.628 89.1289 37.0946L89.795 33.8796L92.7839 31.9168L92.9893 35.4869L90.8056 37.9381C90.4433 38.3448 90.4792 38.9684 90.8858 39.3308C91.2924 39.6933 91.9157 39.6574 92.278 39.2507L94.0813 37.2264L96.1049 39.0303C96.5115 39.3928 97.1348 39.3569 97.4971 38.9502C97.8594 38.5435 97.8235 37.92 97.4169 37.5575L94.9577 35.3651L94.7524 31.7976L97.9567 33.4097L98.9877 36.5265C99.1588 37.0436 99.7168 37.3243 100.234 37.1534C100.751 36.9826 101.032 36.4248 100.861 35.9077L100.009 33.3339L102.584 32.4834C103.101 32.3125 103.381 31.7548 103.21 31.2376C103.039 30.7205 102.481 30.4398 101.964 30.6107L98.8358 31.6443L95.6446 30.0389L98.6428 28.07L101.857 28.7354C102.391 28.8458 102.913 28.503 103.023 27.9696C103.134 27.4363 102.791 26.9144 102.258 26.804L99.6035 26.2545L100.154 23.6001C100.265 23.0667 99.9219 22.5449 99.3885 22.4345C98.8551 22.3241 98.3331 22.6669 98.2224 23.2002L97.5534 26.426L94.5576 28.3934L94.3516 24.8147L96.5435 22.3552C96.9059 21.9485 96.87 21.325 96.4633 20.9626C96.0567 20.6002 95.4332 20.6361 95.0708 21.0428L93.2671 23.0667L91.243 21.2629Z" fill="#B7E4FF"/>
<path fill-rule="evenodd" clip-rule="evenodd" d="M65.7463 57.7857L64.2917 59.4179L64.4284 61.7923L66.4156 60.4872L66.8595 58.3465C66.9329 57.9926 67.2794 57.7651 67.6333 57.8384C67.9872 57.9117 68.2146 58.2579 68.1412 58.6119L67.776 60.3731L69.5377 60.7378C69.8916 60.811 70.119 61.1573 70.0456 61.5112C69.9722 61.8651 69.6258 62.0926 69.2719 62.0194L67.1389 61.5778L65.1493 62.8844L67.2673 63.9499L69.3432 63.2641C69.6864 63.1507 70.0566 63.337 70.1702 63.6801C70.2837 64.0232 70.0975 64.3933 69.7543 64.5067L68.0462 65.0711L68.6112 66.779C68.7247 67.1222 68.5385 67.4923 68.1954 67.6057C67.8522 67.719 67.4819 67.5328 67.3684 67.1896L66.6843 65.1215L64.5573 64.0515L64.6935 66.418L66.3258 67.8732C66.5956 68.1138 66.6194 68.5275 66.379 68.7974C66.1386 69.0673 65.725 69.0911 65.4552 68.8506L64.1124 67.6535L62.9158 68.9967C62.6754 69.2666 62.2618 69.2904 61.992 69.0499C61.7222 68.8094 61.6984 68.3956 61.9388 68.1258L63.3874 66.4996L63.2511 64.1305L61.2677 65.4331L60.8257 67.5661C60.7524 67.92 60.406 68.1475 60.0521 68.0742C59.6982 68.0008 59.4707 67.6545 59.544 67.3005L59.909 65.5389L58.1475 65.1739C57.7936 65.1006 57.5661 64.7542 57.6395 64.4003C57.7128 64.0464 58.0592 63.8189 58.4131 63.8922L60.554 64.3358L62.5359 63.0343L60.4098 61.9647L58.3417 62.6484C57.9986 62.7618 57.6284 62.5756 57.5149 62.2324C57.4015 61.8892 57.5877 61.5191 57.9309 61.4056L59.639 60.8409L59.0742 59.1327C58.9608 58.7895 59.147 58.4194 59.4902 58.3059C59.8334 58.1924 60.2035 58.3787 60.317 58.7219L61.0034 60.798L63.1214 61.8636L62.9847 59.4877L61.3582 58.0383C61.0884 57.7978 61.0646 57.3841 61.3051 57.1143C61.5455 56.8444 61.9592 56.8206 62.2291 57.0611L63.5722 58.258L64.7691 56.9149C65.0096 56.645 65.4233 56.6212 65.6931 56.8617C65.963 57.1022 65.9868 57.5159 65.7463 57.7857Z" fill="#B7E4FF"/>
<mask id="mask0_2173_5377" style="mask-type:alpha" maskUnits="userSpaceOnUse" x="96" y="21" width="41" height="27">
<path d="M99.6062 21.5817C95.7243 20.721 92.8733 29.0963 103.968 42.5341L123.643 47.741C128.987 43.953 139.012 35.5545 136.364 32.265C133.053 28.1532 131.536 33.7278 127.152 29.3781C122.768 25.0283 119.995 23.5691 114.094 24.794C108.193 26.0189 109.092 23.6849 99.6062 21.5817Z" fill="#FFBD08"/>
</mask>
<g mask="url(#mask0_2173_5377)">
<path d="M99.6062 21.5817C95.7243 20.721 92.8733 29.0963 103.968 42.5341L123.643 47.741C128.987 43.953 139.012 35.5545 136.364 32.265C133.053 28.1532 131.536 33.7278 127.152 29.3781C122.768 25.0283 119.995 23.5691 114.094 24.794C108.193 26.0189 109.092 23.6849 99.6062 21.5817Z" fill="url(#paint2_radial_2173_5377)"/>
<path d="M108.965 38.5099L106.124 19.5836L112.651 19.3421L108.965 38.5099Z" fill="#E9B013"/>
<path d="M120.498 41.1513L130.585 24.887L135.717 28.9286L120.498 41.1513Z" fill="#E9B013"/>
</g>
<path d="M138.614 82.5211C135.526 96.4495 125.577 99.6157 103.297 94.6758C81.0174 89.736 71.1353 82.1727 74.2235 68.2443C77.3118 54.3159 90.4595 34.407 115.432 39.9439C140.405 45.4809 141.702 68.5927 138.614 82.5211Z" fill="url(#paint3_radial_2173_5377)"/>
<g style="mix-blend-mode:multiply">
<ellipse cx="108.709" cy="66.32" rx="16.7634" ry="16.7634" transform="rotate(12.5015 108.709 66.32)" fill="#EDA822" fill-opacity="0.5"/>
</g>
<path d="M106.327 71.6021C105.448 71.4183 104.883 70.5576 105.064 69.6775C105.363 68.2858 105.46 68.4964 105.884 67.7254C106.316 66.9561 106.821 66.3708 107.399 65.9694C107.979 65.5604 108.653 65.2153 109.422 64.9341C109.949 64.739 110.432 64.5066 110.871 64.2368C111.319 63.961 111.696 63.6299 112 63.2436C112.305 62.8495 112.514 62.3831 112.627 61.8443C112.754 61.2361 112.723 60.6793 112.534 60.1738C112.345 59.6682 112.035 59.242 111.605 58.895C111.183 58.5497 110.678 58.3155 110.09 58.1925C109.547 58.0792 109.007 58.0907 108.468 58.2271C107.938 58.3574 107.463 58.6276 107.042 59.0378C106.271 59.7956 105.311 60.5438 104.253 60.3225L104.182 60.3077C103.02 60.0648 102.247 58.8826 102.813 57.8396C103.109 57.2943 103.466 56.8187 103.884 56.4131C104.762 55.5683 105.802 55.0146 107.006 54.752C108.216 54.4909 109.49 54.5001 110.827 54.7796C112.286 55.0847 113.516 55.6108 114.516 56.3582C115.523 57.1071 116.236 58.0235 116.656 59.1073C117.084 60.1851 117.163 61.3744 116.891 62.6753C116.707 63.5528 116.402 64.3084 115.974 64.9421C115.554 65.5774 115.032 66.111 114.408 66.5428C113.783 66.9746 113.075 67.3288 112.284 67.6052C111.585 67.8607 110.993 68.1548 110.509 68.4874C110.032 68.8216 109.64 69.2497 109.331 69.7717C109.032 70.2876 109.025 70.0654 108.847 70.8797C108.683 71.5426 108.023 71.9567 107.355 71.8169L106.327 71.6021ZM105.224 78.8913C104.537 78.7476 103.996 78.3775 103.602 77.781C103.209 77.1846 103.086 76.5322 103.234 75.8241C103.379 75.1313 103.751 74.5905 104.351 74.2016C104.95 73.8128 105.594 73.6903 106.281 73.834C106.961 73.9761 107.498 74.3454 107.892 74.9419C108.293 75.54 108.421 76.1854 108.276 76.8782C108.178 77.3477 107.97 77.7502 107.653 78.0855C107.343 78.4225 106.973 78.6665 106.543 78.8176C106.122 78.9626 105.682 78.9871 105.224 78.8913Z" fill="#FFEBA5"/>
<path d="M47.3819 50.5183L53.5459 59.938L49.155 62.8119L42.991 53.3947C43.1831 52.5918 43.779 51.7644 44.6754 51.1758C45.5718 50.5897 46.5667 50.373 47.3794 50.5183H47.3819Z" fill="#9981D0"/>
<path d="M83.3444 63.1761C83.699 63.7203 84.0339 64.272 84.3442 64.8335C84.8959 65.8284 85.3736 66.8479 85.78 67.8822C86.0853 68.658 86.3488 69.4386 86.5729 70.2291C86.6715 70.569 86.7601 70.9138 86.8438 71.2561C87.0335 72.0441 87.1837 72.8371 87.2994 73.6325C87.3536 74.0069 87.3979 74.3812 87.4349 74.758C88.3411 84.0052 84.2039 93.4274 75.8924 98.8674C68.3025 103.835 59.0626 104.283 51.3397 100.874C50.9949 100.722 50.6526 100.562 50.3152 100.394C49.5937 100.037 48.8869 99.6456 48.1973 99.2196C47.8994 99.0324 47.6014 98.8403 47.3083 98.6408C46.6286 98.1803 45.9662 97.6853 45.3259 97.1558C44.4664 96.4441 43.6488 95.6709 42.878 94.8385C41.9077 93.7919 41.0113 92.6492 40.2035 91.4154C38.9402 89.4847 37.9675 87.4431 37.2779 85.3499C37.0784 84.749 36.9036 84.1407 36.7534 83.5324C36.3421 81.8849 36.0983 80.2128 36.0195 78.5406C35.953 77.1369 36.0023 75.7356 36.1623 74.3492C37.0095 67.0104 40.9916 60.0879 47.6556 55.7265C53.593 51.8405 60.5426 50.72 66.9825 52.0473C68.3517 52.3305 69.6988 52.7246 71.0065 53.2245C72.5727 53.8254 74.0873 54.5789 75.5205 55.4827C76.0525 55.8177 76.5746 56.1723 77.0819 56.5466C79.483 58.3173 81.6132 60.5386 83.3444 63.181V63.1761Z" fill="#9981D0"/>
<path d="M75.1436 97.72C63.4213 105.391 47.7637 102.286 39.8364 90.8344C39.9546 91.0265 40.0778 91.2211 40.2034 91.4107C48.0001 103.325 63.9803 106.662 75.8922 98.8627C87.8065 91.0659 91.1434 75.0857 83.3442 63.1738C83.2186 62.9817 83.0906 62.7946 82.9625 62.6074C90.284 74.4553 86.8658 90.0488 75.1436 97.72Z" fill="#8A60A4"/>
<path d="M84.3442 64.8315C84.8958 65.8265 85.3736 66.846 85.7799 67.8803L45.3234 97.1515C44.4639 96.4398 43.6463 95.6665 42.8755 94.8341L84.3442 64.8315Z" fill="#CEA1FE"/>
<path d="M77.0817 56.5421L37.2753 85.3454C37.0758 84.7445 36.901 84.1362 36.7507 83.528L75.5204 55.4783C76.0523 55.8132 76.5744 56.1678 77.0817 56.5421Z" fill="#CEA1FE"/>
<path d="M47.8056 55.9535C59.6805 48.1814 75.5942 51.4715 83.4181 63.2923C83.3935 63.2528 83.3688 63.2159 83.3442 63.1765C75.5474 51.2622 59.5673 47.9253 47.6554 55.7245C35.7435 63.5237 32.4041 79.5015 40.2034 91.4134C40.228 91.4528 40.2551 91.4897 40.2797 91.5266C32.579 79.6246 35.9307 63.7257 47.8056 55.9535Z" fill="#CEA1FE"/>
<path d="M61.7738 99.9735C74.2989 99.9735 84.4525 89.8199 84.4525 77.2948C84.4525 64.7698 74.2989 54.6162 61.7738 54.6162C49.2488 54.6162 39.0952 64.7698 39.0952 77.2948C39.0952 89.8199 49.2488 99.9735 61.7738 99.9735Z" fill="#DECEF2"/>
<path d="M69.168 97.612C80.3901 93.5297 86.1781 81.123 82.0958 69.9009C78.0135 58.6788 65.6068 52.8908 54.3846 56.9731C43.1625 61.0554 37.3745 73.4621 41.4568 84.6842C45.5391 95.9063 57.9458 101.694 69.168 97.612Z" fill="#8B66A0"/>
<path d="M67.6901 96.6948C78.4046 93.4272 84.4415 82.0925 81.1739 71.3779C77.9064 60.6634 66.5716 54.6265 55.8571 57.8941C45.1426 61.1617 39.1057 72.4964 42.3733 83.2109C45.6408 93.9254 56.9756 99.9623 67.6901 96.6948Z" fill="#F2E1FD"/>
<path d="M51.0118 66.19L50.8164 65.8913L51.0063 65.7086L51.1265 64.3577L49.8681 63.8797L49.6388 63.9688L49.4422 63.6685L50.4132 63.0331L50.6098 63.3334L50.3871 63.5108L51.2046 63.8289L51.2403 62.9525L50.9937 63.0822L50.7972 62.7818L51.7545 62.1554L51.9511 62.4557L51.7589 62.6424L51.6896 63.9258L53.0138 64.3925L53.2789 64.2799L53.4743 64.5786L52.4794 65.2296L52.284 64.931L52.4839 64.7709L51.61 64.441L51.5522 65.3806L51.7738 65.2649L51.9692 65.5635L51.0118 66.19Z" fill="#221F1F"/>
<path d="M53.6296 64.477L53.4342 64.1783L53.6652 63.954L52.4982 62.1708L52.2002 62.2927L52.0037 61.9923L53.031 61.3201L53.2275 61.6204L52.9965 61.8447L54.1635 63.628L54.4615 63.5061L54.6569 63.8047L53.6296 64.477Z" fill="#221F1F"/>
<path d="M54.848 63.6796L54.6526 63.381L54.8836 63.1567L53.7167 61.3734L53.4187 61.4953L53.2221 61.195L54.2494 60.5227L54.446 60.8231L54.215 61.0474L55.3819 62.8306L55.6799 62.7088L55.8753 63.0074L54.848 63.6796Z" fill="#221F1F"/>
<path d="M60.3527 62.1553L60.3335 61.7989L60.6459 61.7208L60.5314 59.5928L60.2125 59.5486L60.1932 59.1902L61.4191 59.1243L61.4384 59.4827L61.126 59.5608L61.2405 61.6888L61.5595 61.733L61.5787 62.0893L60.3527 62.1553Z" fill="#221F1F"/>
<path d="M67.475 63.1634L67.6373 62.8455L67.9467 62.9347L68.9155 61.0365L68.6618 60.8383L68.8249 60.5186L69.9185 61.0768L69.7553 61.3965L69.4459 61.3072L68.4771 63.2055L68.7308 63.4037L68.5686 63.7215L67.475 63.1634Z" fill="#221F1F"/>
<path d="M68.772 63.8254L68.9342 63.5075L69.2436 63.5967L70.2125 61.6985L69.9587 61.5003L70.1219 61.1806L71.2154 61.7387L71.0522 62.0584L70.7429 61.9692L69.774 63.8674L70.0278 64.0656L69.8655 64.3835L68.772 63.8254Z" fill="#221F1F"/>
<path d="M73.4168 67.3293L73.7167 67.1358L73.9395 67.3682L75.7301 66.2125L75.61 65.9137L75.9116 65.7191L76.5774 66.7506L76.2758 66.9452L76.053 66.7128L74.2624 67.8686L74.3824 68.1673L74.0826 68.3609L73.4168 67.3293Z" fill="#221F1F"/>
<path d="M74.2065 68.5528L74.5063 68.3592L74.7291 68.5916L76.5197 67.4359L76.3997 67.1371L76.7013 66.9425L77.3671 67.974L77.0655 68.1687L76.8427 67.9362L75.0521 69.092L75.1721 69.3907L74.8722 69.5843L74.2065 68.5528Z" fill="#221F1F"/>
<path d="M74.9961 69.7762L75.296 69.5826L75.5188 69.8151L77.3094 68.6593L77.1893 68.3606L77.4909 68.1659L78.1567 69.1974L77.8551 69.3921L77.6323 69.1597L75.8417 70.3154L75.9617 70.6142L75.6619 70.8077L74.9961 69.7762Z" fill="#221F1F"/>
<path d="M76.8166 74.3895L77.1731 74.3726L77.2492 74.6854L79.378 74.5843L79.4241 74.2657L79.7826 74.2486L79.8409 75.475L79.4824 75.492L79.4062 75.1791L77.2775 75.2803L77.2314 75.5989L76.8749 75.6159L76.8166 74.3895Z" fill="#221F1F"/>
<path d="M76.9415 77.0174L79.4711 75.9417L79.4911 75.6753L79.8496 75.6583L79.9056 76.8378L79.5471 76.8548L79.4937 76.5899L77.7715 77.2556L77.6107 77.3082L77.6112 77.3204L77.7722 77.3556L79.5538 77.8549L79.5797 77.5413L79.9382 77.5243L79.9917 78.6487L79.6331 78.6658L79.5878 78.3984L76.9704 77.6265L76.9415 77.0174Z" fill="#221F1F"/>
<path d="M75.3796 84.0593L78.1075 84.3982L78.2584 84.1778L78.5771 84.343L78.0337 85.3914L77.715 85.2262L77.8018 84.9702L75.9781 84.6819L75.8126 84.6466L75.8069 84.6575L75.9284 84.7687L77.219 86.0946L77.3988 85.8364L77.7174 86.0015L77.1994 87.001L76.8807 86.8358L76.9756 86.5818L75.099 84.6006L75.3796 84.0593Z" fill="#221F1F"/>
<path d="M70.7839 89.5424L72.9733 91.2045L73.2145 91.0896L73.4073 91.3924L72.4112 92.0265L72.2184 91.7237L72.4219 91.5458L70.9891 90.3813L70.8636 90.2677L70.8533 90.2743L70.9026 90.4315L71.3535 92.2259L71.6386 92.0928L71.8314 92.3956L70.8817 93.0001L70.689 92.6973L70.8986 92.5252L70.2695 89.8699L70.7839 89.5424Z" fill="#221F1F"/>
<path d="M69.1323 90.5938L69.324 90.8949L69.0902 91.1162L70.2346 92.914L70.5341 92.7959L70.7269 93.0987L69.6912 93.758L69.4985 93.4552L69.7323 93.2338L68.5878 91.436L68.2883 91.5541L68.0967 91.2531L69.1323 90.5938Z" fill="#221F1F"/>
<path d="M64.1326 92.3827L65.1924 94.919L65.4586 94.9406L65.4734 95.2993L64.2936 95.3479L64.2788 94.9893L64.5441 94.9375L63.8892 93.2112L63.8376 93.05L63.8254 93.0505L63.7892 93.2112L63.2787 94.9897L63.5921 95.0176L63.6069 95.3762L62.4821 95.4226L62.4674 95.0639L62.735 95.0202L63.5234 92.4078L64.1326 92.3827Z" fill="#221F1F"/>
<path d="M62.1765 92.4633L62.1912 92.8199L61.8779 92.894L61.9656 95.0234L62.284 95.0715L62.2987 95.4301L61.0721 95.4807L61.0573 95.122L61.3706 95.0479L61.2829 92.9185L60.9645 92.8704L60.9498 92.5138L62.1765 92.4633Z" fill="#221F1F"/>
<path d="M60.7216 92.5232L60.7363 92.8798L60.423 92.954L60.5107 95.0833L60.8291 95.1314L60.8439 95.4901L59.6172 95.5406L59.6024 95.182L59.9157 95.1078L59.828 92.9785L59.5096 92.9304L59.4949 92.5738L60.7216 92.5232Z" fill="#221F1F"/>
<path d="M56.852 91.8741L56.4954 94.5997L56.7148 94.7521L56.5476 95.0697L55.5028 94.5195L55.67 94.2019L55.9254 94.2903L56.2255 92.4685L56.2618 92.3032L56.251 92.2975L56.139 92.4183L54.8048 93.7002L55.0619 93.8817L54.8946 94.1993L53.8986 93.6748L54.0658 93.3572L54.3192 93.4537L56.3124 91.59L56.852 91.8741Z" fill="#221F1F"/>
<path d="M55.1196 90.9619L54.9533 91.2777L54.6451 91.1845L53.6522 93.0702L53.9034 93.2717L53.7361 93.5893L52.6498 93.0172L52.8171 92.6996L53.1253 92.7928L54.1182 90.9071L53.867 90.7057L54.0333 90.3899L55.1196 90.9619Z" fill="#221F1F"/>
<path d="M53.8312 90.2835L53.6649 90.5992L53.3567 90.5061L52.3638 92.3918L52.615 92.5932L52.4477 92.9108L51.3614 92.3388L51.5287 92.0212L51.8369 92.1143L52.8298 90.2286L52.5786 90.0272L52.7449 89.7114L53.8312 90.2835Z" fill="#221F1F"/>
<path d="M52.5428 89.605L52.3765 89.9208L52.0683 89.8277L51.0754 91.7134L51.3265 91.9148L51.1593 92.2324L50.073 91.6604L50.2402 91.3428L50.5484 91.4359L51.5414 89.5502L51.2902 89.3488L51.4565 89.033L52.5428 89.605Z" fill="#221F1F"/>
<path d="M50.07 87.2106L49.7677 87.4003L49.5478 87.1651L47.7427 88.2979L47.8589 88.5981L47.5549 88.7889L46.9023 87.749L47.2063 87.5582L47.4262 87.7935L49.2313 86.6607L49.1151 86.3604L49.4174 86.1707L50.07 87.2106Z" fill="#221F1F"/>
<path d="M49.3177 86.0118L49.0154 86.2015L48.8362 86.0081L47.4879 85.8623L46.9861 87.1114L47.0708 87.3423L46.7668 87.5331L46.15 86.5502L46.454 86.3594L46.6271 86.5854L46.9607 85.7742L46.0851 85.7217L46.2101 85.9707L45.9061 86.1615L45.2979 85.1924L45.6019 85.0016L45.785 85.1974L47.0668 85.291L47.5586 83.976L47.4511 83.7088L47.7534 83.5191L48.3854 84.5262L48.0831 84.7159L47.9269 84.513L47.5804 85.3804L48.5188 85.4561L48.4072 85.2324L48.7095 85.0427L49.3177 86.0118Z" fill="#221F1F"/>
<path d="M46.6874 79.3009L46.3308 79.3133L46.2728 79.0562L45.1798 78.2534L44.1189 79.082L44.0763 79.3243L43.7175 79.3368L43.6772 78.177L44.036 78.1646L44.0723 78.447L44.768 77.9126L44.0369 77.4279L44.02 77.706L43.6613 77.7185L43.6216 76.5751L43.9803 76.5626L44.0404 76.8237L45.1022 77.548L46.1875 76.6573L46.2286 76.3722L46.5852 76.3598L46.6265 77.5481L46.2699 77.5605L46.2365 77.3066L45.5015 77.8831L46.2752 78.4194L46.291 78.1699L46.6477 78.1575L46.6874 79.3009Z" fill="#221F1F"/>
<path d="M47.3176 72.0857L47.0028 71.9174L47.0818 71.6659L46.5391 70.423L45.2056 70.6074L45.0472 70.7956L44.7307 70.6264L45.2778 69.603L45.5943 69.7722L45.484 70.0347L46.3539 69.9216L45.9648 69.1355L45.8107 69.3676L45.4941 69.1984L46.0335 68.1894L46.3501 68.3586L46.271 68.6147L46.826 69.774L48.2117 69.5481L48.3903 69.3222L48.705 69.4904L48.1445 70.539L47.8297 70.3707L47.9283 70.1344L47.0033 70.2642L47.4033 71.1163L47.5422 70.9085L47.857 71.0767L47.3176 72.0857Z" fill="#221F1F"/>
<path d="M48.7925 69.3268L48.4778 69.1585L48.5729 68.8509L46.6934 67.8461L46.4904 68.096L46.1739 67.9268L46.7527 66.8441L47.0693 67.0133L46.9742 67.321L48.8536 68.3257L49.0566 68.0758L49.3714 68.2441L48.7925 69.3268Z" fill="#221F1F"/>
<path d="M62.8919 76.561C63.2957 77.1791 63.1234 78.0065 62.5052 78.4104C61.8871 78.8143 61.0596 78.6419 60.6558 78.0238C60.2519 77.4057 60.4243 76.5782 61.0424 76.1743C61.6605 75.7705 62.488 75.9428 62.8919 76.561Z" fill="#221F1F"/>
<path d="M55.3929 65.026L51.9551 62.2974L53.0805 66.5405C53.381 67.6709 54.5433 68.4712 55.2329 68.0206L55.3215 67.9639L61.5865 77.5363L62.0643 77.2235L55.7993 67.6512L55.8879 67.5945C56.5775 67.1439 56.3091 65.7574 55.3929 65.0309V65.026Z" fill="#221F1F"/>
<path d="M62.7318 67.0207L61.5374 63.9744L60.5622 67.097C60.3036 67.9294 60.7568 68.8824 61.402 68.8578H61.4857L61.7862 77.3269L62.2344 77.3121L61.9339 68.8406H62.0176C62.6629 68.8135 63.0495 67.8333 62.7318 67.0207Z" fill="#221F1F"/>
<path d="M41.9863 43.4923C41.4027 43.7435 40.8215 44.0538 40.26 44.4232C39.7453 44.7605 39.27 45.1275 38.839 45.5215C36.0685 48.031 35.0465 51.5107 36.5857 53.8625C38.3662 56.5813 42.8975 56.766 46.7072 54.2738C50.517 51.7791 52.162 47.5532 50.3815 44.8344C48.8645 42.5171 45.3503 42.0418 41.9863 43.4947V43.4923ZM45.8059 52.8972C43.06 54.6949 39.7921 54.5619 38.509 52.6016C37.4353 50.9591 38.0928 48.5555 39.9472 46.7627C40.3068 46.413 40.7106 46.0879 41.1588 45.7949C41.6489 45.4747 42.1562 45.2137 42.666 45.0142C45.0104 44.103 47.4017 44.4773 48.4557 46.0879C49.7388 48.0482 48.5542 51.097 45.8059 52.8947V52.8972Z" fill="#9981D0"/>
<path d="M40.9618 45.497C38.216 47.2948 37.029 50.3411 38.312 52.3038C38.344 52.3531 38.381 52.4023 38.4154 52.4516C37.2875 50.4888 38.4819 47.5509 41.1588 45.7999C43.8357 44.049 47.0052 44.1302 48.3523 45.9477C48.3227 45.896 48.2932 45.8442 48.2587 45.795C46.9756 43.8347 43.7077 43.7017 40.9618 45.4995V45.497Z" fill="#DECEF2"/>
<path d="M46.5103 53.9735C42.7695 56.4214 38.3367 56.2884 36.4922 53.71C36.5217 53.7617 36.5513 53.8134 36.5858 53.8627C38.3663 56.5839 42.8976 56.7661 46.7073 54.2715C50.517 51.7768 52.1621 47.5509 50.3816 44.8321C50.3496 44.7828 50.3126 44.7336 50.2781 44.6843C51.901 47.408 50.2486 51.5231 46.5103 53.971V53.9735Z" fill="#DECEF2"/>
<path d="M47.5076 50.708L49.4162 53.6238C49.0443 54.3207 48.4016 55.0177 47.5544 55.5693C46.7097 56.1209 45.8133 56.4337 45.0253 56.4977L43.1167 53.5819C43.4886 52.885 44.1338 52.1881 44.9785 51.634C45.8256 51.0799 46.7196 50.7696 47.5076 50.708Z" fill="#DECEF2"/>
<path d="M48.7242 51.3384C49.0172 51.7866 49.0788 52.3358 48.9409 52.8948C48.7488 53.6976 48.1528 54.5226 47.2564 55.1112C46.36 55.6973 45.3626 55.914 44.55 55.7687C43.9811 55.6702 43.5058 55.3944 43.2127 54.9462C42.9197 54.498 42.8581 53.9513 42.996 53.3922C43.1881 52.5894 43.7841 51.762 44.6805 51.1734C45.5769 50.5873 46.5718 50.3705 47.3845 50.5158C47.9534 50.6144 48.4311 50.8902 48.7242 51.3384Z" fill="#8A60A4"/>
<path d="M41.9861 43.4922L42.491 44.2655C42.6338 44.4846 42.6905 44.7481 42.6658 45.0166C42.1561 45.2136 41.6488 45.4746 41.1587 45.7972C40.7105 46.0903 40.3066 46.4154 39.9471 46.7651C39.7033 46.6789 39.4964 46.5262 39.3585 46.3169L38.8389 45.5214C39.2698 45.1274 39.7451 44.7605 40.2598 44.4231C40.8238 44.0537 41.4025 43.7434 41.9861 43.4922Z" fill="#DECEF2"/>
<path d="M38.6051 34.6758H37.8293C36.5487 34.6709 35.4972 35.7175 35.4947 36.9981L35.4849 41.4727C35.4824 42.7533 36.5266 43.8049 37.8096 43.8073H38.5854C39.8659 43.8123 40.9175 42.7656 40.92 41.4851L40.9298 37.0104C40.9323 35.7298 39.8881 34.6783 38.6051 34.6758ZM39.6788 40.6231C39.6788 41.4136 39.105 42.0588 38.4105 42.0564H37.9894C37.2925 42.0539 36.726 41.4062 36.7285 40.6157L36.7359 37.8576C36.7359 37.067 37.3097 36.4218 38.0042 36.4243H38.4253C39.1222 36.4267 39.6886 37.0744 39.6862 37.8649L39.6788 40.6231Z" fill="#9981D0"/>
<path d="M38.4252 36.0107H38.0041C37.3072 36.0083 36.7358 36.6535 36.7358 37.444V37.8577C36.7358 37.0672 37.3072 36.422 38.0041 36.4245H38.4252C39.1222 36.4269 39.6886 37.0746 39.6861 37.8651V37.4514C39.6886 36.6609 39.1222 36.0132 38.4252 36.0132V36.0107Z" fill="#DECEF2"/>
<path d="M38.5854 43.3937H37.8096C36.529 43.3888 35.4824 42.3372 35.4849 41.0566V41.4704C35.48 42.7509 36.5266 43.8025 37.8072 43.805H38.5829C39.8635 43.8099 40.915 42.7633 40.9175 41.4827V41.069C40.9175 42.3495 39.8635 43.3962 38.5829 43.3937H38.5854Z" fill="#DECEF2"/>
<path d="M37.7035 40.3674C37.0509 40.7935 36.8662 41.6776 37.2947 42.3302L39.7401 46.066C40.1661 46.7186 41.0502 46.9033 41.7028 46.4748C42.3554 46.0488 42.5401 45.1647 42.1116 44.5121L39.6662 40.7762C39.2402 40.1236 38.3561 39.9389 37.7035 40.3674Z" fill="#9981D0"/>
<path d="M41.5505 45.7456C40.8979 46.1717 40.0138 45.9894 39.5877 45.3368L37.1423 41.601C37.1152 41.5591 37.0906 41.5148 37.066 41.4705C37.0487 41.7635 37.1202 42.0664 37.2925 42.3299L39.738 46.0658C40.164 46.7184 41.0481 46.9031 41.7007 46.4746C42.3114 46.0756 42.5109 45.2777 42.1858 44.6424C42.1588 45.0758 41.9396 45.492 41.5505 45.7456Z" fill="#8A60A4"/>
<path d="M39.7207 41.4482C40.0926 42.0171 40.1394 42.6475 39.8242 42.8519C39.509 43.0588 38.9499 42.7632 38.5781 42.1944C38.2062 41.6255 38.1594 40.995 38.4746 40.7906C38.7899 40.5838 39.3489 40.8793 39.7207 41.4482Z" fill="#CEA1FE"/>
<path d="M38.6295 35.0701C38.6295 35.2572 38.3364 35.4075 37.9744 35.4075C37.6124 35.4075 37.3193 35.2548 37.3193 35.0676C37.3193 34.8804 37.6124 34.7302 37.9744 34.7302C38.3364 34.7302 38.6295 34.8829 38.6295 35.0701Z" fill="#CEA1FE"/>
<path d="M40.9716 25.217L40.2131 25.0544C38.9596 24.7885 37.7159 25.5938 37.4475 26.8473L36.5142 31.2234C36.2482 32.4769 37.0535 33.7205 38.307 33.989L39.0655 34.1515C40.319 34.4199 41.5626 33.6122 41.831 32.3587L42.7644 27.9825C43.0304 26.7291 42.2251 25.4854 40.9716 25.217ZM40.7967 31.2579C40.6317 32.0312 39.9397 32.5434 39.26 32.3981L38.8463 32.3094C38.1666 32.1641 37.743 31.413 37.908 30.6398L38.4818 27.9431C38.6468 27.1699 39.3388 26.6576 40.0185 26.8029L40.4323 26.8916C41.1119 27.0369 41.5355 27.788 41.3705 28.5613L40.7967 31.2579Z" fill="#9981D0"/>
<path d="M40.5186 26.4853L40.1048 26.3966C39.4251 26.2513 38.7331 26.766 38.5681 27.5368L38.4819 27.9432C38.6469 27.1699 39.3389 26.6577 40.0186 26.803L40.4324 26.8916C41.1121 27.0369 41.5356 27.788 41.3706 28.5613L41.4568 28.155C41.6218 27.3817 41.1982 26.6306 40.5186 26.4853Z" fill="#DECEF2"/>
<path d="M39.1541 33.7426L38.3956 33.58C37.1421 33.3141 36.3344 32.0679 36.6028 30.8145L36.5166 31.2208C36.2506 32.4743 37.0559 33.7179 38.3094 33.9864L39.0679 34.1489C40.3214 34.4173 41.5651 33.6096 41.8335 32.3561L41.9197 31.9497C41.6537 33.2032 40.4076 34.011 39.1541 33.7426Z" fill="#DECEF2"/>
<path d="M39.4497 30.4945C38.6863 30.332 37.9302 30.822 37.7677 31.5855L36.8368 35.9518C36.6743 36.7152 37.1643 37.4712 37.9278 37.6338C38.6912 37.7963 39.4472 37.3062 39.6098 36.5428L40.5406 32.1765C40.7032 31.4131 40.2131 30.6571 39.4497 30.4945Z" fill="#9981D0"/>
<path d="M38.339 37.0134C37.5756 36.8509 37.0855 36.0924 37.2481 35.3314L38.1789 30.9651C38.1888 30.9159 38.2036 30.8666 38.2184 30.8198C37.9967 31.0144 37.8317 31.2779 37.7677 31.5857L36.8368 35.952C36.6743 36.7154 37.1643 37.4715 37.9278 37.634C38.6419 37.7867 39.3487 37.3656 39.5704 36.6883C39.2453 36.974 38.7946 37.1095 38.339 37.0134Z" fill="#8A60A4"/>
<path d="M40.1019 32.6863C40.2437 32.0212 40.06 31.4184 39.6916 31.3398C39.3231 31.2612 38.9094 31.7366 38.7676 32.4017C38.6257 33.0668 38.8094 33.6697 39.1779 33.7483C39.5463 33.8268 39.96 33.3514 40.1019 32.6863Z" fill="#CEA1FE"/>
<path d="M40.915 25.6086C40.8756 25.7909 40.5579 25.8795 40.2033 25.8032C39.8487 25.7268 39.595 25.5175 39.6344 25.3353C39.6738 25.153 39.9915 25.0644 40.3461 25.1407C40.7007 25.2171 40.9544 25.4264 40.915 25.6086Z" fill="#CEA1FE"/>
<path d="M22.9954 75.3083L100.459 92.7963L155.104 80.8256L149.508 79.8357L100.62 89.8266L27.6711 74.2263L22.9954 75.3083Z" fill="#996D53"/>
<g style="mix-blend-mode:screen" opacity="0.5">
<path d="M81.2581 85.6831L100.62 89.8268L116.633 86.5502L100.62 91.515L81.2581 85.6831Z" fill="#DCD9D7"/>
</g>
<path d="M100.459 92.7656V140.188L88.7545 137.142L31.197 122.163L24.375 120.398V76.2061L40.2112 79.6592L100.459 92.7656Z" fill="#B18E6A"/>
<path d="M26.9275 114.282C26.9735 114.528 27.0195 114.773 27.0731 115.011L95.9061 130.535L96.0594 129.867L26.9275 114.282Z" fill="#75624F"/>
<path d="M26.4291 104C26.4138 104.23 26.3908 104.46 26.3755 104.682L96.6035 120.521L96.7568 119.853L26.4291 104Z" fill="#75624F"/>
<path d="M27.3031 94.7147L102.299 111.627C102.291 111.389 102.276 111.159 102.268 110.921L27.3491 94.0317C27.3337 94.2619 27.3184 94.4922 27.2954 94.7224L27.3031 94.7147Z" fill="#75624F"/>
<path d="M30.7139 84.6162C30.6603 84.8311 30.5913 85.0459 30.5146 85.2685L102.72 101.552C102.759 101.329 102.797 101.107 102.835 100.876L30.7139 84.6162Z" fill="#75624F"/>
<g style="mix-blend-mode:screen" opacity="0.26">
<path d="M91.1077 97.8071L34.8302 84.7927C35.6734 88.6142 35.842 92.9037 33.8721 96.2877C32.6687 98.3672 30.5991 100.124 30.4304 102.519C30.3385 103.877 30.8904 105.204 31.6032 106.363C32.3161 107.522 33.1899 108.588 33.8338 109.785C35.0985 112.126 35.4128 114.957 34.6999 117.52C34.4853 118.28 34.1864 119.078 34.401 119.838L86.386 132.722C86.1177 129.553 87.896 126.176 89.9426 123.751C90.7858 122.754 91.6903 121.718 91.9355 120.436C92.1425 119.339 91.8359 118.211 91.4373 117.167C90.5175 114.758 89.0994 112.533 88.4326 110.039C87.2751 105.742 87.9343 100.93 91.1 97.7994L91.1077 97.8071Z" fill="#B18E6A"/>
</g>
<g style="mix-blend-mode:multiply" opacity="0.5">
<path d="M100.459 132.576V140.188L88.7545 137.142L31.197 122.163L24.375 120.39V76.2061L40.2188 79.6515C40.1269 84.7851 40.2955 89.9264 41.4529 94.9142C43.5532 103.938 48.9111 112.049 55.917 118.104C62.9153 124.166 71.4926 128.24 80.4378 130.627C86.9532 132.361 93.7828 133.221 100.467 132.568L100.459 132.576Z" fill="#B18E6A"/>
</g>
<path d="M154.207 80.9102V82.8285C154.153 83.3043 154.115 83.7801 154.115 84.2635V125.532L146.235 127.68L111.359 137.211L102.153 139.72L100.444 140.188V92.7658L110.025 90.6556L154.192 80.9102H154.207Z" fill="#A2855B"/>
<path d="M152.133 109.306L104.374 120.926L104.535 121.589L152.294 109.97L152.133 109.306Z" fill="#654D34"/>
<path d="M152.133 119.022L104.374 130.642L104.535 131.306L152.294 119.686L152.133 119.022Z" fill="#654D34"/>
<path d="M151.753 100.493L103.992 112.104L104.153 112.768L151.914 101.157L151.753 100.493Z" fill="#654D34"/>
<path d="M151.373 91.6676L103.614 103.287L103.775 103.951L151.534 92.3313L151.373 91.6676Z" fill="#654D34"/>
<g style="mix-blend-mode:screen" opacity="0.26">
<path d="M144.197 91.5149C143.047 93.5714 143.721 96.1497 144.71 98.2906C145.699 100.432 146.994 102.542 147.04 104.898C147.079 106.701 146.358 108.435 145.477 110.008C144.595 111.581 143.537 113.055 142.778 114.697C141.291 117.92 140.855 121.687 141.889 125.079C140.586 125.34 139.283 125.593 137.98 125.862C130.269 127.419 122.581 128.885 114.931 130.704C115.276 128.225 114.808 125.639 113.613 123.445C112.455 121.319 110.631 119.523 109.964 117.191C109.588 115.886 109.611 114.474 110.025 113.185C110.508 111.689 111.482 110.4 112.202 109.003C113.866 105.757 114.103 101.813 112.831 98.3904C122.987 95.2519 133.803 93.7325 144.197 91.5149Z" fill="#B18E6A"/>
</g>
<g style="mix-blend-mode:multiply" opacity="0.5">
<path d="M154.123 120.889V125.54L146.243 127.688L111.367 137.219L102.161 139.728C101.586 139.513 101.011 139.26 100.451 138.984V92.7736L110.033 90.6633C110.309 97.2703 111.083 103.916 113.543 110.047C116.272 116.845 121.377 122.984 128.268 125.478C131.825 126.767 135.696 127.028 139.467 126.706C144.787 126.246 150.214 124.465 154.107 120.905L154.123 120.889Z" fill="#A2855B"/>
</g>
<path d="M28.4069 100.646C27.947 101.544 27.5024 102.488 27.4334 103.493C27.3031 105.381 28.4605 107.077 29.4647 108.673C30.9517 111.036 32.2318 113.638 32.4081 116.431C32.5307 118.434 32.0631 120.375 31.197 122.171L24.375 120.398V78.9226C24.8809 78.9993 25.3791 79.1605 25.862 79.3293C27.5867 79.9048 30.1315 79.8281 31.3886 81.1326C33.8414 83.6879 34.0561 87.7318 33.0596 91.1236C32.0555 94.5153 30.0319 97.5003 28.4069 100.646Z" fill="#C5B79F"/>
<g style="mix-blend-mode:screen" opacity="0.5">
<path d="M26.1304 98.4824C25.1339 100.385 25.0113 102.718 25.8085 104.713C26.6516 106.847 28.43 108.489 29.3191 110.591C29.9477 112.072 30.0933 113.799 29.4647 115.28C28.8285 116.761 27.3338 117.897 25.7318 117.858C25.2643 117.858 24.8043 117.743 24.3674 117.582V83.45C25.1569 83.473 26.0308 83.7722 26.8586 84.0638C28.1387 84.5166 29.3498 85.2763 30.1086 86.4119C30.9288 87.6627 31.1281 89.2588 30.8445 90.7245C30.5609 92.1978 29.825 93.556 28.9282 94.7454C27.9854 95.9962 26.8586 97.1089 26.1304 98.4901V98.4824Z" fill="#C5B79F"/>
</g>
<path d="M100.459 96.2034V140.196L88.7546 137.149C88.3867 135.661 88.2947 134.134 88.5553 132.607C89.0229 129.852 90.5866 127.404 92.3189 125.217C93.4917 123.736 94.8254 122.178 94.9021 120.291C94.9404 119.278 94.6108 118.296 94.2505 117.352C92.9781 114.044 91.2995 110.868 90.6632 107.384C90.0347 103.9 90.6939 99.902 93.4074 97.6307C94.7948 96.4643 97.3243 96.8249 99.0949 96.4336C99.5395 96.3415 99.9994 96.2417 100.459 96.211V96.2034Z" fill="#C5B79F"/>
<g style="mix-blend-mode:screen" opacity="0.21">
<path d="M100.459 99.9712V135.016C99.1487 134.909 97.8456 134.31 96.9564 133.328C95.3238 131.533 95.0018 128.77 95.845 126.491C96.4735 124.787 97.6846 123.283 97.9452 121.488C98.3515 118.741 96.4812 116.254 95.3314 113.722C94.0744 110.952 93.6528 107.683 94.7795 104.859C95.6074 102.764 97.9682 100.324 100.459 99.9712Z" fill="#C5B79F"/>
</g>
<path d="M111.367 137.211L100.452 140.188V93.679C100.935 93.702 101.417 93.8094 101.893 93.9092C103.671 94.3005 106.193 93.9399 107.58 95.0986C110.294 97.3623 110.961 101.353 110.34 104.844C109.711 108.328 108.032 111.512 106.768 114.812C106.407 115.756 106.07 116.738 106.116 117.751C106.201 119.639 107.534 121.196 108.707 122.677C110.439 124.864 112.011 127.304 112.478 130.059C112.9 132.499 112.417 134.963 111.359 137.211H111.367Z" fill="#D5C4A7"/>
<g style="mix-blend-mode:screen" opacity="0.5">
<path d="M105.855 128.049C105.932 130.336 105.396 132.868 103.541 134.211C102.651 134.855 101.548 135.108 100.459 135.016V99.9713C100.934 99.8946 101.41 99.9022 101.893 100.002C104.813 100.624 105.741 105.397 105.672 107.821C105.595 110.737 104.637 113.553 103.955 116.393C103.74 117.275 103.556 118.181 103.64 119.078C103.748 120.245 104.284 121.304 104.706 122.401C105.403 124.197 105.802 126.123 105.855 128.049Z" fill="#D5C4A7"/>
</g>
<path d="M154.207 82.0995V82.8285C154.154 83.3042 154.115 83.78 154.115 84.2634V125.532L146.236 127.68C144.335 124.864 143.246 121.542 143.813 118.242C144.281 115.479 145.845 113.039 147.577 110.852C148.75 109.364 150.083 107.806 150.16 105.918C150.198 104.913 149.869 103.931 149.509 102.979C148.236 99.6796 146.557 96.4951 145.921 93.0113C145.293 89.5275 145.952 85.5372 148.665 83.2658C150.014 82.1378 152.444 82.4371 154.207 82.0918V82.0995Z" fill="#D5C4A7"/>
<g style="mix-blend-mode:screen" opacity="0.5">
<path d="M154.123 88.5837V122.086C152.337 122.639 150.168 121.818 149.164 120.199C148.351 118.887 148.236 117.221 148.596 115.725C148.957 114.229 149.746 112.863 150.643 111.612C151.134 110.937 151.655 110.277 152.007 109.517C152.881 107.653 152.59 105.435 151.915 103.486C151.249 101.537 150.214 99.7257 149.578 97.7613C148.949 95.7969 148.757 93.5639 149.739 91.7529C150.359 90.6096 152.391 88.8139 154.1 88.5914L154.123 88.5837Z" fill="#C5B79F"/>
</g>
<path d="M100.459 143.956V138.699L24.3751 118.879L22.9954 120.014V123.452L100.459 143.956Z" fill="#E8E7E2"/>
<path d="M100.459 140.188V145.445L85.1366 141.393L80.0777 140.058L71.738 137.848L64.5251 135.937L42.5415 130.12L39.5827 129.338L35.068 128.141L30.1776 126.852L22.9954 124.949V120.014L34.1175 122.907L39.0155 124.181L43.5456 125.363L46.5197 126.138L68.5723 131.885L75.8082 133.773L84.1785 135.952L89.2452 137.272L100.459 140.188Z" fill="#D5C4A7"/>
<g style="mix-blend-mode:screen" opacity="0.5">
<path d="M39.0154 124.181L35.0678 128.141L30.1775 126.851L34.1174 122.907L39.0154 124.181Z" fill="#D5C4A7"/>
</g>
<g style="mix-blend-mode:screen" opacity="0.5">
<path d="M46.5195 126.138L42.5413 130.12L39.5825 129.338L43.5454 125.363L46.5195 126.138Z" fill="#D5C4A7"/>
</g>
<g style="mix-blend-mode:screen" opacity="0.5">
<path d="M75.808 133.773L71.7378 137.848L64.5249 135.937L68.5721 131.885L75.808 133.773Z" fill="#D5C4A7"/>
</g>
<g style="mix-blend-mode:screen" opacity="0.5">
<path d="M89.2451 137.272L85.1366 141.393L80.0776 140.058L84.1785 135.952L89.2451 137.272Z" fill="#D5C4A7"/>
</g>
<path d="M155.104 125.163V130.197L142.717 133.65L136.754 135.315L124.014 138.868L118.051 140.541L114.54 141.515L105.687 143.986L100.459 145.444V140.188L112.892 136.773L121.707 134.348L125.187 133.389L131.112 131.762L143.783 128.279L149.715 126.652L155.104 125.163Z" fill="#F1ECDA"/>
<path d="M154.207 123.943L155.104 125.163L100.459 140.188V138.699L154.207 123.943Z" fill="#E8E7E2"/>
<g style="mix-blend-mode:screen" opacity="0.5">
<path d="M121.707 134.348L114.54 141.515L105.687 143.986L112.892 136.773L121.707 134.348Z" fill="#F1ECDA"/>
</g>
<g style="mix-blend-mode:screen" opacity="0.5">
<path d="M131.112 131.762L124.014 138.868L118.051 140.541L125.187 133.389L131.112 131.762Z" fill="#F1ECDA"/>
</g>
<g style="mix-blend-mode:screen" opacity="0.5">
<path d="M149.715 126.652L142.717 133.65L136.754 135.315L143.783 128.279L149.715 126.652Z" fill="#F1ECDA"/>
</g>
<path d="M68.097 90.8243L54.4148 87.7703C54.1082 89.3126 52.8587 96.8327 56.2391 100.217C55.9171 100.294 55.7102 100.347 55.7102 100.347C55.7102 100.347 57.2815 101.552 59.7267 101.821C59.742 101.821 59.7574 101.821 59.7727 101.821C59.7957 101.821 59.8187 101.821 59.8417 101.821C59.995 101.836 60.156 101.844 60.3169 101.851C60.3782 101.851 60.4396 101.851 60.5009 101.859C60.5315 101.859 60.5545 101.859 60.5852 101.859C67.1236 101.943 68.0127 94.0933 68.097 90.8013V90.8243Z" fill="#C9801A"/>
<path d="M100.459 92.7964V98.0451L89.6437 95.6356L85.7805 94.7685L70.5805 91.3768L68.1047 90.8243L66.61 90.4866C66.5564 92.029 66.3264 94.3541 65.5139 96.4567C64.7014 98.5592 63.3063 100.439 60.9301 101.045C60.1636 101.237 59.2821 101.306 58.2857 101.199C57.0362 101.068 56.0474 100.654 55.2656 100.04C52.8894 98.1986 52.3988 94.592 52.4602 91.607C52.4908 89.9955 52.6824 88.5759 52.8357 87.7165C52.8511 87.6167 52.8664 87.517 52.8817 87.4326L49.8693 86.7573L42.5491 85.1228L34.4931 83.3272L30.7678 82.5061L22.9954 80.7566V75.3083L35.1906 78.0632L38.9005 78.8996L46.9413 80.7105L54.2461 82.3603L57.4502 83.0817L60.3169 83.7262L69.4691 85.7981L74.9037 87.0259L90.0807 90.4483L93.9439 91.3231L100.459 92.7964Z" fill="#D5C4A7"/>
<g style="mix-blend-mode:screen" opacity="0.5">
<path d="M38.9005 78.8996L34.4854 83.3119L30.7678 82.4909L35.1906 78.0632L38.9005 78.8996Z" fill="#D5C4A7"/>
</g>
<g style="mix-blend-mode:screen" opacity="0.5">
<path d="M54.2462 82.3605L49.8617 86.7498L42.5415 85.1153L46.9413 80.7107L54.2462 82.3605Z" fill="#D5C4A7"/>
</g>
<g style="mix-blend-mode:screen" opacity="0.5">
<path d="M60.3168 83.7339L52.4524 91.607C52.4831 89.9956 52.6747 88.5759 52.828 87.7165L57.4501 83.0894L60.3168 83.7339Z" fill="#D5C4A7"/>
</g>
<g style="mix-blend-mode:screen" opacity="0.5">
<path d="M74.9115 87.026L70.573 91.3692L68.0972 90.8167L66.6025 90.4791C66.5488 92.0215 66.3189 94.3466 65.5063 96.4491L60.9226 101.038C60.1561 101.23 59.2746 101.299 58.2781 101.191C57.0287 101.061 56.0399 100.647 55.2581 100.033L69.4769 85.8059L74.9115 87.0337V87.026Z" fill="#D5C4A7"/>
</g>
<g style="mix-blend-mode:screen" opacity="0.5">
<path d="M93.944 91.323L89.6438 95.6279L85.7729 94.7608L90.0808 90.4482L93.944 91.323Z" fill="#D5C4A7"/>
</g>
<path d="M61.5587 92.1211C61.689 90.7015 60.6542 89.4507 59.2361 89.3126C57.8181 89.1821 56.5687 90.2181 56.4307 91.6377C56.354 92.4818 56.699 93.2645 57.2815 93.794L55.7715 98.3213L60.7768 98.7971L60.2326 94.1316C60.9455 93.7326 61.459 93.0036 61.5433 92.1211H61.5587Z" fill="#5C4927"/>
<g style="mix-blend-mode:screen" opacity="0.5">
<path d="M58.3544 93.9168L56.8521 98.4212L55.7866 98.3215L57.289 93.7941C56.7064 93.2646 56.3538 92.4819 56.4382 91.6301C56.5761 90.2105 57.8255 89.1746 59.2436 89.305C59.4506 89.328 59.6422 89.3664 59.8261 89.4355C58.6227 89.5352 57.6186 90.4944 57.4959 91.7529C57.4193 92.6047 57.7642 93.3874 58.3544 93.9168Z" fill="#5C4927"/>
</g>
<path d="M22.9954 75.3083V76.9812L100.39 94.2774L100.459 92.7964L22.9954 75.3083Z" fill="#EEE6DD"/>
<path d="M155.104 80.8179V85.8594L145.393 88.0387L139.544 89.3432L131.02 91.2616L123.608 92.9267L110.547 95.858L106.017 96.8709L100.459 98.1141V92.8653L112.724 90.1566L117.223 89.1667L130.223 86.3045L137.597 84.6777L146.075 82.813L151.893 81.5315L155.104 80.8179Z" fill="#F1ECDA"/>
<g style="mix-blend-mode:screen" opacity="0.5">
<path d="M117.223 89.1667L110.547 95.8581L106.017 96.871L112.724 90.1566L117.223 89.1667Z" fill="#D5C4A7"/>
</g>
<g style="mix-blend-mode:screen" opacity="0.5">
<path d="M137.597 84.6777L131.02 91.2616L123.608 92.9268L130.223 86.3045L137.597 84.6777Z" fill="#D5C4A7"/>
</g>
<g style="mix-blend-mode:screen" opacity="0.5">
<path d="M151.892 81.5315L145.392 88.0387L139.544 89.3432L146.075 82.813L151.892 81.5315Z" fill="#D5C4A7"/>
</g>
<path d="M100.459 92.7962L100.39 94.2772L155.104 82.1069V80.8254L100.459 92.7962Z" fill="#F3EFE9"/>
<path d="M110.322 126.685C110.922 125.006 111.884 123.467 113.067 122.148C113.922 121.196 114.775 120.129 115.987 119.612C116.365 119.455 116.816 119.399 117.17 119.604C117.725 119.927 117.802 120.657 117.941 121.218C118.106 121.91 118.518 122.471 119.3 122.341C119.981 122.23 120.5 121.711 121.175 121.57C122.336 121.335 123.56 122.086 124.072 123.11C124.613 124.18 124.465 125.647 123.516 126.438C123.163 126.727 122.442 127.013 122.381 127.517C122.321 128.022 122.913 128.317 123.254 128.566C123.778 128.948 124.152 129.474 124.064 130.162C124.01 130.592 123.779 130.973 123.508 131.308C121.822 133.333 118.853 133.381 116.466 133.779" fill="#5CAA27"/>
<path d="M109.907 127.143C110.358 126.542 112.303 123.953 113.924 122.843C114.988 122.102 115.487 122.3 115.602 122.351C115.773 122.423 115.943 122.548 116.087 122.751C116.259 122.99 116.324 123.272 116.409 123.549C116.523 123.926 116.695 124.386 117.098 124.518C117.356 124.605 117.643 124.518 117.903 124.394C118.202 124.263 118.494 124.091 118.8 123.99C120.19 123.533 121.482 124.963 121.41 126.278C121.38 126.777 121.17 127.268 120.782 127.595C120.575 127.771 120.336 127.891 120.139 128.065C119.988 128.21 119.919 128.339 119.912 128.466C119.861 129.074 120.966 129.532 121.11 130.061C121.287 130.708 119.984 131.894 115.522 134.045" fill="#6CB837"/>
<path d="M114.6 130.046C113.001 127.836 110.74 126.164 108.179 125.713C105.074 125.158 101.903 126.221 99.1768 127.639C90.7618 132.021 83.8739 139.058 79.7408 147.608C79.3042 148.5 78.8936 149.419 78.5134 150.332C77.7055 152.292 76.5808 155.331 77.9978 157.303C79.5427 159.45 83.3869 158.887 85.6062 158.543C89.9862 157.876 94.2212 156.346 98.3414 154.764C104.901 152.24 111.768 148.418 115.562 142.251C117.969 138.356 117.184 133.618 114.6 130.046Z" fill="#FE8D0C"/>
<path d="M93.1618 137.727C94.0007 137.082 94.3357 136.109 93.91 135.554C93.4844 134.999 92.4592 135.072 91.6203 135.716C90.7814 136.361 90.4464 137.334 90.872 137.889C91.2977 138.444 92.3228 138.371 93.1618 137.727Z" fill="#FD9F30"/>
<path d="M99.4634 134.214C101.135 133.276 102.052 131.735 101.513 130.772C100.974 129.809 99.182 129.789 97.5107 130.727C95.8395 131.666 94.9217 133.207 95.4609 134.17C96.0002 135.133 97.7921 135.152 99.4634 134.214Z" fill="#FD9F30"/>
<path d="M14.362 112.31C13.9099 111.045 13.1847 109.885 12.2934 108.891C11.649 108.173 11.0056 107.369 10.0928 106.98C9.80739 106.861 9.46776 106.82 9.20109 106.974C8.78292 107.217 8.72458 107.767 8.61965 108.19C8.49568 108.712 8.18533 109.134 7.59575 109.036C7.08236 108.953 6.69147 108.561 6.18248 108.455C5.30778 108.279 4.38529 108.844 3.99991 109.616C3.59197 110.423 3.70356 111.528 4.41853 112.124C4.68489 112.341 5.22816 112.557 5.27356 112.937C5.31896 113.318 4.87325 113.54 4.61595 113.728C4.22093 114.015 3.9393 114.412 4.00551 114.931C4.04593 115.255 4.21997 115.541 4.42421 115.794C5.69531 117.32 7.93233 117.357 9.73154 117.656" fill="#5CAA27"/>
<path d="M14.6746 112.655C14.335 112.202 12.869 110.251 11.6471 109.415C10.8457 108.857 10.4694 109.005 10.383 109.044C10.254 109.098 10.1254 109.192 10.017 109.345C9.88744 109.526 9.83879 109.738 9.7749 109.947C9.68873 110.231 9.5589 110.577 9.25531 110.677C9.06103 110.742 8.84448 110.677 8.64903 110.584C8.4231 110.485 8.20304 110.355 7.97272 110.279C6.92484 109.935 5.95133 111.012 6.00579 112.003C6.02833 112.379 6.18626 112.75 6.47869 112.996C6.63487 113.129 6.81509 113.219 6.96365 113.35C7.07705 113.459 7.12949 113.556 7.13476 113.652C7.17313 114.11 6.34031 114.456 6.23216 114.854C6.0988 115.342 7.08072 116.235 10.4432 117.857" fill="#6CB837"/>
<path d="M11.1379 114.843C12.3429 113.178 14.0468 111.917 15.9767 111.578C18.3168 111.159 20.7069 111.96 22.7612 113.029C29.1029 116.332 34.2938 121.634 37.4085 128.078C37.7376 128.751 38.047 129.443 38.3335 130.131C38.9423 131.608 39.7899 133.898 38.7221 135.385C37.5578 137.002 34.6608 136.578 32.9882 136.318C29.6874 135.816 26.4958 134.663 23.3908 133.471C18.447 131.568 13.2724 128.688 10.4128 124.041C8.59885 121.106 9.19034 117.535 11.1379 114.843Z" fill="#FE8D0C"/>
<path d="M27.2942 120.632C26.662 120.146 26.4095 119.413 26.7303 118.994C27.0511 118.576 27.8236 118.631 28.4559 119.116C29.0881 119.602 29.3405 120.335 29.0198 120.754C28.699 121.172 27.9264 121.117 27.2942 120.632Z" fill="#FD9F30"/>
<path d="M22.545 117.984C21.2855 117.277 20.5939 116.116 21.0003 115.39C21.4066 114.664 22.7571 114.649 24.0166 115.356C25.2761 116.064 25.9677 117.225 25.5613 117.951C25.155 118.676 23.8045 118.691 22.545 117.984Z" fill="#FD9F30"/>
<defs>
<radialGradient id="paint0_radial_2173_5377" cx="0" cy="0" r="1" gradientUnits="userSpaceOnUse" gradientTransform="translate(78.7839 67.8348) rotate(-96.064) scale(58.9162 46.8341)">
<stop stop-color="#4FC3F7"/>
<stop offset="1" stop-color="#1E88E5"/>
</radialGradient>
<linearGradient id="paint1_linear_2173_5377" x1="76.2378" y1="30.393" x2="78.3925" y2="67.834" gradientUnits="userSpaceOnUse">
<stop stop-color="#B5E6FC"/>
<stop offset="1" stop-color="#93DAFA"/>
</linearGradient>
<radialGradient id="paint2_radial_2173_5377" cx="0" cy="0" r="1" gradientUnits="userSpaceOnUse" gradientTransform="translate(113.795 42.1141) rotate(-68.2875) scale(20.6015 39.3276)">
<stop stop-color="#FFCC29"/>
<stop offset="1" stop-color="#FFBF0D"/>
</radialGradient>
<radialGradient id="paint3_radial_2173_5377" cx="0" cy="0" r="1" gradientUnits="userSpaceOnUse" gradientTransform="translate(114.33 39.6997) rotate(102.501) scale(56.0611 65.9542)">
<stop stop-color="#F5E49C"/>
<stop offset="0.825" stop-color="#F3C84E"/>
<stop offset="1" stop-color="#F2C23E"/>
</radialGradient>
</defs>
</svg>
