<svg width="180" height="179" viewBox="0 0 180 179" fill="none" xmlns="http://www.w3.org/2000/svg">
<g id="Reading" clip-path="url(#clip0_2675_17278)">
<path id="Vector" d="M180 0H0V180H180V0Z" fill="#BAE0BA"/>
<g id="Group">
<path id="Vector_2" d="M128.25 72.0802C131.27 88.5582 134.252 105.048 137.206 121.54C137.136 122.006 135.178 122.986 134.666 123.38C125.066 130.774 118.242 143.828 114.162 155.05C114.034 155.402 113.826 155.668 113.972 156.088C113.736 156.256 113.582 156.6 113.224 156.65L102.004 94.9202C106.876 81.6442 113.576 67.1522 125.928 59.3242C126.708 63.5722 127.47 67.8322 128.248 72.0822L128.25 72.0802Z" fill="#FFFAF5"/>
<path id="Vector_3" d="M56.922 104.176C60.102 122.082 63.3221 140.008 66.6841 157.88C67.0041 159.582 71.27 161.22 68.642 163.348C68.512 163.454 67.774 163.858 67.974 163.81L102.24 157.588C102.516 157.502 105.308 155.696 105.45 155.534C105.696 155.256 105.392 154.77 105.386 154.46C107.462 154.96 109.56 155.442 111.634 156.088C112.09 156.23 112.608 156.792 113.224 156.65C113.582 156.602 113.738 156.258 113.972 156.088C114.334 155.828 114.604 155.5 114.888 155.284C116.496 154.062 118.144 152.954 119.79 151.842C119.896 152.132 119.778 152.698 120.108 152.87C120.398 153.02 123.466 153.684 123.834 153.664L158.098 147.432C158.302 147.406 153.794 147.828 153.786 147.66C153.7 146.028 157.52 143.132 157.22 141.426C154.078 123.514 150.782 105.6 147.458 87.7218C149.288 87.7758 154.09 85.4538 154.892 87.7638C158.672 108.978 162.816 130.176 166.312 151.41C166.106 152.076 165.582 152.49 164.888 152.582L123.726 160.05C120.152 159.882 116.83 158.26 113.322 157.694C110.404 159.574 107.792 162.156 104.586 163.528L62.6881 171.05C62.05 170.922 61.5401 170.45 61.4021 169.79L49.994 107.022C49.896 106.408 50.248 105.514 50.856 105.282C52.494 104.654 55.1621 104.732 56.9201 104.174L56.922 104.176Z" fill="#326032"/>
<path id="Vector_4" d="M128.25 72.0801C131.216 70.7841 134.372 70.0241 137.566 69.5361C138.18 72.8941 138.78 76.2641 139.398 79.6201C142.604 97.0321 145.702 114.472 148.898 131.886C135.628 133.954 123.742 143.02 115.838 153.514C115.466 154.008 114.908 154.64 114.888 155.284C114.604 155.5 114.334 155.828 113.972 156.088C113.824 155.67 114.034 155.402 114.162 155.05C118.244 143.828 125.068 130.774 134.666 123.38C135.176 122.986 137.134 122.006 137.206 121.54C134.252 105.05 131.27 88.5581 128.25 72.0801Z" fill="#FFF8F0"/>
<path id="Vector_5" d="M61.824 93.7207C64.95 111.147 68.188 128.563 71.322 145.987C84.074 143.333 97.234 147.249 108.212 153.625C109.344 154.283 110.858 155.069 111.632 156.089C109.558 155.443 107.462 154.961 105.384 154.461C92.46 151.347 79.084 152.073 66.888 157.845L66.682 157.883C63.322 140.011 60.102 122.083 56.92 104.179C56.446 101.515 55.92 98.8487 55.494 96.1767C57.528 95.2167 59.618 94.2127 61.822 93.7227L61.824 93.7207Z" fill="#FCEFDE"/>
<path id="Vector_6" d="M139.398 79.6204C141.582 79.3224 143.804 79.5284 145.98 79.7284C146.522 82.3784 146.966 85.0604 147.46 87.7204C150.784 105.6 154.078 123.514 157.222 141.424L157.016 141.462C143.554 140.232 130.8 144.406 119.79 151.842C118.144 152.954 116.498 154.062 114.888 155.284C114.908 154.638 115.466 154.008 115.838 153.514C123.742 143.022 135.628 133.954 148.898 131.886C145.7 114.474 142.602 97.0324 139.398 79.6204Z" fill="#FCEFDE"/>
<path id="Vector_7" d="M101.678 94.23C89.5841 86.156 74.7501 80.386 59.9901 83.636C60.5961 86.994 61.2221 90.36 61.8241 93.72C64.9501 111.146 68.1881 128.562 71.3221 145.986C84.0741 143.332 97.2341 147.248 108.212 153.624C109.344 154.282 110.858 155.068 111.632 156.088C112.088 156.23 112.606 156.792 113.222 156.65L102.002 94.92L101.676 94.23H101.678Z" fill="#FFF8F0"/>
<path id="Vector_8" d="M157.22 141.424L158.304 147.392L123.834 153.662C123.466 153.684 120.396 153.018 120.108 152.868C119.778 152.698 119.894 152.13 119.79 151.84C130.8 144.404 143.758 140.194 157.22 141.424Z" fill="#558255"/>
<path id="Vector_9" d="M105.386 154.46C105.39 154.768 105.696 155.256 105.45 155.534C105.308 155.696 102.516 157.502 102.24 157.588L67.7681 163.848L66.6841 157.88C78.8801 152.108 92.4641 151.346 105.386 154.46Z" fill="#558255"/>
</g>
<g id="Group_2" opacity="0.76">
<path id="Vector_10" d="M55.93 70.876C67.0321 72.564 78.14 74.252 89.2421 75.94L89.2201 76.078L22.7321 65.97L22.7541 65.832L55.9281 70.876H55.93Z" fill="#E8ECE5"/>
<path id="Vector_11" d="M98.731 26.485L91.4451 74.4346L91.5835 74.4556L98.8694 26.506L98.731 26.485Z" fill="#D3D8CD"/>
<path id="Vector_12" d="M94.292 24.118L86.98 72.204C78.318 68.236 69.066 66.798 59.588 67.26C58.73 67.302 57.158 67.65 56.432 67.56C58.86 51.59 60.872 35.102 63.77 19.258C63.818 18.996 63.836 18.732 64.028 18.526C64.68 18.64 66.098 18.332 66.864 18.294C75.436 17.884 83.636 18.888 91.66 22.064C92.076 22.228 94.138 23.018 94.292 23.194C94.5 23.432 94.314 23.838 94.292 24.116V24.118ZM76.202 26.64C74.906 26.502 67.102 26.096 66.446 26.728C66.108 27.054 66.046 27.96 66.61 28.112C72.306 27.796 77.93 28.16 83.452 29.702C84.294 29.938 87.462 31.184 88.012 31.012C88.358 30.904 88.488 30.278 88.43 29.966C88.342 29.496 85.986 28.786 85.436 28.61C82.51 27.674 79.256 26.966 76.202 26.642V26.64ZM74.28 33.698C72.398 33.516 67.524 33.27 65.822 33.714C64.914 33.95 64.882 34.894 65.656 35.316C72.698 34.698 79.824 35.652 86.428 38.19C87.14 38.33 87.692 37.56 87.252 36.964C86.894 36.48 83.41 35.442 82.614 35.222C79.962 34.49 77.022 33.96 74.278 33.696L74.28 33.698ZM85.946 45.29C86.524 44.882 86.372 44.158 85.784 43.816C85.002 43.362 82.76 42.724 81.798 42.454C78.172 41.434 73.848 40.774 70.084 40.672C68.778 40.636 66.002 40.592 64.81 40.846C63.756 41.07 63.806 42.342 64.69 42.504C65.186 42.594 66.892 42.31 67.6 42.302C73.022 42.234 77.566 42.898 82.762 44.444C83.4 44.634 85.512 45.594 85.944 45.29H85.946ZM63.24 48.128C62.95 48.344 62.798 49.18 63.15 49.424C63.65 49.772 67.138 49.406 68.052 49.412C71.578 49.438 75.43 49.918 78.858 50.754C80.44 51.14 82.708 52.214 84.122 52.412C84.584 52.478 85.078 52.462 85.222 51.912C85.46 51.01 84.232 50.78 83.63 50.554C79.052 48.846 73.596 47.932 68.72 47.816C67.968 47.798 63.602 47.86 63.242 48.128H63.24ZM71.854 55.242C69.432 54.986 64.914 54.694 62.588 55.16C61.658 55.346 61.54 56.492 62.408 56.73C63.114 56.922 65.826 56.576 66.824 56.58C70.87 56.594 75.35 57.222 79.246 58.322C80.35 58.634 82.19 59.508 83.17 59.622C84.14 59.734 84.494 58.644 83.776 58.18C83.104 57.746 80.902 57.142 80.028 56.888C77.368 56.116 74.612 55.534 71.854 55.242Z" fill="#FBEEDD"/>
<path id="Vector_13" d="M64.03 18.5258C63.838 18.7318 63.82 18.9958 63.772 19.2578C60.874 35.1018 58.8621 51.5898 56.4341 67.5598C56.2901 67.5418 56.0641 67.3958 55.9021 67.3378C55.8961 66.8878 55.298 66.5178 54.98 66.2378C49.926 61.7978 42.8981 58.0118 36.2201 56.8458C35.4921 56.7178 34.786 56.6518 34.05 56.6638C36.268 42.2998 38.374 27.9118 40.604 13.5518C40.722 12.7898 41.3461 7.96177 41.548 7.74777C41.7281 7.55777 44.4361 8.02977 44.8921 8.12577C50.7201 9.33377 56.33 12.4418 60.966 16.0578C61.578 16.5338 63.534 18.4398 64.032 18.5278L64.03 18.5258ZM43.796 18.3058C43.034 18.4178 43.004 19.6358 43.766 19.8758C49.016 21.1298 53.8981 23.5978 58.1821 26.8258C59.23 27.0338 59.752 26.2178 58.93 25.4098C56.398 22.9198 49.398 19.7138 45.946 18.7638C45.46 18.6298 44.21 18.2458 43.798 18.3058H43.796ZM42.7041 25.4898C42.064 25.5798 41.87 26.6198 42.486 26.9518C46.418 27.9058 50.112 29.4718 53.556 31.5698C54.436 32.1058 56.408 33.7298 57.116 33.9878C58.012 34.3138 58.6041 33.2858 57.9781 32.6098C57.6041 32.2078 56.1421 31.2938 55.5901 30.9298C53.0981 29.2818 50.33 27.8378 47.522 26.8038C46.556 26.4478 43.558 25.3678 42.702 25.4878L42.7041 25.4898ZM41.612 32.6758C40.984 32.7638 40.748 33.7718 41.428 34.1138C46.766 35.4078 51.69 37.8778 56.06 41.1538C56.672 41.4258 57.2621 40.8218 57.1761 40.2058C57.1241 39.8358 54.49 38.0798 53.9881 37.7578C51.5301 36.1798 48.7701 34.7858 46.01 33.8098C45.058 33.4738 42.482 32.5538 41.61 32.6758H41.612ZM55.806 48.2038C56.338 47.8138 56.042 47.1858 55.672 46.8278C53.026 44.2638 45.992 41.0878 42.412 40.1398C41.66 39.9418 40.424 39.3738 40.032 40.2138C39.454 41.4518 41.828 41.6198 42.572 41.8618C45.656 42.8718 48.482 44.0978 51.254 45.7818C52.078 46.2818 54.536 48.1958 55.186 48.2918C55.346 48.3158 55.68 48.2958 55.806 48.2038ZM54.9901 55.4298C55.3341 55.1758 55.384 54.4818 55.074 54.1378C54.702 53.7238 53.172 52.7598 52.612 52.3918C49.436 50.3038 44.266 47.6958 40.536 47.0358C39.382 46.8318 38.77 47.4258 39.512 48.4098C43.426 49.4278 47.1241 50.9338 50.576 53.0318C51.35 53.5018 53.924 55.4718 54.5 55.5278C54.63 55.5398 54.8881 55.5078 54.9901 55.4318V55.4298Z" fill="#FEF9F4"/>
<path id="Vector_14" d="M40.602 13.5518C38.372 27.9138 36.266 42.3018 34.048 56.6638C34.784 56.6498 35.49 56.7178 36.218 56.8458C42.896 58.0098 49.922 61.7978 54.978 66.2378C55.296 66.5178 55.896 66.8878 55.9 67.3378C47.802 64.3898 41.952 62.5518 33.114 62.4838C30.698 62.4658 28.28 62.6598 25.884 62.9158L33.194 14.8298C33.262 14.5018 33.184 14.0118 33.57 13.9238L40.6 13.5518H40.602Z" fill="#FBEEDD"/>
<path id="Vector_15" d="M33.196 14.8279L25.886 62.914C28.282 62.658 30.7 62.464 33.116 62.4819C41.952 62.5499 47.804 64.388 55.902 67.3359C56.064 67.396 56.29 67.54 56.434 67.558L55.93 70.874L22.756 65.83C21.852 65.736 20.89 64.8619 20.92 63.928L28.252 15.6979C29.134 13.6079 31.494 14.6719 33.196 14.8259V14.8279Z" fill="#558255"/>
<path id="Vector_16" d="M98.7399 26.4902L91.4499 74.4382C91.1679 75.5042 90.2999 75.9842 89.2419 75.9402C78.1399 74.2522 67.0319 72.5642 55.9299 70.8762L56.4339 67.5602C57.1579 67.6522 58.7319 67.3022 59.5899 67.2602C69.0679 66.7982 78.3199 68.2362 86.9819 72.2042L94.2939 24.1182C96.0019 24.4802 98.5659 24.1702 98.7419 26.4902H98.7399Z" fill="#326032"/>
<path id="Vector_17" d="M76.202 26.6397C79.256 26.9637 82.51 27.6717 85.436 28.6077C85.986 28.7837 88.342 29.4917 88.43 29.9637C88.488 30.2757 88.358 30.8997 88.012 31.0097C87.462 31.1817 84.294 29.9357 83.452 29.6997C77.93 28.1577 72.306 27.7937 66.61 28.1097C66.046 27.9597 66.106 27.0537 66.446 26.7257C67.1 26.0937 74.906 26.4997 76.202 26.6377V26.6397Z" fill="#F3BA69"/>
<path id="Vector_18" d="M71.854 55.2415C74.612 55.5335 77.368 56.1135 80.028 56.8875C80.904 57.1415 83.104 57.7455 83.776 58.1795C84.494 58.6415 84.14 59.7335 83.17 59.6215C82.19 59.5095 80.35 58.6335 79.246 58.3215C75.35 57.2215 70.872 56.5935 66.824 56.5795C65.826 56.5755 63.112 56.9215 62.408 56.7295C61.54 56.4935 61.658 55.3475 62.588 55.1595C64.914 54.6915 69.434 54.9855 71.854 55.2415Z" fill="#F3BA69"/>
<path id="Vector_19" d="M74.28 33.698C77.022 33.962 79.962 34.494 82.616 35.224C83.412 35.444 86.896 36.482 87.254 36.966C87.692 37.56 87.142 38.332 86.43 38.192C79.824 35.652 72.7 34.7 65.658 35.318C64.884 34.896 64.916 33.952 65.824 33.716C67.526 33.272 72.4 33.518 74.282 33.7L74.28 33.698Z" fill="#F3B968"/>
<path id="Vector_20" d="M63.24 48.1274C63.6 47.8594 67.966 47.7974 68.718 47.8154C73.594 47.9314 79.052 48.8454 83.628 50.5534C84.232 50.7794 85.458 51.0094 85.22 51.9114C85.074 52.4594 84.58 52.4754 84.12 52.4114C82.706 52.2114 80.438 51.1374 78.856 50.7534C75.43 49.9174 71.576 49.4374 68.05 49.4114C67.136 49.4054 63.648 49.7714 63.148 49.4234C62.798 49.1794 62.948 48.3434 63.238 48.1274H63.24Z" fill="#F3B968"/>
<path id="Vector_21" d="M85.946 45.2894C85.514 45.5934 83.402 44.6334 82.764 44.4434C77.568 42.8974 73.024 42.2334 67.602 42.3014C66.894 42.3094 65.19 42.5954 64.692 42.5034C63.808 42.3434 63.756 41.0714 64.812 40.8454C66.004 40.5914 68.778 40.6374 70.086 40.6714C73.85 40.7734 78.174 41.4314 81.8 42.4534C82.762 42.7234 85.004 43.3614 85.786 43.8154C86.374 44.1574 86.526 44.8814 85.948 45.2894H85.946Z" fill="#F3B968"/>
<path id="Vector_22" d="M54.99 55.4301C54.888 55.5061 54.63 55.5382 54.5 55.5262C53.922 55.4702 51.35 53.5001 50.576 53.0301C47.122 50.9321 43.426 49.4261 39.512 48.4081C38.77 47.4241 39.382 46.8302 40.536 47.0342C44.266 47.6942 49.436 50.3022 52.612 52.3902C53.172 52.7582 54.704 53.7241 55.074 54.1361C55.384 54.4801 55.334 55.1742 54.99 55.4282V55.4301Z" fill="#F5C884"/>
<path id="Vector_23" d="M42.704 25.4897C43.56 25.3697 46.558 26.4497 47.524 26.8057C50.332 27.8397 53.1 29.2837 55.592 30.9317C56.144 31.2957 57.606 32.2097 57.98 32.6117C58.606 33.2857 58.014 34.3157 57.118 33.9897C56.41 33.7317 54.436 32.1057 53.558 31.5717C50.114 29.4737 46.418 27.9077 42.488 26.9537C41.872 26.6197 42.066 25.5817 42.706 25.4917L42.704 25.4897Z" fill="#F5C884"/>
<path id="Vector_24" d="M55.806 48.2035C55.68 48.2955 55.346 48.3155 55.186 48.2915C54.536 48.1955 52.078 46.2835 51.254 45.7815C48.48 44.0975 45.656 42.8715 42.572 41.8615C41.828 41.6175 39.454 41.4495 40.032 40.2135C40.424 39.3735 41.66 39.9415 42.412 40.1395C45.994 41.0875 53.028 44.2635 55.672 46.8275C56.042 47.1875 56.338 47.8135 55.806 48.2035Z" fill="#F5C884"/>
<path id="Vector_25" d="M41.612 32.6755C42.484 32.5515 45.06 33.4735 46.012 33.8095C48.772 34.7835 51.5321 36.1795 53.9901 37.7575C54.4921 38.0795 57.1261 39.8355 57.1781 40.2055C57.2641 40.8235 56.6741 41.4275 56.062 41.1535C51.692 37.8775 46.768 35.4075 41.43 34.1135C40.75 33.7715 40.9861 32.7635 41.6141 32.6755H41.612Z" fill="#F5C884"/>
<path id="Vector_26" d="M43.796 18.3061C44.208 18.2461 45.458 18.6301 45.944 18.7641C49.396 19.7121 56.398 22.9201 58.928 25.4101C59.75 26.2181 59.23 27.0341 58.18 26.8261C53.896 23.6001 49.014 21.1301 43.764 19.8761C43.002 19.6361 43.032 18.4181 43.794 18.3061H43.796Z" fill="#F5C884"/>
</g>
<g id="Group_3">
<path id="Vector (Stroke)" fill-rule="evenodd" clip-rule="evenodd" d="M67.8426 91.3618C67.8605 90.8651 68.2777 90.4769 68.7744 90.4947C78.3011 90.8373 89.6433 94.4061 99.2161 101.972C99.6061 102.28 99.6724 102.846 99.3641 103.236C99.0559 103.626 98.49 103.692 98.1 103.384C88.8408 96.0662 77.871 92.623 68.7097 92.2936C68.213 92.2757 67.8248 91.8585 67.8426 91.3618Z" fill="#F4D2A8"/>
<path id="Vector (Stroke)_2" fill-rule="evenodd" clip-rule="evenodd" d="M99.8419 114.094C90.3772 107.034 79.8882 103.769 70.681 103.779C70.1839 103.779 69.7806 103.377 69.78 102.879C69.7795 102.382 70.182 101.979 70.6791 101.979C80.2999 101.968 91.1628 105.375 100.918 112.651C101.317 112.948 101.399 113.512 101.101 113.911C100.804 114.309 100.24 114.391 99.8419 114.094Z" fill="#F4D2A8"/>
<path id="Vector (Stroke)_3" fill-rule="evenodd" clip-rule="evenodd" d="M101.584 124.805C91.9134 118.002 81.9075 114.914 72.6518 115.262C72.1551 115.281 71.7373 114.893 71.7187 114.396C71.7 113.9 72.0876 113.482 72.5843 113.463C82.2966 113.099 92.6827 116.343 102.62 123.332C103.026 123.618 103.124 124.18 102.838 124.586C102.552 124.993 101.991 125.091 101.584 124.805Z" fill="#F4D2A8"/>
<path id="Vector (Stroke)_4" fill-rule="evenodd" clip-rule="evenodd" d="M103.327 135.514C93.4496 128.972 83.9268 126.061 74.622 126.745C74.1263 126.782 73.6949 126.409 73.6585 125.914C73.622 125.418 73.9944 124.987 74.4901 124.95C84.2893 124.23 94.2025 127.312 104.321 134.013C104.735 134.288 104.849 134.846 104.574 135.261C104.3 135.675 103.741 135.789 103.327 135.514Z" fill="#F4D2A8"/>
<path id="Vector (Stroke)_5" fill-rule="evenodd" clip-rule="evenodd" d="M105.07 146.222C94.984 139.941 85.9479 137.205 76.5896 138.227C76.0955 138.281 75.6512 137.924 75.5973 137.43C75.5434 136.935 75.9002 136.491 76.3944 136.437C86.2801 135.359 95.72 138.279 106.022 144.694C106.444 144.957 106.573 145.512 106.31 145.934C106.047 146.356 105.492 146.485 105.07 146.222Z" fill="#F4D2A8"/>
</g>
<g id="Group_4">
<path id="Vector (Stroke)_6" fill-rule="evenodd" clip-rule="evenodd" d="M125.815 73.1584C125.998 73.6204 125.772 74.1435 125.31 74.3267C116.846 77.6826 111.01 86.9062 106.395 99.962C106.229 100.431 105.715 100.676 105.246 100.511C104.777 100.345 104.532 99.8308 104.697 99.3621C109.334 86.246 115.394 76.3216 124.646 72.6534C125.108 72.4702 125.631 72.6963 125.815 73.1584Z" fill="#F9DCB9"/>
<path id="Vector (Stroke)_7" fill-rule="evenodd" clip-rule="evenodd" d="M127.607 84.1525C127.778 84.6193 127.538 85.1362 127.071 85.307C123.091 86.7634 119.532 89.9485 116.44 94.3779C113.352 98.8021 110.773 104.409 108.737 110.601C108.582 111.073 108.073 111.33 107.601 111.175C107.129 111.019 106.872 110.511 107.027 110.039C109.099 103.738 111.746 97.9584 114.964 93.3477C118.179 88.742 122.005 85.2442 126.453 83.6166C126.92 83.4458 127.436 83.6857 127.607 84.1525Z" fill="#F9DCB9"/>
<path id="Vector (Stroke)_8" fill-rule="evenodd" clip-rule="evenodd" d="M129.402 95.1488C129.559 95.6206 129.303 96.13 128.832 96.2866C125.099 97.5262 121.555 100.757 118.472 105.249C115.401 109.724 112.854 115.357 111.08 121.236C110.936 121.712 110.434 121.982 109.958 121.838C109.482 121.694 109.213 121.192 109.356 120.716C111.172 114.7 113.791 108.889 116.988 104.23C120.173 99.5882 123.999 95.9948 128.264 94.5783C128.736 94.4217 129.245 94.6771 129.402 95.1488Z" fill="#F9DCB9"/>
<path id="Vector (Stroke)_9" fill-rule="evenodd" clip-rule="evenodd" d="M131.195 106.15C131.336 106.627 131.063 107.127 130.586 107.268C127.105 108.292 123.578 111.562 120.503 116.12C117.449 120.646 114.935 126.305 113.423 131.87C113.292 132.35 112.798 132.633 112.318 132.503C111.838 132.372 111.555 131.878 111.686 131.398C113.245 125.662 115.836 119.819 119.011 115.113C122.165 110.438 125.991 106.744 130.078 105.541C130.555 105.4 131.055 105.673 131.195 106.15Z" fill="#F9DCB9"/>
<path id="Vector (Stroke)_10" fill-rule="evenodd" clip-rule="evenodd" d="M132.987 117.158C133.108 117.64 132.816 118.129 132.334 118.25C129.108 119.063 125.601 122.365 122.532 126.992C119.494 131.571 117.015 137.252 115.763 142.501C115.648 142.984 115.163 143.283 114.679 143.167C114.196 143.052 113.897 142.566 114.013 142.083C115.315 136.625 117.88 130.749 121.032 125.997C124.153 121.292 127.982 117.49 131.894 116.505C132.376 116.384 132.865 116.676 132.987 117.158Z" fill="#F9DCB9"/>
</g>
</g>
<defs>
<clipPath id="clip0_2675_17278">
<rect width="180" height="180" fill="white"/>
</clipPath>
</defs>
</svg>
