<svg width="600" height="600" viewBox="0 0 600 600" fill="none" xmlns="http://www.w3.org/2000/svg">
<path d="M366.187 48.2705L362.957 49.3556C362.79 49.0418 362.557 48.7634 362.259 48.5205C361.967 48.2761 361.608 48.106 361.181 48.0104C360.753 47.9147 360.259 47.9283 359.697 48.0512C358.942 48.2165 358.343 48.5192 357.9 48.9594C357.463 49.3982 357.305 49.8775 357.426 50.3975C357.518 50.8469 357.761 51.1754 358.157 51.383C358.559 51.5892 359.171 51.697 359.993 51.7063L362.743 51.693C364.269 51.6883 365.461 51.9494 366.319 52.4763C367.183 53.0016 367.74 53.8151 367.988 54.9167C368.193 55.8875 368.096 56.8054 367.697 57.6703C367.303 58.5271 366.657 59.271 365.758 59.9019C364.859 60.5329 363.768 60.9888 362.485 61.2697C360.599 61.6822 358.996 61.6198 357.673 61.0825C356.349 60.5386 355.422 59.5821 354.891 58.2131L358.356 57.0976C358.669 57.7578 359.125 58.208 359.724 58.4482C360.323 58.6884 361.04 58.7171 361.876 58.5343C362.738 58.3456 363.391 58.017 363.835 57.5486C364.286 57.0787 364.454 56.5831 364.34 56.0616C364.243 55.6204 363.993 55.2934 363.589 55.0805C363.192 54.8662 362.622 54.7597 361.88 54.761L359.132 54.7843C357.587 54.8 356.381 54.5211 355.513 53.9475C354.643 53.3671 354.089 52.5147 353.85 51.3901C353.636 50.4423 353.713 49.5637 354.083 48.7543C354.457 47.9368 355.071 47.2352 355.923 46.6493C356.781 46.0553 357.825 45.6238 359.055 45.3546C360.86 44.9597 362.365 45.0333 363.569 45.5753C364.78 46.1159 365.653 47.0143 366.187 48.2705Z" fill="#69B8FF"/>
<path d="M346.636 64.737C345.092 65.0749 343.688 65.0458 342.425 64.6498C341.166 64.2456 340.107 63.5177 339.246 62.466C338.384 61.4077 337.777 60.073 337.424 58.4619C337.078 56.8775 337.074 55.4211 337.414 54.0928C337.759 52.7564 338.404 51.6347 339.347 50.7278C340.289 49.8141 341.495 49.1964 342.966 48.8746C343.915 48.6669 344.845 48.6247 345.754 48.7479C346.669 48.8629 347.52 49.1671 348.308 49.6603C349.102 50.152 349.794 50.8483 350.383 51.7491C350.971 52.6432 351.413 53.7655 351.708 55.1159L351.952 56.229L339.327 58.9914L338.791 56.5446L347.937 54.5436C347.778 53.8498 347.492 53.2643 347.079 52.7872C346.665 52.3033 346.16 51.9621 345.563 51.7635C344.973 51.5633 344.33 51.5393 343.635 51.6915C342.893 51.8538 342.28 52.177 341.798 52.6608C341.314 53.138 340.978 53.7018 340.791 54.3521C340.61 54.9944 340.591 55.6605 340.735 56.3505L341.202 58.4864C341.398 59.3822 341.73 60.1152 342.198 60.6853C342.665 61.2487 343.229 61.6365 343.892 61.8488C344.554 62.0543 345.279 62.0708 346.068 61.8982C346.596 61.7826 347.058 61.6045 347.453 61.3638C347.848 61.1164 348.17 60.8113 348.42 60.4484C348.669 60.0855 348.827 59.6692 348.892 59.1996L352.365 58.839C352.347 59.7817 352.111 60.6531 351.655 61.4532C351.205 62.2452 350.555 62.9267 349.707 63.4977C348.856 64.0621 347.833 64.4751 346.636 64.737Z" fill="#69B8FF"/>
<path d="M333.512 51.1537L334.126 53.9615L325.271 55.8989L324.657 53.0911L333.512 51.1537ZM326.036 48.9226L329.666 48.1283L332.83 62.5883C332.936 63.0764 333.092 63.4346 333.296 63.6632C333.505 63.8836 333.744 64.0135 334.012 64.053C334.28 64.0925 334.564 64.0793 334.865 64.0135C335.092 63.9637 335.296 63.9017 335.475 63.8273C335.662 63.7514 335.803 63.6892 335.897 63.6405L337.13 66.3445C336.95 66.4538 336.689 66.588 336.346 66.7472C336.009 66.905 335.584 67.0469 335.073 67.1729C334.169 67.3985 333.32 67.4407 332.526 67.2993C331.73 67.1512 331.048 66.8031 330.48 66.2549C329.918 65.7053 329.535 64.9484 329.331 63.9843L326.036 48.9226Z" fill="#69B8FF"/>
<path d="M320.411 63.3724L318.458 54.4477L322.088 53.6534L325.458 69.0561L321.938 69.8262L321.339 67.0886L321.179 67.1237C321.02 68.0622 320.603 68.8925 319.927 69.6148C319.258 70.3356 318.345 70.8225 317.189 71.0755C316.179 71.2964 315.238 71.2677 314.364 70.9895C313.496 70.7031 312.75 70.1763 312.127 69.409C311.503 68.635 311.056 67.6329 310.786 66.4029L308.641 56.5957L312.271 55.8014L314.294 65.047C314.507 66.0231 314.944 66.7401 315.605 67.198C316.266 67.6559 317.03 67.7897 317.899 67.5996C318.434 67.4826 318.924 67.2388 319.368 66.8684C319.813 66.498 320.139 66.0203 320.347 65.4353C320.561 64.8422 320.582 64.1546 320.411 63.3724Z" fill="#69B8FF"/>
<path d="M296.46 65.9441L298.435 74.9691L294.805 75.7634L291.435 60.3607L294.904 59.6016L295.477 62.2188L295.657 62.1793C295.823 61.2394 296.238 60.4306 296.902 59.7528C297.573 59.0736 298.484 58.6082 299.633 58.3566C300.696 58.124 301.672 58.1487 302.56 58.4307C303.455 58.7112 304.214 59.2352 304.838 60.0025C305.468 60.7683 305.914 61.767 306.176 62.9986L308.322 72.8057L304.692 73.6L302.669 64.3544C302.444 63.3249 302 62.5778 301.338 62.1132C300.683 61.6472 299.887 61.5165 298.951 61.7213C298.316 61.8603 297.782 62.1243 297.349 62.5133C296.921 62.8941 296.623 63.376 296.456 63.9589C296.296 64.5403 296.298 65.2021 296.46 65.9441Z" fill="#69B8FF"/>
<path d="M287.441 77.3744L284.071 61.9718L287.701 61.1775L291.071 76.5802L287.441 77.3744ZM285.417 59.3864C284.842 59.5122 284.306 59.4299 283.808 59.1395C283.309 58.8425 283 58.4232 282.881 57.8817C282.762 57.3335 282.867 56.8236 283.198 56.3518C283.528 55.8734 283.98 55.5713 284.555 55.4455C285.137 55.3182 285.674 55.4039 286.166 55.7024C286.664 55.9927 286.973 56.412 287.093 56.9602C287.212 57.5017 287.106 58.0117 286.776 58.4901C286.452 58.9604 285.999 59.2591 285.417 59.3864Z" fill="#69B8FF"/>
<path d="M262.098 82.9196L258.727 67.517L262.197 66.7578L262.77 69.3751L262.95 69.3356C263.078 68.3829 263.459 67.578 264.093 66.921C264.725 66.2572 265.556 65.8127 266.585 65.5875C267.628 65.3593 268.563 65.421 269.39 65.7725C270.221 66.1159 270.879 66.69 271.364 67.4947L271.524 67.4596C271.678 66.5293 272.103 65.7216 272.801 65.0365C273.504 64.3433 274.414 63.8746 275.53 63.6303C276.948 63.3202 278.202 63.5151 279.294 64.2149C280.386 64.9147 281.12 66.1236 281.495 67.8417L283.758 78.1804L280.118 78.9768L277.978 69.1997C277.769 68.2438 277.362 67.6007 276.758 67.2707C276.152 66.9339 275.481 66.846 274.745 67.0069C273.87 67.1985 273.244 67.6226 272.87 68.279C272.5 68.9273 272.41 69.686 272.601 70.555L274.703 80.1616L271.143 80.9405L268.971 71.013C268.796 70.2175 268.417 69.6351 267.832 69.2657C267.253 68.8949 266.579 68.7937 265.811 68.9619C265.289 69.076 264.844 69.3135 264.475 69.6745C264.104 70.0289 263.844 70.4745 263.695 71.0114C263.545 71.5417 263.539 72.1243 263.678 72.7594L265.728 82.1254L262.098 82.9196Z" fill="#69B8FF"/>
<path d="M244.385 87.0897C243.048 87.3822 241.796 87.3934 240.63 87.1231C239.463 86.8461 238.472 86.3344 237.657 85.588C236.849 84.8401 236.3 83.9024 236.012 82.7747L239.622 81.9848C239.873 82.8125 240.388 83.4213 241.167 83.8113C241.944 84.1947 242.797 84.2847 243.727 84.0813C244.455 83.9219 245.067 83.6129 245.562 83.1543C246.057 82.6957 246.404 82.1331 246.601 81.4664C246.798 80.7998 246.81 80.0861 246.637 79.3255C246.474 78.5485 246.16 77.8958 245.694 77.3673C245.228 76.8387 244.667 76.4676 244.01 76.2539C243.353 76.0336 242.646 76.006 241.891 76.1713C241.274 76.2992 240.694 76.5452 240.15 76.9094C239.607 77.2736 239.203 77.6842 238.938 78.1413L235.458 78.3248L234.214 67.5007L246.127 64.8941L246.807 68.0027L237.973 69.9357L238.573 75.5103L238.693 75.4839C238.976 74.9526 239.433 74.4639 240.064 74.0176C240.693 73.5646 241.423 73.2475 242.252 73.0661C243.495 72.794 244.669 72.8454 245.774 73.2201C246.877 73.5881 247.822 74.2222 248.607 75.1221C249.392 76.0221 249.929 77.1306 250.217 78.4475C250.514 79.8046 250.465 81.0834 250.069 82.2838C249.678 83.4761 248.995 84.4979 248.018 85.349C247.047 86.192 245.836 86.7723 244.385 87.0897Z" fill="#69B8FF"/>
<path d="M465.732 106.386L525.329 351.342L364.067 409.623L282.125 162.039L465.732 106.386Z" fill="#278E56"/>
<path d="M319.807 423.358C337.593 425.274 352.098 420.154 364.067 409.63L331.491 398.921L319.807 423.365V423.358Z" fill="#278E56"/>
<path d="M426.733 109.013L486.765 351.342L335.143 409.622L271.166 166.859L426.733 109.013Z" fill="#E9ECF7"/>
<path d="M74.4082 201.037L262.401 173.866L319.806 423.358L134.882 448.186L74.4082 201.037Z" fill="#278E56"/>
<path d="M125.682 173.866L186.156 421.456L148.026 442.056L88.4355 198.41L125.682 173.866Z" fill="#E9ECF7"/>
<path d="M319.805 423.358L335.142 409.623L186.155 421.457L148.025 442.056L319.805 423.358Z" fill="#B6C2D8"/>
<path d="M446.89 109.013L509.557 353.976L486.765 351.342L426.732 109.013H446.89Z" fill="#CBD4EC"/>
<path d="M364.066 409.622L509.557 353.976L486.764 351.342L335.143 409.622H364.066Z" fill="#B4BFD8"/>
<path d="M125.682 173.866L186.155 421.456L335.143 409.622L271.166 166.859L125.682 173.866Z" fill="white"/>
<path d="M402.189 88.4141C353.307 103.858 309.659 130.061 271.166 166.852L335.143 409.623C370.667 375.459 413.617 350.224 465.731 336.005L402.189 88.4141Z" fill="#F2F4FA"/>
<path d="M491.863 352.168L485.854 330.023L494.27 352.446L491.863 352.168Z" fill="#A2AFCD"/>
<path d="M118.547 236.804L114.923 221.723L112.523 223.766L120.327 245.206L118.547 236.804Z" fill="#BAC2D8"/>
<path d="M222.246 217.671L155.87 221.715C155.072 221.765 154.246 221.16 154.032 220.37C153.812 219.579 154.289 218.903 155.086 218.853L221.463 214.809C222.26 214.759 223.086 215.364 223.3 216.154C223.52 216.945 223.043 217.621 222.246 217.671Z" fill="#CBD4EC"/>
<path d="M224.31 225.175L157.934 229.22C157.137 229.27 156.311 228.664 156.097 227.874C155.876 227.084 156.353 226.407 157.151 226.357L223.527 222.313C224.325 222.263 225.151 222.868 225.364 223.659C225.585 224.449 225.108 225.126 224.31 225.175Z" fill="#CBD4EC"/>
<path d="M267.048 199.67L151.733 206.698C150.935 206.748 150.109 206.143 149.896 205.353C149.675 204.562 150.152 203.886 150.95 203.836L266.264 196.808C267.062 196.758 267.888 197.363 268.102 198.154C268.322 198.944 267.845 199.621 267.048 199.67Z" fill="#CBD4EC"/>
<path d="M269.112 207.175L153.797 214.203C153 214.253 152.174 213.647 151.96 212.857C151.739 212.067 152.217 211.39 153.014 211.34L268.329 204.312C269.126 204.263 269.952 204.868 270.166 205.658C270.387 206.449 269.91 207.125 269.112 207.175Z" fill="#CBD4EC"/>
<path d="M264.975 192.166L149.661 199.193C148.863 199.243 148.037 198.638 147.823 197.848C147.603 197.057 148.08 196.381 148.877 196.331L264.192 189.303C264.99 189.253 265.816 189.859 266.029 190.649C266.25 191.439 265.773 192.116 264.975 192.166Z" fill="#CBD4EC"/>
<path d="M243.793 302.56L177.416 306.604C176.619 306.654 175.793 306.049 175.579 305.259C175.359 304.468 175.836 303.792 176.633 303.742L243.01 299.698C243.807 299.648 244.633 300.253 244.847 301.043C245.067 301.834 244.59 302.51 243.793 302.56Z" fill="#CBD4EC"/>
<path d="M245.857 310.072L179.481 314.117C178.683 314.167 177.857 313.561 177.644 312.771C177.423 311.981 177.9 311.304 178.698 311.254L245.074 307.21C245.871 307.16 246.697 307.765 246.911 308.556C247.132 309.346 246.655 310.022 245.857 310.072Z" fill="#CBD4EC"/>
<path d="M288.593 284.567L173.278 291.595C172.48 291.645 171.654 291.039 171.441 290.249C171.22 289.459 171.697 288.782 172.495 288.732L287.809 281.705C288.607 281.655 289.433 282.26 289.646 283.05C289.867 283.841 289.39 284.517 288.593 284.567Z" fill="#CBD4EC"/>
<path d="M290.659 292.072L175.344 299.1C174.547 299.15 173.721 298.544 173.507 297.754C173.286 296.964 173.763 296.287 174.561 296.237L289.876 289.209C290.673 289.16 291.499 289.765 291.713 290.555C291.934 291.346 291.457 292.022 290.659 292.072Z" fill="#CBD4EC"/>
<path d="M286.52 277.062L171.205 284.09C170.408 284.14 169.582 283.534 169.368 282.744C169.148 281.954 169.625 281.277 170.422 281.227L285.737 274.2C286.535 274.15 287.361 274.755 287.574 275.545C287.795 276.336 287.318 277.012 286.52 277.062Z" fill="#CBD4EC"/>
<path d="M277.769 269.287L172.331 275.695C169.468 275.866 166.898 273.958 166.25 271.166L159.599 242.72C158.766 239.174 161.33 235.728 164.968 235.507L270.407 229.099C273.269 228.928 275.84 230.836 276.488 233.628L283.138 262.074C283.971 265.62 281.408 269.066 277.769 269.287Z" fill="#E9ECF7"/>
<path d="M309.343 388.589L203.342 395.004C200.465 395.175 198.044 393.993 197.61 392.192L193.181 373.878C192.626 371.593 195.46 369.307 199.119 369.086L305.121 362.671C307.998 362.5 310.418 363.682 310.853 365.483L315.282 383.797C315.837 386.083 313.003 388.368 309.343 388.589Z" fill="#E9ECF7"/>
<path d="M283.297 178.629C283.297 178.629 315.289 134.647 395.529 111.762" stroke="#CBD4EC" stroke-width="3" stroke-miterlimit="10" stroke-linecap="round"/>
<path d="M285.789 188.078C285.789 188.078 320.594 143.924 398.327 122.122" stroke="#CBD4EC" stroke-width="3" stroke-miterlimit="10" stroke-linecap="round"/>
<path d="M288.273 197.527C288.273 197.527 325.891 153.21 401.11 132.489" stroke="#CBD4EC" stroke-width="3" stroke-miterlimit="10" stroke-linecap="round"/>
<path d="M290.768 206.976C290.768 206.976 331.197 162.495 403.904 142.85" stroke="#CBD4EC" stroke-width="3" stroke-miterlimit="10" stroke-linecap="round"/>
<path d="M293.25 216.425C293.25 216.425 336.499 171.78 406.692 153.217" stroke="#CBD4EC" stroke-width="3" stroke-miterlimit="10" stroke-linecap="round"/>
<path d="M295.744 225.874C295.744 225.874 341.806 181.058 409.485 163.577" stroke="#CBD4EC" stroke-width="3" stroke-miterlimit="10" stroke-linecap="round"/>
<path d="M298.229 235.322C298.229 235.322 347.103 190.343 412.269 173.944" stroke="#CBD4EC" stroke-width="3" stroke-miterlimit="10" stroke-linecap="round"/>
<path d="M300.721 244.771C300.721 244.771 352.408 199.628 415.067 184.305" stroke="#CBD4EC" stroke-width="3" stroke-miterlimit="10" stroke-linecap="round"/>
<path d="M303.207 254.22C303.207 254.22 357.707 208.913 417.853 194.672" stroke="#CBD4EC" stroke-width="3" stroke-miterlimit="10" stroke-linecap="round"/>
<path d="M305.697 263.675C305.697 263.675 363.016 218.197 420.642 205.046" stroke="#CBD4EC" stroke-width="3" stroke-miterlimit="10" stroke-linecap="round"/>
<path d="M308.184 273.124C308.184 273.124 368.315 227.482 423.434 215.406" stroke="#CBD4EC" stroke-width="3" stroke-miterlimit="10" stroke-linecap="round"/>
<path d="M310.674 282.573C310.674 282.573 373.618 236.767 426.224 225.773" stroke="#CBD4EC" stroke-width="3" stroke-miterlimit="10" stroke-linecap="round"/>
<path d="M112.602 212.216L113.093 214.21L116.76 229.227L105.767 235.322L102.199 218.262L112.602 212.216Z" fill="#D28F56"/>
<path d="M156.364 336.816L153.979 327.524L148.639 307.203L152.498 325.815L156.364 336.816Z" fill="#BAC2D8"/>
<path d="M151.094 316.68L153.978 327.525L139.645 334.958L137.295 324.256L151.094 316.68Z" fill="#91533A"/>
<ellipse cx="300.124" cy="553.598" rx="150.86" ry="8.40233" fill="#C9C9C9"/>
<circle cx="182.492" cy="86.5043" r="24.6166" stroke="#69B8FF" stroke-width="5"/>
<path d="M178.672 67.4082L182.491 86.1225" stroke="#69B8FF" stroke-width="5" stroke-linecap="round"/>
<path d="M200.441 104.837L208.844 112.475" stroke="#69B8FF" stroke-width="5" stroke-linecap="round"/>
<path d="M172.943 109.802L167.596 119.732" stroke="#69B8FF" stroke-width="5" stroke-linecap="round"/>
<path d="M185.547 60.9153C193.949 42.583 214.573 56.7141 202.733 70.8454" stroke="#69B8FF" stroke-width="5"/>
<path d="M171.417 64.5752C158.162 49.6072 141.531 68.7818 157.062 78.8084" stroke="#69B8FF" stroke-width="5"/>
</svg>
