<svg width="600" height="600" viewBox="0 0 600 600" fill="none" xmlns="http://www.w3.org/2000/svg">
<g clip-path="url(#clip0_2166_15657)">
<g clip-path="url(#clip1_2166_15657)">
<path d="M504.338 160.199H117.467V367.28H504.338V160.199Z" fill="#FFD56D"/>
<path d="M274.007 328.731H252.166V338.71H274.007V328.731Z" fill="#E3AF58"/>
<path d="M224.126 338.739H202.285V348.718H224.126V338.739Z" fill="#E3AF58"/>
<path d="M247.191 283.366H225.35V293.345H247.191V283.366Z" fill="#E3AF58"/>
<path d="M461.661 257.212H439.82V267.191H461.661V257.212Z" fill="#E3AF58"/>
<path d="M167.044 298.838H145.203V308.817H167.044V298.838Z" fill="#E3AF58"/>
<path d="M178.747 286.012H156.906V295.991H178.747V286.012Z" fill="#E3AF58"/>
<path d="M150.667 332.096H128.826V342.074H150.667V332.096Z" fill="#E3AF58"/>
<path d="M162.456 343.728H140.615V353.707H162.456V343.728Z" fill="#E3AF58"/>
<path d="M236.277 240.59H214.422V250.569H236.277V240.59Z" fill="#E3AF58"/>
<path d="M452.877 320.305H431.021V330.284H452.877V320.305Z" fill="#E3AF58"/>
<path d="M387.122 327.106H365.281V337.085H387.122V327.106Z" fill="#E3AF58"/>
<path d="M397.519 338.739H375.678V348.718H397.519V338.739Z" fill="#E3AF58"/>
<path d="M366.82 283.366H344.979V293.345H366.82V283.366Z" fill="#E3AF58"/>
<path d="M390.115 283.366H368.273V293.345H390.115V283.366Z" fill="#E3AF58"/>
<path d="M336.036 341.715H314.195V351.694H336.036V341.715Z" fill="#E3AF58"/>
<path d="M303.036 258.75H281.195V268.729H303.036V258.75Z" fill="#E3AF58"/>
<path d="M313.964 247.233H292.123V257.212H313.964V247.233Z" fill="#E3AF58"/>
<path d="M352.413 315.589H330.572V325.568H352.413V315.589Z" fill="#E3AF58"/>
<path d="M385.368 240.59H363.527V250.569H385.368V240.59Z" fill="#E3AF58"/>
<path d="M395.765 252.222H373.924V262.201H395.765V252.222Z" fill="#E3AF58"/>
<path d="M409.654 240.59H387.812V250.569H409.654V240.59Z" fill="#E3AF58"/>
<path d="M305.798 261.497H259.887V338.235H305.798V261.497Z" fill="#5A8DB9"/>
<path d="M300.492 265.667H265.164V334.037H300.492V265.667Z" fill="#7AAEDD"/>
<path d="M227.952 261.497H182.041V338.235H227.952V261.497Z" fill="#5A8DB9"/>
<path d="M222.66 265.667H187.332V334.037H222.66V265.667Z" fill="#7AAEDD"/>
<path d="M475.407 261.497H429.496V338.235H475.407V261.497Z" fill="#5A8DB9"/>
<path d="M470.102 265.667H434.773V334.037H470.102V265.667Z" fill="#7AAEDD"/>
<path d="M401.603 240.59H337.287V366.518H401.603V240.59Z" fill="#5A8DB9"/>
<path d="M394.213 246.773H344.664V360.321H394.213V246.773Z" fill="#7AAEDD"/>
<path d="M504.338 145.705H117.467L141.105 58.7578H472.087L504.338 145.705Z" fill="#BD362B"/>
<path d="M504.338 145.706H117.467V160.185H504.338V145.706Z" fill="#D94129"/>
<path d="M472.101 52H141.105V58.758H472.101V52Z" fill="#D94129"/>
<path d="M169.676 196.031H134.391L173.5 160.199H201.467L169.676 196.031Z" fill="#BD362B"/>
<path d="M240.288 196.031H204.988L229.432 160.199H257.413L240.288 196.031Z" fill="#BD362B"/>
<path d="M310.901 196.031H275.602L285.379 160.199H310.901V196.031Z" fill="#BD362B"/>
<path d="M381.502 196.031H346.202L338.869 160.199H366.836L381.502 196.031Z" fill="#BD362B"/>
<path d="M452.114 196.031H416.814L394.801 160.199H422.782L452.114 196.031Z" fill="#BD362B"/>
<path d="M204.99 196.031H169.676L201.467 160.199H229.433L204.99 196.031Z" fill="#D7D6D6"/>
<path d="M275.603 196.031H240.289L257.414 160.199H285.38L275.603 196.031Z" fill="#D7D6D6"/>
<path d="M346.202 196.031H310.902V160.199H338.869L346.202 196.031Z" fill="#D7D6D6"/>
<path d="M416.814 196.031H381.5L366.834 160.199H394.8L416.814 196.031Z" fill="#D7D6D6"/>
<path d="M487.414 196.031H452.114L422.768 160.199H450.734L487.414 196.031Z" fill="#D7D6D6"/>
<path d="M152.032 228.167C161.781 228.167 169.675 220.359 169.675 210.726H134.375C134.375 220.359 142.269 228.167 152.032 228.167Z" fill="#D94129"/>
<path d="M187.346 228.167C197.095 228.167 205.003 220.359 205.003 210.726H169.689C169.689 220.359 177.598 228.167 187.346 228.167Z" fill="white"/>
<path d="M222.646 228.167C232.395 228.167 240.303 220.359 240.303 210.726H205.004C205.004 220.359 212.912 228.167 222.646 228.167Z" fill="#D94129"/>
<path d="M257.945 228.167C267.694 228.167 275.602 220.359 275.602 210.726H240.303C240.303 220.359 248.197 228.167 257.945 228.167Z" fill="white"/>
<path d="M293.245 228.167C302.994 228.167 310.887 220.359 310.887 210.726H275.588C275.588 220.359 283.496 228.167 293.245 228.167Z" fill="#D94129"/>
<path d="M328.544 228.167C338.292 228.167 346.186 220.359 346.186 210.726H310.887C310.887 220.359 318.795 228.167 328.544 228.167Z" fill="white"/>
<path d="M363.858 228.167C373.607 228.167 381.501 220.359 381.501 210.726H346.201C346.201 220.359 354.109 228.167 363.858 228.167Z" fill="#D94129"/>
<path d="M399.159 228.167C408.908 228.167 416.816 220.359 416.816 210.726H381.502C381.502 220.359 389.41 228.167 399.159 228.167Z" fill="white"/>
<path d="M434.471 228.167C444.206 228.167 452.114 220.359 452.114 210.726H416.814C416.814 220.359 424.723 228.167 434.471 228.167Z" fill="#D94129"/>
<path d="M469.758 228.167C479.506 228.167 487.415 220.359 487.415 210.726H452.115C452.115 220.359 460.023 228.167 469.758 228.167Z" fill="white"/>
<path d="M169.69 196.031H134.391V211.128H169.69V196.031Z" fill="#D94129"/>
<path d="M240.288 196.031H204.988V211.128H240.288V196.031Z" fill="#D94129"/>
<path d="M310.887 196.031H275.588V211.128H310.887V196.031Z" fill="#D94129"/>
<path d="M381.487 196.031H346.188V211.128H381.487V196.031Z" fill="#D94129"/>
<path d="M452.1 196.031H416.801V211.128H452.1V196.031Z" fill="#D94129"/>
<path d="M204.975 196.031H169.676V211.128H204.975V196.031Z" fill="white"/>
<path d="M99.0905 196.031H63.791L117.653 160.199H145.62L99.0905 196.031Z" fill="#BD362B"/>
<path d="M134.389 196.031H99.0898L145.619 160.199H173.586L134.389 196.031Z" fill="#D7D6D6"/>
<path d="M81.448 228.167C91.1967 228.167 99.1049 220.359 99.1049 210.726H63.791C63.791 220.359 71.6849 228.167 81.448 228.167Z" fill="#D94129"/>
<path d="M116.748 228.167C126.497 228.167 134.405 220.359 134.405 210.726H99.1055C99.1055 220.359 107.014 228.167 116.762 228.167H116.748Z" fill="white"/>
<path d="M99.0905 196.031H63.791V211.128H99.0905V196.031Z" fill="#D94129"/>
<path d="M134.389 196.031H99.0898V211.128H134.389V196.031Z" fill="white"/>
<path d="M275.589 196.031H240.289V211.128H275.589V196.031Z" fill="white"/>
<path d="M346.202 196.031H310.902V211.128H346.202V196.031Z" fill="white"/>
<path d="M416.816 196.031H381.502V211.128H416.816V196.031Z" fill="white"/>
<path d="M487.399 196.031H452.1V211.128H487.399V196.031Z" fill="white"/>
<path d="M522.699 196.031H487.4L450.734 160.199H478.715L522.699 196.031Z" fill="#BD362B"/>
<path d="M557.999 196.031H522.7L478.701 160.199H506.682L557.999 196.031Z" fill="#D7D6D6"/>
<path d="M505.043 228.167C514.792 228.167 522.7 220.359 522.7 210.726H487.4C487.4 220.359 495.309 228.167 505.057 228.167H505.043Z" fill="#D94129"/>
<path d="M540.342 228.167C550.091 228.167 557.985 220.359 557.985 210.726H522.686C522.686 220.359 530.594 228.167 540.328 228.167H540.342Z" fill="white"/>
<path d="M522.684 196.031H487.385V211.128H522.684V196.031Z" fill="#D94129"/>
<path d="M557.985 196.031H522.686V211.128H557.985V196.031Z" fill="white"/>
<path d="M425.5 123.821C425.5 143.894 409.223 160.156 389.165 160.156H232.639C212.567 160.156 196.305 143.879 196.305 123.821C196.305 103.749 212.581 87.4863 232.639 87.4863H389.151C409.223 87.4863 425.5 103.763 425.5 123.821Z" fill="#FFD56D"/>
<path d="M419.993 123.821C419.993 140.817 404.507 154.591 385.398 154.591H236.392C217.283 154.591 201.797 140.817 201.797 123.821C201.797 106.826 217.283 93.0508 236.392 93.0508H385.398C404.507 93.0508 419.993 106.826 419.993 123.821Z" stroke="#DC9C3C" stroke-width="1.09" stroke-miterlimit="10"/>
<path d="M259.54 112.508C259.479 111.751 259.195 111.16 258.687 110.736C258.187 110.311 257.426 110.099 256.403 110.099C255.752 110.099 255.218 110.179 254.801 110.338C254.392 110.489 254.089 110.698 253.892 110.963C253.695 111.228 253.593 111.531 253.585 111.872C253.57 112.152 253.619 112.406 253.733 112.633C253.854 112.853 254.043 113.054 254.301 113.236C254.559 113.41 254.888 113.569 255.29 113.713C255.691 113.857 256.168 113.986 256.721 114.099L258.631 114.508C259.918 114.781 261.021 115.141 261.937 115.588C262.854 116.035 263.604 116.561 264.187 117.167C264.771 117.766 265.199 118.44 265.471 119.19C265.752 119.94 265.896 120.758 265.903 121.645C265.896 123.175 265.513 124.47 264.756 125.531C263.998 126.592 262.915 127.398 261.506 127.951C260.104 128.505 258.418 128.781 256.449 128.781C254.426 128.781 252.661 128.482 251.153 127.883C249.653 127.285 248.487 126.364 247.653 125.122C246.827 123.872 246.411 122.273 246.403 120.326H252.403C252.441 121.039 252.619 121.637 252.937 122.122C253.256 122.607 253.702 122.974 254.278 123.224C254.862 123.474 255.555 123.599 256.358 123.599C257.032 123.599 257.596 123.516 258.051 123.349C258.506 123.183 258.85 122.951 259.085 122.656C259.32 122.361 259.441 122.023 259.449 121.645C259.441 121.289 259.324 120.978 259.096 120.713C258.877 120.44 258.513 120.198 258.006 119.986C257.498 119.766 256.812 119.561 255.949 119.372L253.631 118.872C251.57 118.425 249.945 117.679 248.756 116.633C247.574 115.58 246.987 114.145 246.994 112.326C246.987 110.849 247.381 109.558 248.176 108.451C248.979 107.338 250.089 106.47 251.506 105.849C252.93 105.228 254.562 104.917 256.403 104.917C258.282 104.917 259.907 105.232 261.278 105.861C262.649 106.489 263.706 107.376 264.449 108.52C265.199 109.656 265.577 110.986 265.585 112.508H259.54ZM268.307 128.508V105.236H274.625V114.326H282.988V105.236H289.307V128.508H282.988V119.417H274.625V128.508H268.307ZM314.852 116.872C314.852 119.463 314.348 121.648 313.341 123.429C312.333 125.201 310.973 126.546 309.261 127.463C307.549 128.372 305.64 128.826 303.534 128.826C301.413 128.826 299.496 128.368 297.784 127.451C296.079 126.527 294.723 125.179 293.716 123.406C292.716 121.626 292.216 119.448 292.216 116.872C292.216 114.281 292.716 112.099 293.716 110.326C294.723 108.546 296.079 107.201 297.784 106.292C299.496 105.376 301.413 104.917 303.534 104.917C305.64 104.917 307.549 105.376 309.261 106.292C310.973 107.201 312.333 108.546 313.341 110.326C314.348 112.099 314.852 114.281 314.852 116.872ZM308.352 116.872C308.352 115.478 308.166 114.304 307.795 113.349C307.432 112.387 306.89 111.66 306.17 111.167C305.458 110.667 304.579 110.417 303.534 110.417C302.488 110.417 301.606 110.667 300.886 111.167C300.174 111.66 299.632 112.387 299.261 113.349C298.898 114.304 298.716 115.478 298.716 116.872C298.716 118.266 298.898 119.444 299.261 120.406C299.632 121.361 300.174 122.088 300.886 122.588C301.606 123.08 302.488 123.326 303.534 123.326C304.579 123.326 305.458 123.08 306.17 122.588C306.89 122.088 307.432 121.361 307.795 120.406C308.166 119.444 308.352 118.266 308.352 116.872ZM317.775 128.508V105.236H327.821C329.548 105.236 331.059 105.576 332.355 106.258C333.65 106.94 334.658 107.898 335.378 109.133C336.097 110.368 336.457 111.811 336.457 113.463C336.457 115.13 336.086 116.573 335.344 117.792C334.609 119.012 333.575 119.951 332.241 120.611C330.916 121.27 329.366 121.599 327.594 121.599H321.594V116.69H326.321C327.063 116.69 327.696 116.561 328.219 116.304C328.749 116.039 329.154 115.664 329.434 115.179C329.722 114.694 329.866 114.122 329.866 113.463C329.866 112.796 329.722 112.228 329.434 111.758C329.154 111.281 328.749 110.917 328.219 110.667C327.696 110.41 327.063 110.281 326.321 110.281H324.094V128.508H317.775Z" fill="#453029"/>
<path d="M226.442 110.938L230.64 119.436L240.001 120.787L233.229 127.402L234.825 136.733L226.442 132.333L218.059 136.733L219.67 127.402L212.883 120.787L222.258 119.436L226.442 110.938Z" fill="#D94129"/>
<path d="M395.348 110.938L399.532 119.436L408.907 120.787L402.12 127.402L403.731 136.733L395.348 132.333L386.965 136.733L388.561 127.402L381.789 120.787L391.15 119.436L395.348 110.938Z" fill="#D94129"/>
</g>
<path d="M468.609 403.78L468.55 403.839C472 408.03 473.768 413.355 473.508 418.778C473.248 424.201 470.98 429.333 467.145 433.175C465.123 435.207 462.719 436.819 460.071 437.92C457.424 439.02 454.585 439.586 451.718 439.586C448.851 439.586 446.013 439.02 443.365 437.92C440.718 436.819 438.314 435.207 436.291 433.175C432.7 429.598 430.468 424.881 429.98 419.836L419.418 430.405L411.133 422.125L421.356 411.908C416.613 411.279 412.21 409.101 408.833 405.713C406.801 403.69 405.188 401.285 404.088 398.638C402.988 395.99 402.422 393.151 402.422 390.283C402.422 387.416 402.988 384.577 404.088 381.929C405.188 379.282 406.801 376.877 408.833 374.854C412.59 371.097 417.589 368.839 422.892 368.505C428.195 368.171 433.438 369.783 437.638 373.039L437.755 372.922C446.244 364.373 460.061 364.432 468.609 372.922C470.641 374.945 472.253 377.349 473.353 379.997C474.453 382.645 475.02 385.484 475.02 388.351C475.02 391.218 474.453 394.057 473.353 396.705C472.253 399.353 470.641 401.757 468.609 403.78Z" fill="#24AE26"/>
<path opacity="0.2" d="M468.585 403.78L468.527 403.839C471.581 398.638 468.719 387.8 464.753 383.607C461.338 379.997 455.721 376.777 451.095 376.777C446.468 376.777 440.379 380.829 437.731 381.929C430.608 380.192 425.574 381.523 424.453 381.929C423.731 382.191 416.526 384.752 414.708 390.283C413.535 393.852 413.535 400.681 415.337 405.713C416.488 408.928 421.332 414.341 423.779 414.341L413.536 424.586L411.11 422.125L421.332 411.908C416.589 411.279 412.187 409.101 408.809 405.713C406.777 403.69 405.165 401.285 404.065 398.638C402.965 395.99 402.398 393.151 402.398 390.283C402.398 387.416 402.965 384.577 404.065 381.929C405.165 379.282 406.777 376.877 408.809 374.854C412.567 371.097 417.566 368.839 422.869 368.505C428.172 368.171 433.415 369.783 437.614 373.039L437.731 372.922C446.221 364.373 460.038 364.432 468.585 372.922C470.617 374.945 472.229 377.349 473.33 379.997C474.43 382.645 474.996 385.484 474.996 388.351C474.996 391.218 474.43 394.057 473.33 396.705C472.229 399.353 470.496 401.959 468.585 403.78Z" fill="#E9F7E9"/>
<path d="M326.574 529.849L418.785 499.986C445.19 491.437 453.211 458.002 433.598 438.386L403.153 407.938C383.54 388.322 350.11 396.403 341.562 422.752L311.703 514.976C308.717 524.169 317.382 532.835 326.574 529.849Z" fill="#F17D53"/>
<path d="M371.836 468.483C374.705 465.614 374.705 460.988 371.836 458.06L340.338 426.558L335.244 442.251L361.415 468.425C364.283 471.352 368.967 471.352 371.836 468.483ZM349.705 495.126C346.836 497.995 346.836 502.62 349.705 505.548L362.41 518.255L378.1 513.16L360.068 495.126C359.388 494.444 358.581 493.903 357.691 493.534C356.802 493.165 355.849 492.975 354.887 492.975C353.924 492.975 352.971 493.165 352.082 493.534C351.193 493.903 350.385 494.444 349.705 495.126ZM394.552 465.965C391.683 463.038 391.683 458.412 394.552 455.543C397.421 452.673 402.046 452.673 404.973 455.601L436.764 487.396C433.837 491.261 430.09 494.54 425.64 497.058L394.552 465.965Z" fill="#EE5D28"/>
<path d="M308.904 399.517L308.901 399.557C311.481 399.947 313.823 401.282 315.472 403.304C317.12 405.325 317.958 407.888 317.822 410.493C317.752 411.869 317.41 413.217 316.818 414.461C316.225 415.704 315.392 416.818 314.368 417.739C313.343 418.66 312.147 419.369 310.847 419.827C309.548 420.284 308.17 420.48 306.795 420.403C304.363 420.278 302.05 419.309 300.255 417.663L299.875 424.833L294.255 424.535L294.626 417.6C292.729 418.898 290.456 419.534 288.161 419.408C286.785 419.338 285.436 418.996 284.193 418.403C282.949 417.81 281.835 416.977 280.914 415.953C279.993 414.928 279.283 413.731 278.826 412.432C278.369 411.132 278.173 409.755 278.249 408.379C278.385 405.83 279.447 403.417 281.235 401.594C283.023 399.772 285.414 398.664 287.961 398.479L287.965 398.399C288.253 392.617 293.21 388.2 298.992 388.489C300.368 388.559 301.716 388.901 302.96 389.494C304.204 390.087 305.318 390.919 306.239 391.944C307.16 392.969 307.869 394.165 308.327 395.465C308.784 396.765 308.98 398.142 308.904 399.517Z" fill="#24AE26"/>
<path opacity="0.2" d="M308.898 399.524L308.896 399.563C308.317 396.723 303.813 393.77 301.048 393.545C298.668 393.352 295.627 394.005 293.973 395.491C292.32 396.977 291.445 400.381 290.852 401.625C287.748 403.292 286.377 405.385 286.107 405.889C285.933 406.215 284.181 409.444 285.307 412.005C286.034 413.657 288.228 416.098 290.488 417.318C291.932 418.097 295.402 418.476 296.277 417.69L295.906 424.641L294.249 424.541L294.62 417.606C292.724 418.905 290.451 419.54 288.155 419.414C286.779 419.344 285.431 419.002 284.187 418.41C282.943 417.817 281.829 416.984 280.908 415.959C279.987 414.934 279.278 413.738 278.82 412.438C278.363 411.139 278.167 409.761 278.243 408.386C278.379 405.836 279.441 403.424 281.229 401.601C283.017 399.778 285.408 398.67 287.955 398.485L287.959 398.406C288.247 392.624 293.204 388.206 298.986 388.495C300.362 388.566 301.71 388.907 302.954 389.5C304.198 390.093 305.312 390.926 306.233 391.95C307.154 392.975 307.863 394.172 308.321 395.471C308.778 396.771 308.995 398.259 308.898 399.524Z" fill="#E9F7E9"/>
<path d="M298.633 490.193L321.996 449.903C328.687 438.366 320.814 423.841 307.504 423.13L286.844 422.027C273.534 421.316 264.182 434.942 269.59 447.104L288.541 489.654C290.426 493.899 296.307 494.213 298.633 490.193Z" fill="#F17D53"/>
<path d="M295.102 453.724C295.206 451.777 293.72 450.123 291.754 449.999L270.379 448.857L273.599 456.102L291.359 457.05C293.325 457.175 294.999 455.67 295.102 453.724ZM295.75 470.353C295.647 472.3 297.132 473.954 299.098 474.078L307.72 474.539L311.691 467.678L299.454 467.025C298.992 467 298.53 467.066 298.093 467.22C297.657 467.373 297.256 467.612 296.911 467.921C296.567 468.23 296.288 468.604 296.089 469.021C295.889 469.439 295.774 469.892 295.75 470.353ZM302.412 445.527C300.446 445.402 298.961 443.749 299.064 441.802C299.168 439.856 300.821 438.37 302.808 438.476L324.382 439.628C324.577 441.95 324.291 444.325 323.509 446.654L302.412 445.527Z" fill="#EE5D28"/>
<path d="M129.835 285.438L129.858 285.494C133.681 284.335 137.798 284.64 141.409 286.35C145.019 288.06 147.864 291.051 149.39 294.743C150.198 296.691 150.614 298.78 150.613 300.89C150.612 302.999 150.194 305.088 149.384 307.036C148.573 308.983 147.386 310.751 145.89 312.239C144.394 313.726 142.619 314.903 140.666 315.703C137.221 317.131 133.386 317.314 129.82 316.219L134.014 326.382L126.047 329.669L121.996 319.836C120.228 322.88 117.504 325.255 114.247 326.592C112.298 327.4 110.209 327.816 108.1 327.814C105.99 327.813 103.901 327.395 101.953 326.584C100.005 325.774 98.2368 324.586 96.7492 323.09C95.2615 321.594 94.084 319.819 93.2843 317.867C91.7941 314.252 91.6739 310.218 92.9463 306.521C94.2186 302.824 96.796 299.718 100.195 297.786L100.149 297.673C96.7415 289.489 100.688 280.119 108.872 276.713C110.821 275.905 112.91 275.489 115.02 275.491C117.13 275.492 119.218 275.91 121.166 276.72C123.114 277.531 124.883 278.719 126.37 280.215C127.858 281.711 129.035 283.486 129.835 285.438Z" fill="#24AE26"/>
<path opacity="0.2" d="M129.829 285.452L129.853 285.508C127.183 281.963 119.012 280.843 115.041 282.352C111.624 283.651 107.848 286.556 106.54 289.699C105.232 292.842 106.263 298.124 106.262 300.234C103.068 304.582 102.549 308.378 102.508 309.254C102.481 309.819 102.184 315.437 105.428 318.236C107.52 320.042 112.16 321.973 116.087 322.172C118.596 322.299 123.644 320.538 124.335 318.876L128.399 328.731L126.041 329.683L121.99 319.85C120.223 322.894 117.498 325.269 114.241 326.606C112.293 327.414 110.203 327.83 108.094 327.828C105.984 327.827 103.895 327.409 101.947 326.599C99.9995 325.788 98.231 324.6 96.7433 323.104C95.2557 321.609 94.0781 319.833 93.2784 317.881C91.7883 314.266 91.6681 310.232 92.9404 306.535C94.2127 302.838 96.7902 299.732 100.189 297.8L100.143 297.687C96.7356 289.503 100.682 280.134 108.866 276.727C110.815 275.919 112.904 275.503 115.014 275.505C117.124 275.506 119.213 275.924 121.16 276.735C123.108 277.545 124.877 278.733 126.364 280.229C127.852 281.725 129.132 283.639 129.829 285.452Z" fill="#E9F7E9"/>
<path d="M175.322 417.569L181.106 346.484C182.764 326.129 162.319 311.228 143.448 319.005L114.156 331.078C95.285 338.856 91.3225 363.851 106.806 377.107L161.014 423.466C166.414 428.093 174.751 424.657 175.322 417.569Z" fill="#F17D53"/>
<path d="M146.432 369.47C145.294 366.71 142.152 365.402 139.352 366.524L109.046 379.014L118.266 386.911L143.446 376.533C146.246 375.412 147.57 372.23 146.432 369.47ZM158.274 392.037C159.412 394.797 162.554 396.105 165.354 394.984L177.578 389.946L178.554 377.846L161.204 384.997C160.548 385.266 159.953 385.662 159.451 386.162C158.949 386.661 158.55 387.255 158.278 387.909C158.006 388.563 157.865 389.264 157.865 389.973C157.864 390.681 158.003 391.382 158.274 392.037ZM151.144 353.327C148.344 354.448 145.202 353.14 144.064 350.38C142.926 347.62 144.233 344.478 147.05 343.317L177.637 330.71C179.435 333.791 180.603 337.264 181.056 340.998L151.144 353.327Z" fill="#EE5D28"/>
<path d="M306.596 525.456L306.518 525.455C305.981 530.516 303.58 535.195 299.782 538.583C295.985 541.971 291.063 543.825 285.975 543.783C283.287 543.765 280.63 543.216 278.155 542.168C275.68 541.12 273.437 539.594 271.554 537.676C269.671 535.759 268.185 533.488 267.183 530.995C266.18 528.501 265.679 525.835 265.71 523.147C265.743 518.396 267.432 513.805 270.486 510.165L256.48 510.043L256.577 499.064L270.124 499.19C267.43 495.605 265.995 491.23 266.043 486.745C266.061 484.058 266.61 481.4 267.659 478.926C268.707 476.451 270.234 474.207 272.152 472.324C274.069 470.441 276.34 468.955 278.834 467.952C281.327 466.949 283.994 466.448 286.682 466.478C291.663 466.523 296.456 468.384 300.162 471.712C303.869 475.039 306.234 479.604 306.814 484.551L306.97 484.553C318.263 484.616 327.299 493.895 327.234 505.189C327.216 507.876 326.667 510.534 325.618 513.009C324.57 515.483 323.043 517.727 321.125 519.61C319.208 521.493 316.937 522.979 314.443 523.982C311.95 524.986 309.283 525.487 306.596 525.456Z" fill="#24AE26"/>
<path opacity="0.2" d="M306.582 525.443L306.504 525.442C311.989 524.069 317.357 515.037 317.557 509.63C317.729 504.975 316.193 499.104 313.155 496.009C310.116 492.915 303.406 491.504 300.932 490.456C297.415 484.55 293.218 482.058 292.211 481.575C291.562 481.264 285.117 478.127 280.223 480.544C277.066 482.103 272.498 486.589 270.316 491.098C268.922 493.979 268.483 500.775 270.09 502.412L256.51 502.289L256.563 499.051L270.111 499.177C267.416 495.592 265.981 491.217 266.029 486.732C266.048 484.045 266.597 481.387 267.645 478.912C268.693 476.438 270.22 474.194 272.138 472.311C274.056 470.428 276.327 468.942 278.82 467.939C281.313 466.935 283.98 466.435 286.668 466.465C291.649 466.51 296.442 468.371 300.149 471.698C303.855 475.026 306.22 479.591 306.801 484.538L306.956 484.54C318.249 484.603 327.285 493.882 327.221 505.176C327.202 507.863 326.653 510.521 325.605 512.995C324.556 515.47 323.029 517.714 321.112 519.597C319.194 521.48 316.923 522.966 314.43 523.969C311.936 524.973 309.055 525.524 306.582 525.443Z" fill="#E9F7E9"/>
<path d="M128.989 513.261L209.525 555.321C232.585 567.366 260.215 550.771 260.453 524.77L260.822 484.41C261.06 458.409 233.699 441.357 210.462 452.946L129.169 493.547C121.06 497.588 120.955 509.075 128.989 513.261Z" fill="#F17D53"/>
<path d="M199.76 503.229C203.563 503.263 206.657 500.225 206.731 496.384L207.113 454.626L193.272 461.526L192.955 496.221C192.881 500.062 195.957 503.195 199.76 503.229ZM167.406 505.926C163.603 505.892 160.509 508.93 160.435 512.771L160.281 529.614L173.993 536.762L174.212 512.857C174.221 511.954 174.053 511.059 173.716 510.222C173.378 509.385 172.879 508.623 172.247 507.979C171.615 507.335 170.862 506.822 170.031 506.47C169.2 506.118 168.308 505.933 167.406 505.926ZM216.364 516.769C216.438 512.927 219.532 509.889 223.335 509.923C227.138 509.957 230.176 513.051 230.14 516.932L229.755 559.077C225.247 559.657 220.593 559.305 215.987 557.982L216.364 516.769Z" fill="#EE5D28"/>
<path d="M507.331 271.548L507.329 271.588C509.908 271.978 512.25 273.313 513.899 275.335C515.548 277.356 516.386 279.919 516.25 282.523C516.179 283.899 515.838 285.248 515.245 286.491C514.653 287.735 513.82 288.849 512.795 289.77C511.771 290.691 510.574 291.4 509.275 291.857C507.975 292.314 506.598 292.51 505.223 292.434C502.79 292.309 500.478 291.34 498.683 289.694L498.303 296.863L492.683 296.565L493.054 289.63C491.157 290.929 488.884 291.565 486.589 291.439C485.213 291.368 483.864 291.027 482.621 290.434C481.377 289.841 480.263 289.008 479.342 287.984C478.421 286.959 477.711 285.762 477.254 284.463C476.797 283.163 476.601 281.786 476.677 280.41C476.813 277.86 477.875 275.448 479.662 273.625C481.45 271.802 483.842 270.695 486.389 270.509L486.393 270.43C486.681 264.648 491.638 260.231 497.42 260.52C498.796 260.59 500.144 260.932 501.388 261.524C502.631 262.117 503.746 262.95 504.667 263.975C505.588 265 506.297 266.196 506.754 267.496C507.212 268.795 507.408 270.173 507.331 271.548Z" fill="#24AE26"/>
<path opacity="0.2" d="M507.325 271.554L507.323 271.594C506.744 268.754 502.241 265.8 499.476 265.576C497.096 265.382 494.055 266.036 492.401 267.522C490.747 269.008 489.873 272.412 489.28 273.655C486.176 275.323 484.805 277.415 484.535 277.92C484.361 278.246 482.608 281.475 483.735 284.036C484.462 285.688 486.656 288.129 488.916 289.348C490.36 290.128 493.83 290.506 494.704 289.72L494.334 296.672L492.677 296.572L493.048 289.637C491.151 290.935 488.878 291.571 486.583 291.445C485.207 291.375 483.858 291.033 482.615 290.44C481.371 289.847 480.257 289.015 479.336 287.99C478.415 286.965 477.705 285.769 477.248 284.469C476.791 283.169 476.595 281.792 476.671 280.417C476.807 277.867 477.869 275.454 479.657 273.632C481.445 271.809 483.836 270.701 486.383 270.516L486.387 270.436C486.675 264.654 491.632 260.237 497.414 260.526C498.79 260.596 500.138 260.938 501.382 261.531C502.625 262.124 503.74 262.956 504.661 263.981C505.582 265.006 506.291 266.202 506.748 267.502C507.206 268.802 507.423 270.29 507.325 271.554Z" fill="#E9F7E9"/>
<path d="M497.06 362.224L520.424 321.933C527.114 310.397 519.242 295.872 505.932 295.161L485.271 294.058C471.961 293.347 462.609 306.972 468.018 319.135L486.968 361.685C488.854 365.93 494.734 366.244 497.06 362.224Z" fill="#F17D53"/>
<path d="M493.53 325.754C493.634 323.807 492.148 322.154 490.182 322.029L468.807 320.888L472.027 328.132L489.787 329.081C491.752 329.206 493.426 327.701 493.53 325.754ZM494.178 342.384C494.074 344.331 495.56 345.984 497.526 346.109L506.148 346.57L510.119 339.709L497.882 339.056C497.42 339.031 496.957 339.097 496.521 339.25C496.085 339.404 495.683 339.642 495.339 339.952C494.995 340.261 494.716 340.635 494.516 341.052C494.317 341.47 494.202 341.922 494.178 342.384ZM500.84 317.558C498.874 317.433 497.388 315.78 497.492 313.833C497.596 311.886 499.249 310.401 501.235 310.507L522.809 311.659C523.005 313.98 522.719 316.356 521.937 318.685L500.84 317.558Z" fill="#EE5D28"/>
</g>
<defs>
<clipPath id="clip0_2166_15657">
<rect width="600" height="600" fill="white"/>
</clipPath>
<clipPath id="clip1_2166_15657">
<rect width="494.208" height="315.28" fill="white" transform="translate(63.791 52)"/>
</clipPath>
</defs>
</svg>
