<svg width="600" height="600" viewBox="0 0 600 600" fill="none" xmlns="http://www.w3.org/2000/svg">
<g clip-path="url(#clip0_2119_15392)">
<path fill-rule="evenodd" clip-rule="evenodd" d="M299.5 299.5L336.883 -13H262.118L299.5 299.5ZM299.5 299.5L588.826 175.624L551.443 110.876L299.5 299.5ZM299.5 299.5L423.376 10.1739L488.124 47.5566L299.5 299.5ZM299.5 299.5L262.118 612H336.883L299.5 299.5ZM299.5 299.5L551.443 488.124L588.826 423.376L299.5 299.5ZM299.5 299.5L612 262.117V336.883L299.5 299.5ZM299.5 299.5L423.376 588.826L488.124 551.443L299.5 299.5ZM299.5 299.5L110.877 551.443L175.625 588.826L299.5 299.5ZM299.5 299.5L10.1744 423.376L47.5572 488.124L299.5 299.5ZM299.5 299.5L-13 262.117V336.883L299.5 299.5ZM299.5 299.5L10.1744 175.624L47.5572 110.876L299.5 299.5ZM175.625 10.1739L299.5 299.5L110.877 47.5566L175.625 10.1739Z" fill="url(#paint0_radial_2119_15392)"/>
<g filter="url(#filter0_d_2119_15392)">
<circle cx="175.976" cy="466.35" r="53.4848" transform="rotate(-19.1663 175.976 466.35)" fill="white"/>
</g>
<g filter="url(#filter1_d_2119_15392)">
<circle cx="175.975" cy="466.35" r="44.3924" transform="rotate(-19.1663 175.975 466.35)" fill="url(#paint1_linear_2119_15392)"/>
</g>
<circle cx="175.975" cy="466.35" r="41.2182" transform="rotate(-19.1663 175.975 466.35)" stroke="url(#paint2_linear_2119_15392)"/>
<g filter="url(#filter2_i_2119_15392)">
<circle cx="175.976" cy="466.35" r="33.6954" transform="rotate(-19.1663 175.976 466.35)" fill="#F29F03"/>
</g>
<g filter="url(#filter3_d_2119_15392)">
<path d="M179.69 478.442C177.899 479.065 176.204 479.311 174.606 479.18C173.013 479.039 171.629 478.563 170.455 477.753C169.281 476.943 168.441 475.832 167.933 474.421L173.651 472.434C173.852 472.939 174.175 473.337 174.62 473.629C175.062 473.913 175.585 474.074 176.191 474.112C176.796 474.151 177.435 474.053 178.109 473.819C178.783 473.584 179.335 473.26 179.765 472.844C180.2 472.418 180.49 471.944 180.635 471.422C180.777 470.892 180.748 470.353 180.549 469.805C180.365 469.251 180.038 468.816 179.567 468.499C179.097 468.182 178.526 468.007 177.854 467.975C177.19 467.94 176.459 468.06 175.663 468.337L173.378 469.131L171.974 465.09L174.259 464.296C174.955 464.053 175.528 463.726 175.976 463.313C176.432 462.897 176.737 462.43 176.892 461.913C177.044 461.388 177.022 460.855 176.826 460.315C176.65 459.784 176.362 459.365 175.964 459.057C175.57 458.739 175.105 458.549 174.569 458.487C174.04 458.422 173.477 458.493 172.88 458.7C172.252 458.919 171.721 459.228 171.285 459.628C170.857 460.026 170.564 460.479 170.407 460.989C170.249 461.498 170.256 462.023 170.427 462.565L164.996 464.452C164.524 463.046 164.486 461.678 164.882 460.348C165.275 459.01 166.025 457.81 167.131 456.748C168.245 455.683 169.648 454.856 171.34 454.268C173.024 453.683 174.607 453.463 176.09 453.608C177.574 453.753 178.848 454.211 179.914 454.982C180.977 455.745 181.73 456.765 182.175 458.044C182.643 459.365 182.589 460.606 182.015 461.767C181.448 462.925 180.518 463.84 179.224 464.513L179.288 464.696C181.184 464.278 182.763 464.389 184.025 465.032C185.294 465.672 186.176 466.716 186.671 468.166C187.145 469.528 187.163 470.877 186.727 472.213C186.295 473.539 185.472 474.751 184.259 475.851C183.05 476.94 181.527 477.804 179.69 478.442Z" fill="white"/>
</g>
<g filter="url(#filter4_d_2119_15392)">
<circle cx="399.176" cy="126.077" r="53.3076" transform="rotate(19.1313 399.176 126.077)" fill="white"/>
</g>
<g filter="url(#filter5_d_2119_15392)">
<circle cx="399.176" cy="126.077" r="44.2453" transform="rotate(19.1313 399.176 126.077)" fill="url(#paint3_linear_2119_15392)"/>
</g>
<circle cx="399.176" cy="126.077" r="41.0799" transform="rotate(19.1313 399.176 126.077)" stroke="url(#paint4_linear_2119_15392)"/>
<g filter="url(#filter6_i_2119_15392)">
<circle cx="399.178" cy="126.077" r="33.5838" transform="rotate(19.1313 399.178 126.077)" fill="#F29F03"/>
</g>
<g filter="url(#filter7_d_2119_15392)">
<path d="M404.778 114.735L396.646 138.177L390.992 136.216L397.289 118.062L397.152 118.014L390.798 119.401L392.497 114.502L399.524 112.913L404.778 114.735Z" fill="white"/>
</g>
<g filter="url(#filter8_d_2119_15392)">
<circle cx="221.609" cy="194.623" r="79.1573" transform="rotate(-19.1663 221.609 194.623)" fill="white"/>
</g>
<g filter="url(#filter9_d_2119_15392)">
<circle cx="221.608" cy="194.623" r="65.7006" transform="rotate(-19.1663 221.608 194.623)" fill="url(#paint5_linear_2119_15392)"/>
</g>
<circle cx="221.609" cy="194.623" r="61.2427" transform="rotate(-19.1663 221.609 194.623)" stroke="url(#paint6_linear_2119_15392)"/>
<g filter="url(#filter10_i_2119_15392)">
<circle cx="221.61" cy="194.623" r="49.8691" transform="rotate(-19.1663 221.61 194.623)" fill="#F29F03"/>
</g>
<g filter="url(#filter11_d_2119_15392)">
<path d="M239.536 208.702C236.499 209.758 233.632 209.948 230.935 209.273C228.233 208.587 225.817 207.097 223.686 204.802C221.551 202.497 219.826 199.433 218.511 195.612C217.195 191.79 216.664 188.343 216.917 185.272C217.177 182.184 218.158 179.564 219.86 177.411C221.57 175.242 223.942 173.63 226.978 172.575C230.015 171.52 232.876 171.312 235.562 171.953C238.255 172.579 240.661 174.022 242.78 176.282C244.899 178.542 246.614 181.577 247.926 185.388C249.257 189.217 249.8 192.698 249.555 195.83C249.311 198.962 248.34 201.63 246.642 203.832C244.952 206.02 242.583 207.643 239.536 208.702ZM237.143 201.82C238.956 201.19 240.102 199.757 240.582 197.52C241.058 195.273 240.622 192.231 239.276 188.394C238.402 185.879 237.427 183.895 236.35 182.44C235.269 180.975 234.136 179.998 232.95 179.508C231.764 179.019 230.565 178.985 229.353 179.406C227.552 180.032 226.413 181.45 225.937 183.66C225.456 185.859 225.864 188.84 227.16 192.605C228.035 195.158 229.013 197.186 230.094 198.69C231.187 200.189 232.335 201.193 233.54 201.701C234.742 202.198 235.943 202.237 237.143 201.82Z" fill="white"/>
</g>
<g filter="url(#filter12_d_2119_15392)">
<path d="M205.057 180.727L217.153 215.529L208.759 218.447L199.391 191.496L199.187 191.567L193.058 199.03L190.53 191.757L197.257 183.438L205.057 180.727Z" fill="white"/>
</g>
<g filter="url(#filter13_d_2119_15392)">
<circle cx="300.038" cy="323.787" r="104.706" fill="white"/>
</g>
<path d="M354.129 285.36V319.615C354.129 378.336 300.531 393.017 300.531 393.017C300.531 393.017 246.934 378.336 246.934 319.615V285.36C246.934 284.062 247.447 282.818 248.361 281.9C249.274 280.982 250.514 280.467 251.806 280.467H349.256C350.548 280.467 351.788 280.982 352.702 281.9C353.615 282.818 354.129 284.062 354.129 285.36Z" fill="#E1B2FF"/>
<path d="M349.252 275.572H251.802C249.217 275.572 246.738 276.603 244.911 278.439C243.083 280.274 242.057 282.764 242.057 285.359V319.614C242.057 351.862 257.6 371.405 270.64 382.122C284.685 393.658 298.657 397.579 299.266 397.738C300.103 397.967 300.987 397.967 301.824 397.738C302.433 397.579 316.387 393.658 330.45 382.122C343.453 371.405 358.997 351.862 358.997 319.614V285.359C358.997 282.764 357.97 280.274 356.143 278.439C354.315 276.603 351.836 275.572 349.252 275.572ZM349.252 319.614C349.252 342.289 340.932 360.694 324.524 374.31C317.381 380.218 309.258 384.814 300.527 387.89C291.91 384.867 283.887 380.352 276.822 374.549C260.219 360.908 251.802 342.429 251.802 319.614V285.359H349.252V319.614Z" fill="#EBCBFF"/>
<path d="M300.535 285.767V387.715C313.224 385.166 330.988 369.874 336.064 362.228C346.215 352.033 349.167 330.794 349.374 321.449V285.767H300.535Z" fill="#D38EFF"/>
<g clip-path="url(#clip1_2119_15392)">
<path d="M269.62 479.444L272.695 451.342L283.197 452.487C285.349 452.717 287.113 453.294 288.507 454.207C289.9 455.12 290.897 456.299 291.502 457.727C292.106 459.155 292.312 460.776 292.113 462.555C291.918 464.344 291.371 465.846 290.462 467.09C289.554 468.334 288.319 469.226 286.763 469.777C285.198 470.334 283.344 470.494 281.177 470.26L273.666 469.441L274.117 465.277L280.963 466.026C282.228 466.161 283.289 466.1 284.134 465.825C284.97 465.555 285.631 465.097 286.101 464.448C286.562 463.804 286.853 462.983 286.959 462.004C287.074 460.995 286.966 460.119 286.656 459.367C286.345 458.615 285.802 458 285.032 457.534C284.263 457.068 283.238 456.765 281.958 456.626L277.255 456.112L274.663 479.995L269.62 479.444ZM285.431 481.179L279.996 467.682L285.509 468.285L291.075 481.796L285.431 481.179Z" fill="#83351C"/>
<path d="M303.342 481.736C302.002 481.826 300.789 481.65 299.678 481.234C298.567 480.819 297.689 480.153 297.011 479.244C296.332 478.335 295.954 477.189 295.863 475.801C295.788 474.601 295.956 473.6 296.348 472.785C296.741 471.97 297.317 471.312 298.043 470.794C298.784 470.281 299.62 469.875 300.561 469.573C301.502 469.27 302.494 469.037 303.522 468.872C304.732 468.656 305.725 468.472 306.493 468.325C307.261 468.178 307.814 467.975 308.158 467.726C308.502 467.478 308.659 467.11 308.632 466.633L308.629 466.536C308.586 465.847 308.411 465.254 308.101 464.796C307.795 464.324 307.353 463.987 306.785 463.755C306.222 463.533 305.533 463.441 304.728 463.497C303.908 463.55 303.204 463.724 302.62 464.005C302.041 464.295 301.57 464.65 301.213 465.077C300.855 465.505 300.61 465.958 300.462 466.431L295.837 465.789C296.174 464.512 296.761 463.443 297.576 462.57C298.391 461.697 299.392 461.029 300.578 460.544C301.755 460.064 303.049 459.778 304.466 459.695C305.464 459.632 306.475 459.684 307.515 459.856C308.54 460.023 309.498 460.362 310.385 460.863C311.272 461.364 311.996 462.064 312.573 462.966C313.15 463.869 313.485 465.026 313.567 466.444L314.451 480.585L309.737 480.888L309.549 477.967L309.362 477.983C309.083 478.601 308.683 479.175 308.171 479.724C307.653 480.264 306.992 480.721 306.203 481.077C305.413 481.433 304.455 481.659 303.346 481.721L303.342 481.736ZM304.382 478C305.404 477.936 306.274 477.684 306.983 477.225C307.697 476.775 308.233 476.201 308.61 475.517C308.973 474.828 309.136 474.088 309.094 473.312L308.941 470.815C308.781 470.951 308.516 471.095 308.134 471.229C307.757 471.373 307.331 471.494 306.867 471.611C306.403 471.728 305.933 471.836 305.477 471.925C305.021 472.013 304.633 472.089 304.321 472.148C303.592 472.299 302.942 472.505 302.356 472.761C301.776 473.028 301.339 473.376 301.03 473.802C300.726 474.238 300.59 474.779 300.628 475.434C300.663 476.042 300.849 476.542 301.181 476.927C301.519 477.321 301.958 477.61 302.51 477.789C303.062 477.968 303.678 478.039 304.377 477.991L304.382 478Z" fill="#83351C"/>
<path d="M324.491 466.241L327.332 478.335L322.526 479.462L317.685 458.81L322.227 457.741L323.504 462.822L323.111 462.912C323.272 460.994 323.808 459.449 324.715 458.293C325.621 457.136 326.923 456.366 328.61 455.965C330.028 455.636 331.332 455.64 332.533 455.994C333.733 456.349 334.762 457.043 335.623 458.062C336.484 459.08 337.105 460.426 337.491 462.084L340.576 475.212L335.77 476.339L332.86 463.939C332.537 462.554 331.923 461.561 331.023 460.944C330.122 460.328 329.049 460.162 327.784 460.457C326.936 460.66 326.219 461.013 325.648 461.545C325.072 462.067 324.669 462.728 324.456 463.533C324.237 464.328 324.248 465.23 324.486 466.232L324.491 466.241Z" fill="#83351C"/>
<path d="M348.246 472.663L337.329 446.579L341.881 444.669L352.798 470.753L348.246 472.663ZM349.833 464.759L347.523 459.245L348.242 458.94L351.988 448.093L357.321 445.856L352.711 459.115L351.768 459.505L349.823 464.74L349.833 464.759ZM360.507 467.531L350.376 461.306L352.105 456.803L365.964 465.252L360.498 467.536L360.507 467.531Z" fill="#83351C"/>
<path d="M386.492 452.773C385.315 453.635 384.11 454.131 382.864 454.28C381.618 454.429 380.397 454.196 379.202 453.58C378.007 452.964 376.92 451.983 375.917 450.612L367.953 439.718L371.934 436.804L379.452 447.08C380.283 448.225 381.244 448.906 382.319 449.121C383.394 449.335 384.452 449.066 385.498 448.301C386.2 447.784 386.715 447.172 387.043 446.465C387.371 445.759 387.471 444.992 387.355 444.17C387.231 443.353 386.869 442.53 386.281 441.719L378.946 431.688L382.946 428.763L395.476 445.885L391.698 448.653L388.558 444.462L388.865 444.234C389.474 446.077 389.573 447.707 389.178 449.126C388.773 450.55 387.892 451.754 386.521 452.758L386.492 452.773Z" fill="#83351C"/>
<path d="M407.372 446.001L386.379 425.79L389.722 422.313L392.25 424.747L392.479 424.512C392.287 423.978 392.149 423.34 392.056 422.604C391.963 421.869 392.036 421.055 392.286 420.181C392.536 419.308 393.1 418.424 393.972 417.52C395.11 416.336 396.445 415.56 397.954 415.194C399.463 414.828 401.08 414.932 402.785 415.492C404.495 416.061 406.2 417.161 407.898 418.793C409.577 420.412 410.74 422.053 411.382 423.731C412.034 425.404 412.201 427.021 411.906 428.557C411.601 430.099 410.867 431.482 409.706 432.691C408.876 433.56 408.026 434.144 407.167 434.44C406.308 434.735 405.5 434.855 404.745 434.799C403.99 434.742 403.348 434.624 402.806 434.464L402.666 434.614L410.795 442.444L407.372 446.001ZM405.85 430.843C406.61 430.049 407.044 429.174 407.127 428.22C407.21 427.265 407.012 426.292 406.519 425.294C406.025 424.297 405.312 423.346 404.367 422.422C403.422 421.498 402.443 420.827 401.442 420.388C400.436 419.939 399.47 419.789 398.527 419.908C397.59 420.037 396.727 420.507 395.958 421.306C395.202 422.086 394.773 422.946 394.665 423.877C394.557 424.808 394.735 425.768 395.199 426.757C395.663 427.745 396.396 428.71 397.386 429.671C398.375 430.632 399.38 431.327 400.395 431.77C401.41 432.213 402.386 432.358 403.318 432.22C404.26 432.076 405.094 431.623 405.841 430.848L405.85 430.843Z" fill="#83351C"/>
</g>
<g clip-path="url(#clip2_2119_15392)">
<path d="M144.06 131.732L127.328 117.43L129.897 114.429L144.103 126.572L150.418 119.178L152.943 121.337L144.06 131.721V131.732Z" fill="#83351C"/>
<path d="M160.532 115.368C159.237 116.415 157.909 117.052 156.538 117.268C155.167 117.484 153.829 117.3 152.534 116.717C151.227 116.134 150.04 115.184 148.95 113.846C147.87 112.529 147.179 111.169 146.866 109.776C146.553 108.384 146.618 107.034 147.061 105.739C147.503 104.444 148.345 103.3 149.565 102.296C150.342 101.659 151.184 101.184 152.102 100.86C153.008 100.536 153.958 100.417 154.93 100.504C155.901 100.59 156.884 100.903 157.855 101.465C158.827 102.026 159.766 102.868 160.683 103.99L161.45 104.93L150.979 113.457L149.328 111.428L158.319 104.098L157.413 105.836C156.83 105.124 156.204 104.573 155.534 104.217C154.865 103.861 154.185 103.699 153.505 103.742C152.814 103.796 152.145 104.088 151.486 104.627C150.828 105.167 150.396 105.772 150.191 106.452C149.986 107.132 149.975 107.833 150.148 108.546C150.331 109.258 150.677 109.927 151.195 110.564L152.328 111.957C152.987 112.766 153.678 113.338 154.412 113.673C155.135 114.008 155.869 114.116 156.592 113.986C157.315 113.867 158.006 113.533 158.665 113.004C159.097 112.648 159.442 112.259 159.701 111.849C159.949 111.439 160.111 110.996 160.165 110.532C160.219 110.068 160.165 109.614 160.003 109.15L163.198 107.477C163.555 108.33 163.695 109.215 163.619 110.143C163.544 111.061 163.252 111.968 162.734 112.864C162.216 113.759 161.493 114.591 160.532 115.368Z" fill="#83351C"/>
<path d="M171.628 107.261L158.254 95.7866L161.848 93.8004L168.832 100.202C169.653 100.946 170.43 101.734 171.175 102.533C171.92 103.343 172.665 104.152 173.431 104.984L172.589 105.448C172.298 104.357 172.006 103.289 171.715 102.231C171.423 101.173 171.164 100.104 170.959 99.0142L169.232 89.6985L172.794 87.7231L175.396 105.167L171.639 107.25L171.628 107.261Z" fill="#83351C"/>
<path d="M188.857 99.8238C187.281 100.342 185.802 100.461 184.453 100.169C183.103 99.8778 181.916 99.2301 180.901 98.2262C179.887 97.2224 179.12 95.9054 178.58 94.2647C178.052 92.6455 177.879 91.1343 178.084 89.7094C178.289 88.2953 178.829 87.0648 179.714 86.0069C180.599 84.949 181.786 84.1826 183.287 83.6861C184.237 83.373 185.197 83.2219 186.169 83.2543C187.141 83.2759 188.058 83.5026 188.943 83.9236C189.828 84.3445 190.616 84.9922 191.329 85.8666C192.041 86.7409 192.613 87.8635 193.067 89.2344L193.444 90.3894L180.621 94.6209L179.8 92.1382L190.821 88.5112L189.353 89.8065C189.062 88.9322 188.673 88.1982 188.177 87.6153C187.68 87.0324 187.108 86.6438 186.45 86.4495C185.791 86.2552 185.057 86.2875 184.248 86.5466C183.438 86.8165 182.823 87.2267 182.391 87.788C181.959 88.3493 181.689 88.997 181.603 89.731C181.517 90.465 181.603 91.2098 181.862 91.987L182.423 93.7034C182.747 94.6964 183.19 95.4736 183.762 96.0458C184.323 96.6179 184.96 96.9741 185.683 97.1252C186.406 97.2655 187.173 97.2116 187.972 96.9417C188.501 96.769 188.965 96.5315 189.343 96.2293C189.731 95.927 190.023 95.5816 190.249 95.1714C190.476 94.7612 190.584 94.3078 190.595 93.8221L194.179 93.4011C194.2 94.3294 194.017 95.2038 193.617 96.035C193.218 96.8661 192.624 97.611 191.825 98.2586C191.027 98.9063 190.044 99.4244 188.878 99.813L188.857 99.8238Z" fill="#83351C"/>
<path d="M197.772 74.4351L202.122 96.0132L198.355 96.7688L194.016 75.1907L197.783 74.4351H197.772Z" fill="#83351C"/>
<path d="M218.293 94.7718C217.16 94.7502 216.177 94.502 215.325 94.0054C214.483 93.5089 213.835 92.7964 213.382 91.8573C212.928 90.9182 212.712 89.7848 212.734 88.4679L212.896 77.9648L216.739 78.0296L216.588 87.9389C216.566 89.04 216.847 89.9143 217.408 90.5512C217.969 91.1881 218.757 91.5227 219.761 91.5335C220.441 91.5443 221.046 91.404 221.585 91.1233C222.125 90.8427 222.546 90.4109 222.848 89.8388C223.161 89.2775 223.323 88.5974 223.334 87.8094L223.485 78.1376L227.339 78.2023L227.08 94.7179L223.431 94.6639L223.453 90.5836H223.744C223.259 92.0192 222.557 93.0771 221.639 93.7787C220.722 94.4804 219.599 94.815 218.282 94.7934L218.293 94.7718Z" fill="#83351C"/>
<path d="M228.914 101.076L233.599 78.8716L237.269 79.6488L236.708 82.3258L236.956 82.3798C237.226 82.0344 237.593 81.6781 238.046 81.3111C238.5 80.9441 239.061 80.6635 239.741 80.4692C240.421 80.2749 241.241 80.2749 242.191 80.48C243.443 80.7498 244.501 81.3003 245.376 82.1531C246.239 83.0059 246.844 84.1069 247.178 85.467C247.513 86.8271 247.491 88.4139 247.103 90.2058C246.725 91.9761 246.12 93.4225 245.278 94.5452C244.437 95.6678 243.443 96.445 242.299 96.8876C241.155 97.3301 239.946 97.4057 238.661 97.1358C237.744 96.9415 237.01 96.6285 236.459 96.1859C235.909 95.7433 235.499 95.2576 235.229 94.7395C234.959 94.2213 234.765 93.7464 234.657 93.3146L234.495 93.2822L232.681 101.885L228.925 101.087L228.914 101.076ZM238.294 93.8219C239.136 93.9946 239.881 93.9191 240.551 93.5844C241.22 93.2498 241.781 92.7101 242.234 91.9761C242.688 91.242 243.022 90.3785 243.238 89.3746C243.454 88.3707 243.497 87.4424 243.379 86.6004C243.26 85.7585 242.968 85.046 242.494 84.4847C242.019 83.9234 241.36 83.5456 240.507 83.3621C239.676 83.1894 238.931 83.2541 238.273 83.5672C237.614 83.8802 237.053 84.3984 236.6 85.1108C236.146 85.8232 235.801 86.7084 235.585 87.7554C235.358 88.8025 235.315 89.7524 235.445 90.6052C235.574 91.4579 235.876 92.1596 236.351 92.7209C236.826 93.2822 237.485 93.6492 238.305 93.8219H238.294Z" fill="#83351C"/>
</g>
<path d="M458.252 223.533L452.495 239.931C442.627 268.041 414.484 266.055 414.484 266.055C414.484 266.055 391.277 250.014 401.145 221.904L406.902 205.506C407.12 204.884 407.575 204.375 408.167 204.089C408.759 203.804 409.44 203.765 410.059 203.982L456.74 220.371C457.359 220.588 457.866 221.043 458.15 221.636C458.433 222.229 458.47 222.911 458.252 223.533Z" fill="#63D5D5"/>
<path d="M457.561 218.027L410.879 201.639C409.641 201.204 408.28 201.281 407.096 201.852C405.913 202.424 405.002 203.443 404.566 204.685L398.809 221.083C393.39 236.52 397.551 248.49 401.997 255.813C406.786 263.698 412.82 267.924 413.085 268.103C413.448 268.353 413.871 268.502 414.31 268.533C414.629 268.559 421.972 269.029 430.648 265.871C438.678 262.928 449.408 256.186 454.827 240.749L460.584 224.351C461.02 223.108 460.947 221.744 460.38 220.558C459.813 219.372 458.799 218.462 457.561 218.027ZM450.159 239.11C446.348 249.965 439.27 257.377 429.121 261.136C424.707 262.762 420.043 263.597 415.344 263.601C411.724 260.705 408.64 257.194 406.231 253.228C400.57 243.906 399.643 233.644 403.478 222.722L409.234 206.324L455.916 222.712L450.159 239.11Z" fill="#A5E7E7"/>
<path d="M432.51 214.714L415.377 263.518C421.883 264.432 432.963 260.099 436.679 257.292C443.255 254.119 448.239 244.448 449.908 240.009L455.905 222.928L432.51 214.714Z" fill="#37B9B9"/>
<path d="M148.506 367.197L214.143 359.251L213.695 316.248L196.653 332.663L175.046 311.357L159.146 337.203L138.681 325.328L148.506 367.197Z" fill="#E8CE44"/>
<path d="M148.506 367.197L181.324 363.224L175.046 311.357L159.146 337.203L138.681 325.328L148.506 367.197Z" fill="#FFE24B"/>
<path d="M455.989 294.467L459.081 305.371C464.383 324.064 448.653 333.575 448.653 333.575C448.653 333.575 430.272 333.739 424.97 315.047L421.877 304.143C421.76 303.73 421.811 303.287 422.019 302.912C422.227 302.538 422.575 302.262 422.986 302.145L453.996 293.349C454.407 293.233 454.848 293.285 455.222 293.495C455.596 293.704 455.871 294.054 455.989 294.467Z" fill="#B4B4B4"/>
<path d="M453.553 291.792L422.542 300.588C421.72 300.821 421.024 301.373 420.608 302.122C420.193 302.871 420.091 303.756 420.325 304.583L423.418 315.487C426.33 325.752 433.04 330.57 438.157 332.805C443.668 335.209 448.468 335.196 448.677 335.192C448.964 335.189 449.245 335.11 449.491 334.961C449.67 334.856 453.756 332.348 457.19 327.406C460.36 322.821 463.542 315.197 460.63 304.932L457.537 294.028C457.303 293.202 456.751 292.502 456.004 292.083C455.257 291.663 454.375 291.559 453.553 291.792ZM457.529 305.811C459.576 313.03 458.591 319.639 454.599 325.455C452.859 327.98 450.689 330.176 448.189 331.943C445.174 331.759 442.213 331.046 439.441 329.836C432.926 326.993 428.579 321.87 426.519 314.607L423.426 303.703L454.436 294.907L457.529 305.811Z" fill="#CCCCCC"/>
<path d="M438.971 299.435L448.176 331.887C451.983 329.931 456.255 323.459 457.18 320.567C459.49 316.406 458.512 309.378 457.734 306.385L454.512 295.026L438.971 299.435Z" fill="#929292"/>
</g>
<defs>
<filter id="filter0_d_2119_15392" x="94.4766" y="392.85" width="163" height="162.999" filterUnits="userSpaceOnUse" color-interpolation-filters="sRGB">
<feFlood flood-opacity="0" result="BackgroundImageFix"/>
<feColorMatrix in="SourceAlpha" type="matrix" values="0 0 0 0 0 0 0 0 0 0 0 0 0 0 0 0 0 0 127 0" result="hardAlpha"/>
<feOffset dy="8"/>
<feGaussianBlur stdDeviation="14"/>
<feComposite in2="hardAlpha" operator="out"/>
<feColorMatrix type="matrix" values="0 0 0 0 0.505 0 0 0 0 0.285089 0 0 0 0 0.0269333 0 0 0 0.1 0"/>
<feBlend mode="normal" in2="BackgroundImageFix" result="effect1_dropShadow_2119_15392"/>
<feBlend mode="normal" in="SourceGraphic" in2="effect1_dropShadow_2119_15392" result="shape"/>
</filter>
<filter id="filter1_d_2119_15392" x="103.57" y="401.945" width="144.809" height="144.809" filterUnits="userSpaceOnUse" color-interpolation-filters="sRGB">
<feFlood flood-opacity="0" result="BackgroundImageFix"/>
<feColorMatrix in="SourceAlpha" type="matrix" values="0 0 0 0 0 0 0 0 0 0 0 0 0 0 0 0 0 0 127 0" result="hardAlpha"/>
<feOffset dy="8"/>
<feGaussianBlur stdDeviation="14"/>
<feComposite in2="hardAlpha" operator="out"/>
<feColorMatrix type="matrix" values="0 0 0 0 0.505 0 0 0 0 0.285089 0 0 0 0 0.0269333 0 0 0 0.1 0"/>
<feBlend mode="normal" in2="BackgroundImageFix" result="effect1_dropShadow_2119_15392"/>
<feBlend mode="normal" in="SourceGraphic" in2="effect1_dropShadow_2119_15392" result="shape"/>
</filter>
<filter id="filter2_i_2119_15392" x="142.271" y="432.645" width="71.4102" height="71.4092" filterUnits="userSpaceOnUse" color-interpolation-filters="sRGB">
<feFlood flood-opacity="0" result="BackgroundImageFix"/>
<feBlend mode="normal" in="SourceGraphic" in2="BackgroundImageFix" result="shape"/>
<feColorMatrix in="SourceAlpha" type="matrix" values="0 0 0 0 0 0 0 0 0 0 0 0 0 0 0 0 0 0 127 0" result="hardAlpha"/>
<feOffset dx="4" dy="4"/>
<feGaussianBlur stdDeviation="2"/>
<feComposite in2="hardAlpha" operator="arithmetic" k2="-1" k3="1"/>
<feColorMatrix type="matrix" values="0 0 0 0 0.566667 0 0 0 0 0.380611 0 0 0 0 0.101528 0 0 0 0.25 0"/>
<feBlend mode="normal" in2="shape" result="effect1_innerShadow_2119_15392"/>
</filter>
<filter id="filter3_d_2119_15392" x="164.611" y="453.565" width="30.4297" height="33.6489" filterUnits="userSpaceOnUse" color-interpolation-filters="sRGB">
<feFlood flood-opacity="0" result="BackgroundImageFix"/>
<feColorMatrix in="SourceAlpha" type="matrix" values="0 0 0 0 0 0 0 0 0 0 0 0 0 0 0 0 0 0 127 0" result="hardAlpha"/>
<feOffset dx="4" dy="4"/>
<feGaussianBlur stdDeviation="2"/>
<feComposite in2="hardAlpha" operator="out"/>
<feColorMatrix type="matrix" values="0 0 0 0 0.831667 0 0 0 0 0.542845 0 0 0 0 0 0 0 0 1 0"/>
<feBlend mode="normal" in2="BackgroundImageFix" result="effect1_dropShadow_2119_15392"/>
<feBlend mode="normal" in="SourceGraphic" in2="effect1_dropShadow_2119_15392" result="shape"/>
</filter>
<filter id="filter4_d_2119_15392" x="317.854" y="52.7554" width="162.645" height="162.644" filterUnits="userSpaceOnUse" color-interpolation-filters="sRGB">
<feFlood flood-opacity="0" result="BackgroundImageFix"/>
<feColorMatrix in="SourceAlpha" type="matrix" values="0 0 0 0 0 0 0 0 0 0 0 0 0 0 0 0 0 0 127 0" result="hardAlpha"/>
<feOffset dy="8"/>
<feGaussianBlur stdDeviation="14"/>
<feComposite in2="hardAlpha" operator="out"/>
<feColorMatrix type="matrix" values="0 0 0 0 0.505 0 0 0 0 0.285089 0 0 0 0 0.0269333 0 0 0 0.1 0"/>
<feBlend mode="normal" in2="BackgroundImageFix" result="effect1_dropShadow_2119_15392"/>
<feBlend mode="normal" in="SourceGraphic" in2="effect1_dropShadow_2119_15392" result="shape"/>
</filter>
<filter id="filter5_d_2119_15392" x="326.918" y="61.8198" width="144.516" height="144.515" filterUnits="userSpaceOnUse" color-interpolation-filters="sRGB">
<feFlood flood-opacity="0" result="BackgroundImageFix"/>
<feColorMatrix in="SourceAlpha" type="matrix" values="0 0 0 0 0 0 0 0 0 0 0 0 0 0 0 0 0 0 127 0" result="hardAlpha"/>
<feOffset dy="8"/>
<feGaussianBlur stdDeviation="14"/>
<feComposite in2="hardAlpha" operator="out"/>
<feColorMatrix type="matrix" values="0 0 0 0 0.505 0 0 0 0 0.285089 0 0 0 0 0.0269333 0 0 0 0.1 0"/>
<feBlend mode="normal" in2="BackgroundImageFix" result="effect1_dropShadow_2119_15392"/>
<feBlend mode="normal" in="SourceGraphic" in2="effect1_dropShadow_2119_15392" result="shape"/>
</filter>
<filter id="filter6_i_2119_15392" x="365.584" y="92.4844" width="71.1855" height="71.186" filterUnits="userSpaceOnUse" color-interpolation-filters="sRGB">
<feFlood flood-opacity="0" result="BackgroundImageFix"/>
<feBlend mode="normal" in="SourceGraphic" in2="BackgroundImageFix" result="shape"/>
<feColorMatrix in="SourceAlpha" type="matrix" values="0 0 0 0 0 0 0 0 0 0 0 0 0 0 0 0 0 0 127 0" result="hardAlpha"/>
<feOffset dx="4" dy="4"/>
<feGaussianBlur stdDeviation="2"/>
<feComposite in2="hardAlpha" operator="arithmetic" k2="-1" k3="1"/>
<feColorMatrix type="matrix" values="0 0 0 0 0.566667 0 0 0 0 0.380611 0 0 0 0 0.101528 0 0 0 0.25 0"/>
<feBlend mode="normal" in2="shape" result="effect1_innerShadow_2119_15392"/>
</filter>
<filter id="filter7_d_2119_15392" x="390.799" y="112.913" width="21.9785" height="33.2642" filterUnits="userSpaceOnUse" color-interpolation-filters="sRGB">
<feFlood flood-opacity="0" result="BackgroundImageFix"/>
<feColorMatrix in="SourceAlpha" type="matrix" values="0 0 0 0 0 0 0 0 0 0 0 0 0 0 0 0 0 0 127 0" result="hardAlpha"/>
<feOffset dx="4" dy="4"/>
<feGaussianBlur stdDeviation="2"/>
<feComposite in2="hardAlpha" operator="out"/>
<feColorMatrix type="matrix" values="0 0 0 0 0.831667 0 0 0 0 0.542845 0 0 0 0 0 0 0 0 1 0"/>
<feBlend mode="normal" in2="BackgroundImageFix" result="effect1_dropShadow_2119_15392"/>
<feBlend mode="normal" in="SourceGraphic" in2="effect1_dropShadow_2119_15392" result="shape"/>
</filter>
<filter id="filter8_d_2119_15392" x="114.43" y="95.4443" width="214.359" height="214.357" filterUnits="userSpaceOnUse" color-interpolation-filters="sRGB">
<feFlood flood-opacity="0" result="BackgroundImageFix"/>
<feColorMatrix in="SourceAlpha" type="matrix" values="0 0 0 0 0 0 0 0 0 0 0 0 0 0 0 0 0 0 127 0" result="hardAlpha"/>
<feOffset dy="8"/>
<feGaussianBlur stdDeviation="14"/>
<feComposite in2="hardAlpha" operator="out"/>
<feColorMatrix type="matrix" values="0 0 0 0 0.505 0 0 0 0 0.285089 0 0 0 0 0.0269333 0 0 0 0.1 0"/>
<feBlend mode="normal" in2="BackgroundImageFix" result="effect1_dropShadow_2119_15392"/>
<feBlend mode="normal" in="SourceGraphic" in2="effect1_dropShadow_2119_15392" result="shape"/>
</filter>
<filter id="filter9_d_2119_15392" x="127.889" y="108.905" width="187.438" height="187.437" filterUnits="userSpaceOnUse" color-interpolation-filters="sRGB">
<feFlood flood-opacity="0" result="BackgroundImageFix"/>
<feColorMatrix in="SourceAlpha" type="matrix" values="0 0 0 0 0 0 0 0 0 0 0 0 0 0 0 0 0 0 127 0" result="hardAlpha"/>
<feOffset dy="8"/>
<feGaussianBlur stdDeviation="14"/>
<feComposite in2="hardAlpha" operator="out"/>
<feColorMatrix type="matrix" values="0 0 0 0 0.505 0 0 0 0 0.285089 0 0 0 0 0.0269333 0 0 0 0.1 0"/>
<feBlend mode="normal" in2="BackgroundImageFix" result="effect1_dropShadow_2119_15392"/>
<feBlend mode="normal" in="SourceGraphic" in2="effect1_dropShadow_2119_15392" result="shape"/>
</filter>
<filter id="filter10_i_2119_15392" x="171.729" y="144.741" width="103.764" height="103.765" filterUnits="userSpaceOnUse" color-interpolation-filters="sRGB">
<feFlood flood-opacity="0" result="BackgroundImageFix"/>
<feBlend mode="normal" in="SourceGraphic" in2="BackgroundImageFix" result="shape"/>
<feColorMatrix in="SourceAlpha" type="matrix" values="0 0 0 0 0 0 0 0 0 0 0 0 0 0 0 0 0 0 127 0" result="hardAlpha"/>
<feOffset dx="4" dy="4"/>
<feGaussianBlur stdDeviation="2"/>
<feComposite in2="hardAlpha" operator="arithmetic" k2="-1" k3="1"/>
<feColorMatrix type="matrix" values="0 0 0 0 0.566667 0 0 0 0 0.380611 0 0 0 0 0.101528 0 0 0 0.25 0"/>
<feBlend mode="normal" in2="shape" result="effect1_innerShadow_2119_15392"/>
</filter>
<filter id="filter11_d_2119_15392" x="216.855" y="171.59" width="40.7578" height="46.0776" filterUnits="userSpaceOnUse" color-interpolation-filters="sRGB">
<feFlood flood-opacity="0" result="BackgroundImageFix"/>
<feColorMatrix in="SourceAlpha" type="matrix" values="0 0 0 0 0 0 0 0 0 0 0 0 0 0 0 0 0 0 127 0" result="hardAlpha"/>
<feOffset dx="4" dy="4"/>
<feGaussianBlur stdDeviation="2"/>
<feComposite in2="hardAlpha" operator="out"/>
<feColorMatrix type="matrix" values="0 0 0 0 0.831667 0 0 0 0 0.542845 0 0 0 0 0 0 0 0 1 0"/>
<feBlend mode="normal" in2="BackgroundImageFix" result="effect1_dropShadow_2119_15392"/>
<feBlend mode="normal" in="SourceGraphic" in2="effect1_dropShadow_2119_15392" result="shape"/>
</filter>
<filter id="filter12_d_2119_15392" x="190.531" y="180.727" width="34.623" height="45.7197" filterUnits="userSpaceOnUse" color-interpolation-filters="sRGB">
<feFlood flood-opacity="0" result="BackgroundImageFix"/>
<feColorMatrix in="SourceAlpha" type="matrix" values="0 0 0 0 0 0 0 0 0 0 0 0 0 0 0 0 0 0 127 0" result="hardAlpha"/>
<feOffset dx="4" dy="4"/>
<feGaussianBlur stdDeviation="2"/>
<feComposite in2="hardAlpha" operator="out"/>
<feColorMatrix type="matrix" values="0 0 0 0 0.831667 0 0 0 0 0.542845 0 0 0 0 0 0 0 0 1 0"/>
<feBlend mode="normal" in2="BackgroundImageFix" result="effect1_dropShadow_2119_15392"/>
<feBlend mode="normal" in="SourceGraphic" in2="effect1_dropShadow_2119_15392" result="shape"/>
</filter>
<filter id="filter13_d_2119_15392" x="167.332" y="199.081" width="265.412" height="265.413" filterUnits="userSpaceOnUse" color-interpolation-filters="sRGB">
<feFlood flood-opacity="0" result="BackgroundImageFix"/>
<feColorMatrix in="SourceAlpha" type="matrix" values="0 0 0 0 0 0 0 0 0 0 0 0 0 0 0 0 0 0 127 0" result="hardAlpha"/>
<feOffset dy="8"/>
<feGaussianBlur stdDeviation="14"/>
<feComposite in2="hardAlpha" operator="out"/>
<feColorMatrix type="matrix" values="0 0 0 0 0.505 0 0 0 0 0.285089 0 0 0 0 0.0269333 0 0 0 0.1 0"/>
<feBlend mode="normal" in2="BackgroundImageFix" result="effect1_dropShadow_2119_15392"/>
<feBlend mode="normal" in="SourceGraphic" in2="effect1_dropShadow_2119_15392" result="shape"/>
</filter>
<radialGradient id="paint0_radial_2119_15392" cx="0" cy="0" r="1" gradientUnits="userSpaceOnUse" gradientTransform="translate(299.5 299.5) rotate(90) scale(312.5)">
<stop stop-color="#FFE4B0"/>
<stop offset="1" stop-color="#FFE4B0" stop-opacity="0"/>
</radialGradient>
<linearGradient id="paint1_linear_2119_15392" x1="143.884" y1="433.457" x2="210.205" y2="491.755" gradientUnits="userSpaceOnUse">
<stop stop-color="#FDC805"/>
<stop offset="0.5" stop-color="#FFDE66"/>
<stop offset="1" stop-color="#FDBB00"/>
</linearGradient>
<linearGradient id="paint2_linear_2119_15392" x1="146.826" y1="436.666" x2="206.194" y2="498.173" gradientUnits="userSpaceOnUse">
<stop stop-color="#FFF0CB"/>
<stop offset="1" stop-color="white"/>
</linearGradient>
<linearGradient id="paint3_linear_2119_15392" x1="367.191" y1="93.2931" x2="433.293" y2="151.398" gradientUnits="userSpaceOnUse">
<stop stop-color="#FDC805"/>
<stop offset="0.5" stop-color="#FFDE66"/>
<stop offset="1" stop-color="#FDBB00"/>
</linearGradient>
<linearGradient id="paint4_linear_2119_15392" x1="370.123" y1="96.4914" x2="429.295" y2="157.795" gradientUnits="userSpaceOnUse">
<stop stop-color="#FFF0CB"/>
<stop offset="1" stop-color="white"/>
</linearGradient>
<linearGradient id="paint5_linear_2119_15392" x1="174.113" y1="145.942" x2="272.268" y2="232.223" gradientUnits="userSpaceOnUse">
<stop stop-color="#FDC805"/>
<stop offset="0.5" stop-color="#FFDE66"/>
<stop offset="1" stop-color="#FDBB00"/>
</linearGradient>
<linearGradient id="paint6_linear_2119_15392" x1="178.468" y1="150.69" x2="266.333" y2="241.721" gradientUnits="userSpaceOnUse">
<stop stop-color="#FFF0CB"/>
<stop offset="1" stop-color="white"/>
</linearGradient>
<clipPath id="clip0_2119_15392">
<rect width="600" height="600" fill="white"/>
</clipPath>
<clipPath id="clip1_2119_15392">
<rect width="151.231" height="59.6503" fill="white" transform="translate(258.527 459.046) rotate(-28.5382)"/>
</clipPath>
<clipPath id="clip2_2119_15392">
<rect width="120.078" height="57.2971" fill="white" transform="translate(127.328 74.4351)"/>
</clipPath>
</defs>
</svg>
